%TF.GenerationSoftware,KiCad,Pcbnew,8.0.0*%
%TF.CreationDate,2024-03-06T11:07:10-06:00*%
%TF.ProjectId,ESP32-S3 Weather Station V2,45535033-322d-4533-9320-576561746865,rev?*%
%TF.SameCoordinates,Original*%
%TF.FileFunction,Soldermask,Top*%
%TF.FilePolarity,Negative*%
%FSLAX46Y46*%
G04 Gerber Fmt 4.6, Leading zero omitted, Abs format (unit mm)*
G04 Created by KiCad (PCBNEW 8.0.0) date 2024-03-06 11:07:10*
%MOMM*%
%LPD*%
G01*
G04 APERTURE LIST*
G04 Aperture macros list*
%AMRoundRect*
0 Rectangle with rounded corners*
0 $1 Rounding radius*
0 $2 $3 $4 $5 $6 $7 $8 $9 X,Y pos of 4 corners*
0 Add a 4 corners polygon primitive as box body*
4,1,4,$2,$3,$4,$5,$6,$7,$8,$9,$2,$3,0*
0 Add four circle primitives for the rounded corners*
1,1,$1+$1,$2,$3*
1,1,$1+$1,$4,$5*
1,1,$1+$1,$6,$7*
1,1,$1+$1,$8,$9*
0 Add four rect primitives between the rounded corners*
20,1,$1+$1,$2,$3,$4,$5,0*
20,1,$1+$1,$4,$5,$6,$7,0*
20,1,$1+$1,$6,$7,$8,$9,0*
20,1,$1+$1,$8,$9,$2,$3,0*%
G04 Aperture macros list end*
%ADD10RoundRect,0.250000X0.475000X-0.337500X0.475000X0.337500X-0.475000X0.337500X-0.475000X-0.337500X0*%
%ADD11R,2.600000X2.600000*%
%ADD12C,2.600000*%
%ADD13RoundRect,0.237500X0.250000X0.237500X-0.250000X0.237500X-0.250000X-0.237500X0.250000X-0.237500X0*%
%ADD14RoundRect,0.237500X0.237500X-0.250000X0.237500X0.250000X-0.237500X0.250000X-0.237500X-0.250000X0*%
%ADD15RoundRect,0.237500X-0.237500X0.250000X-0.237500X-0.250000X0.237500X-0.250000X0.237500X0.250000X0*%
%ADD16RoundRect,0.250000X0.337500X0.475000X-0.337500X0.475000X-0.337500X-0.475000X0.337500X-0.475000X0*%
%ADD17RoundRect,0.150000X-0.200000X0.150000X-0.200000X-0.150000X0.200000X-0.150000X0.200000X0.150000X0*%
%ADD18R,1.500000X0.900000*%
%ADD19R,0.900000X1.500000*%
%ADD20R,1.000000X1.000000*%
%ADD21C,0.600000*%
%ADD22R,2.200000X2.200000*%
%ADD23O,2.200000X2.200000*%
%ADD24RoundRect,0.250000X-0.337500X-0.475000X0.337500X-0.475000X0.337500X0.475000X-0.337500X0.475000X0*%
%ADD25RoundRect,0.150000X0.200000X-0.150000X0.200000X0.150000X-0.200000X0.150000X-0.200000X-0.150000X0*%
%ADD26R,1.500000X1.000000*%
%ADD27C,0.650000*%
%ADD28RoundRect,0.150000X-0.425000X0.150000X-0.425000X-0.150000X0.425000X-0.150000X0.425000X0.150000X0*%
%ADD29RoundRect,0.075000X-0.500000X0.075000X-0.500000X-0.075000X0.500000X-0.075000X0.500000X0.075000X0*%
%ADD30O,2.100000X1.000000*%
%ADD31O,1.800000X1.000000*%
%ADD32RoundRect,0.375000X-0.625000X-0.375000X0.625000X-0.375000X0.625000X0.375000X-0.625000X0.375000X0*%
%ADD33RoundRect,0.500000X-0.500000X-1.400000X0.500000X-1.400000X0.500000X1.400000X-0.500000X1.400000X0*%
%ADD34RoundRect,0.102000X0.500000X0.350000X-0.500000X0.350000X-0.500000X-0.350000X0.500000X-0.350000X0*%
%ADD35R,1.100000X0.250000*%
%ADD36RoundRect,0.150000X0.150000X0.200000X-0.150000X0.200000X-0.150000X-0.200000X0.150000X-0.200000X0*%
%ADD37RoundRect,0.237500X-0.250000X-0.237500X0.250000X-0.237500X0.250000X0.237500X-0.250000X0.237500X0*%
%ADD38RoundRect,0.218750X-0.256250X0.218750X-0.256250X-0.218750X0.256250X-0.218750X0.256250X0.218750X0*%
G04 APERTURE END LIST*
D10*
%TO.C,C6*%
X163462500Y-77287500D03*
X163462500Y-75212500D03*
%TD*%
D11*
%TO.C,J8*%
X214055000Y-88620000D03*
D12*
X214055000Y-83540000D03*
X214055000Y-78460000D03*
X214055000Y-73380000D03*
%TD*%
D13*
%TO.C,R6*%
X180000000Y-70750000D03*
X178175000Y-70750000D03*
%TD*%
D14*
%TO.C,R4*%
X166750000Y-77000000D03*
X166750000Y-75175000D03*
%TD*%
D15*
%TO.C,R9*%
X205000000Y-89675000D03*
X205000000Y-91500000D03*
%TD*%
D16*
%TO.C,C10*%
X181000000Y-74250000D03*
X178925000Y-74250000D03*
%TD*%
D15*
%TO.C,R3*%
X121012500Y-55192500D03*
X121012500Y-57017500D03*
%TD*%
D10*
%TO.C,C2*%
X105500000Y-60325000D03*
X105500000Y-58250000D03*
%TD*%
D17*
%TO.C,D4*%
X136622500Y-75650000D03*
X136622500Y-74250000D03*
%TD*%
D11*
%TO.C,J5*%
X140010000Y-103000000D03*
D12*
X145090000Y-103000000D03*
X150170000Y-103000000D03*
X155250000Y-103000000D03*
%TD*%
D11*
%TO.C,J4*%
X189750000Y-103000000D03*
D12*
X194830000Y-103000000D03*
X199910000Y-103000000D03*
X204990000Y-103000000D03*
%TD*%
D18*
%TO.C,U2*%
X141100000Y-57760000D03*
X141100000Y-59030000D03*
X141100000Y-60300000D03*
X141100000Y-61570000D03*
X141100000Y-62840000D03*
X141100000Y-64110000D03*
X141100000Y-65380000D03*
X141100000Y-66650000D03*
X141100000Y-67920000D03*
X141100000Y-69190000D03*
X141100000Y-70460000D03*
X141100000Y-71730000D03*
X141100000Y-73000000D03*
X141100000Y-74270000D03*
D19*
X142865000Y-75520000D03*
X144135000Y-75520000D03*
X145405000Y-75520000D03*
X146675000Y-75520000D03*
X147945000Y-75520000D03*
X149215000Y-75520000D03*
X150485000Y-75520000D03*
X151755000Y-75520000D03*
X153025000Y-75520000D03*
X154295000Y-75520000D03*
X155565000Y-75520000D03*
X156835000Y-75520000D03*
D18*
X158600000Y-74270000D03*
X158600000Y-73000000D03*
X158600000Y-71730000D03*
X158600000Y-70460000D03*
X158600000Y-69190000D03*
X158600000Y-67920000D03*
X158600000Y-66650000D03*
X158600000Y-65380000D03*
X158600000Y-64110000D03*
X158600000Y-62840000D03*
X158600000Y-61570000D03*
X158600000Y-60300000D03*
X158600000Y-59030000D03*
X158600000Y-57760000D03*
D20*
X146990000Y-61610000D03*
D21*
X146990000Y-62360000D03*
D20*
X146990000Y-63110000D03*
D21*
X146990000Y-63860000D03*
D20*
X146990000Y-64610000D03*
D21*
X147740000Y-61610000D03*
X147740000Y-63110000D03*
X147740000Y-64610000D03*
D20*
X148490000Y-61610000D03*
D21*
X148490000Y-62360000D03*
D20*
X148490000Y-63110000D03*
D21*
X148490000Y-63860000D03*
D20*
X148490000Y-64610000D03*
D21*
X149240000Y-61610000D03*
X149240000Y-63110000D03*
X149240000Y-64610000D03*
D20*
X149990000Y-61610000D03*
D21*
X149990000Y-62360000D03*
D20*
X149990000Y-63110000D03*
D21*
X149990000Y-63860000D03*
D20*
X149990000Y-64610000D03*
%TD*%
D11*
%TO.C,J6*%
X161752500Y-103000000D03*
D12*
X166832500Y-103000000D03*
%TD*%
D22*
%TO.C,D1*%
X123330000Y-67250000D03*
D23*
X113170000Y-67250000D03*
%TD*%
D24*
%TO.C,C4*%
X121712500Y-60750000D03*
X123787500Y-60750000D03*
%TD*%
D11*
%TO.C,J2*%
X128508750Y-102945000D03*
D12*
X133588750Y-102945000D03*
%TD*%
D14*
%TO.C,R7*%
X180837500Y-89662500D03*
X180837500Y-87837500D03*
%TD*%
D24*
%TO.C,C8*%
X180175000Y-65750000D03*
X182250000Y-65750000D03*
%TD*%
D11*
%TO.C,J11*%
X109300000Y-83440000D03*
D12*
X109300000Y-88520000D03*
X109300000Y-93600000D03*
%TD*%
D25*
%TO.C,D3*%
X136600000Y-71600000D03*
X136600000Y-73000000D03*
%TD*%
D16*
%TO.C,C9*%
X181000000Y-77750000D03*
X178925000Y-77750000D03*
%TD*%
D13*
%TO.C,R5*%
X180000000Y-68000000D03*
X178175000Y-68000000D03*
%TD*%
D26*
%TO.C,D6*%
X161500000Y-88950000D03*
X161500000Y-85750000D03*
X156600000Y-85750000D03*
X156600000Y-88950000D03*
%TD*%
D27*
%TO.C,J1*%
X106315000Y-70220000D03*
X106315000Y-76000000D03*
D28*
X107390000Y-69910000D03*
X107390000Y-70710000D03*
D29*
X107390000Y-71860000D03*
X107390000Y-72860000D03*
X107390000Y-73360000D03*
X107390000Y-74360000D03*
D28*
X107390000Y-75510000D03*
X107390000Y-76310000D03*
X107390000Y-76310000D03*
X107390000Y-75510000D03*
D29*
X107390000Y-74860000D03*
X107390000Y-73860000D03*
X107390000Y-72360000D03*
X107390000Y-71360000D03*
D28*
X107390000Y-70710000D03*
X107390000Y-69910000D03*
D30*
X106815000Y-68790000D03*
D31*
X102635000Y-68790000D03*
D30*
X106815000Y-77430000D03*
D31*
X102635000Y-77430000D03*
%TD*%
D11*
%TO.C,J7*%
X173211250Y-103000000D03*
D12*
X178291250Y-103000000D03*
X183371250Y-103000000D03*
%TD*%
D32*
%TO.C,U1*%
X111700000Y-55700000D03*
X111700000Y-58000000D03*
D33*
X118000000Y-58000000D03*
D32*
X111700000Y-60300000D03*
%TD*%
D11*
%TO.C,J3*%
X107040000Y-102940000D03*
D12*
X112120000Y-102940000D03*
X117200000Y-102940000D03*
X122280000Y-102940000D03*
%TD*%
D34*
%TO.C,SW2*%
X188500000Y-74075000D03*
X184000000Y-74075000D03*
X188500000Y-71925000D03*
X184000000Y-71925000D03*
%TD*%
D15*
%TO.C,R2*%
X115600000Y-76487500D03*
X115600000Y-78312500D03*
%TD*%
D11*
%TO.C,J10*%
X214055000Y-105085000D03*
D12*
X214055000Y-100005000D03*
X214055000Y-94925000D03*
%TD*%
D24*
%TO.C,C5*%
X121675000Y-62750000D03*
X123750000Y-62750000D03*
%TD*%
D35*
%TO.C,U3*%
X184350000Y-83500000D03*
X184350000Y-84000000D03*
X184350000Y-84500000D03*
X184350000Y-85000000D03*
X184350000Y-85500000D03*
X188650000Y-85500000D03*
X188650000Y-85000000D03*
X188650000Y-84500000D03*
X188650000Y-84000000D03*
X188650000Y-83500000D03*
%TD*%
D36*
%TO.C,D2*%
X111600000Y-63750000D03*
X113000000Y-63750000D03*
%TD*%
D16*
%TO.C,C7*%
X184500000Y-68500000D03*
X182425000Y-68500000D03*
%TD*%
D37*
%TO.C,R1*%
X112925000Y-71500000D03*
X114750000Y-71500000D03*
%TD*%
D16*
%TO.C,C1*%
X123325000Y-71500000D03*
X121250000Y-71500000D03*
%TD*%
D38*
%TO.C,D5*%
X124100000Y-55250000D03*
X124100000Y-56825000D03*
%TD*%
D15*
%TO.C,R8*%
X205000000Y-93500000D03*
X205000000Y-95325000D03*
%TD*%
D34*
%TO.C,SW1*%
X174600000Y-73975000D03*
X170100000Y-73975000D03*
X174600000Y-71825000D03*
X170100000Y-71825000D03*
%TD*%
D10*
%TO.C,C3*%
X107500000Y-60325000D03*
X107500000Y-58250000D03*
%TD*%
M02*
