%TF.GenerationSoftware,KiCad,Pcbnew,8.0.0*%
%TF.CreationDate,2024-03-06T11:07:10-06:00*%
%TF.ProjectId,ESP32-S3 Weather Station V2,45535033-322d-4533-9320-576561746865,rev?*%
%TF.SameCoordinates,Original*%
%TF.FileFunction,Legend,Top*%
%TF.FilePolarity,Positive*%
%FSLAX46Y46*%
G04 Gerber Fmt 4.6, Leading zero omitted, Abs format (unit mm)*
G04 Created by KiCad (PCBNEW 8.0.0) date 2024-03-06 11:07:10*
%MOMM*%
%LPD*%
G01*
G04 APERTURE LIST*
%ADD10C,0.100000*%
%ADD11C,0.150000*%
%ADD12C,0.120000*%
G04 APERTURE END LIST*
D10*
X193827693Y-107920038D02*
X193732455Y-107872419D01*
X193732455Y-107872419D02*
X193589598Y-107872419D01*
X193589598Y-107872419D02*
X193446741Y-107920038D01*
X193446741Y-107920038D02*
X193351503Y-108015276D01*
X193351503Y-108015276D02*
X193303884Y-108110514D01*
X193303884Y-108110514D02*
X193256265Y-108300990D01*
X193256265Y-108300990D02*
X193256265Y-108443847D01*
X193256265Y-108443847D02*
X193303884Y-108634323D01*
X193303884Y-108634323D02*
X193351503Y-108729561D01*
X193351503Y-108729561D02*
X193446741Y-108824800D01*
X193446741Y-108824800D02*
X193589598Y-108872419D01*
X193589598Y-108872419D02*
X193684836Y-108872419D01*
X193684836Y-108872419D02*
X193827693Y-108824800D01*
X193827693Y-108824800D02*
X193875312Y-108777180D01*
X193875312Y-108777180D02*
X193875312Y-108443847D01*
X193875312Y-108443847D02*
X193684836Y-108443847D01*
X194303884Y-108872419D02*
X194303884Y-107872419D01*
X194303884Y-107872419D02*
X194875312Y-108872419D01*
X194875312Y-108872419D02*
X194875312Y-107872419D01*
X195351503Y-108872419D02*
X195351503Y-107872419D01*
X195351503Y-107872419D02*
X195589598Y-107872419D01*
X195589598Y-107872419D02*
X195732455Y-107920038D01*
X195732455Y-107920038D02*
X195827693Y-108015276D01*
X195827693Y-108015276D02*
X195875312Y-108110514D01*
X195875312Y-108110514D02*
X195922931Y-108300990D01*
X195922931Y-108300990D02*
X195922931Y-108443847D01*
X195922931Y-108443847D02*
X195875312Y-108634323D01*
X195875312Y-108634323D02*
X195827693Y-108729561D01*
X195827693Y-108729561D02*
X195732455Y-108824800D01*
X195732455Y-108824800D02*
X195589598Y-108872419D01*
X195589598Y-108872419D02*
X195351503Y-108872419D01*
X166327693Y-108170038D02*
X166232455Y-108122419D01*
X166232455Y-108122419D02*
X166089598Y-108122419D01*
X166089598Y-108122419D02*
X165946741Y-108170038D01*
X165946741Y-108170038D02*
X165851503Y-108265276D01*
X165851503Y-108265276D02*
X165803884Y-108360514D01*
X165803884Y-108360514D02*
X165756265Y-108550990D01*
X165756265Y-108550990D02*
X165756265Y-108693847D01*
X165756265Y-108693847D02*
X165803884Y-108884323D01*
X165803884Y-108884323D02*
X165851503Y-108979561D01*
X165851503Y-108979561D02*
X165946741Y-109074800D01*
X165946741Y-109074800D02*
X166089598Y-109122419D01*
X166089598Y-109122419D02*
X166184836Y-109122419D01*
X166184836Y-109122419D02*
X166327693Y-109074800D01*
X166327693Y-109074800D02*
X166375312Y-109027180D01*
X166375312Y-109027180D02*
X166375312Y-108693847D01*
X166375312Y-108693847D02*
X166184836Y-108693847D01*
X166803884Y-109122419D02*
X166803884Y-108122419D01*
X166803884Y-108122419D02*
X167375312Y-109122419D01*
X167375312Y-109122419D02*
X167375312Y-108122419D01*
X167851503Y-109122419D02*
X167851503Y-108122419D01*
X167851503Y-108122419D02*
X168089598Y-108122419D01*
X168089598Y-108122419D02*
X168232455Y-108170038D01*
X168232455Y-108170038D02*
X168327693Y-108265276D01*
X168327693Y-108265276D02*
X168375312Y-108360514D01*
X168375312Y-108360514D02*
X168422931Y-108550990D01*
X168422931Y-108550990D02*
X168422931Y-108693847D01*
X168422931Y-108693847D02*
X168375312Y-108884323D01*
X168375312Y-108884323D02*
X168327693Y-108979561D01*
X168327693Y-108979561D02*
X168232455Y-109074800D01*
X168232455Y-109074800D02*
X168089598Y-109122419D01*
X168089598Y-109122419D02*
X167851503Y-109122419D01*
X208009537Y-96493734D02*
X208009537Y-96017544D01*
X208295252Y-96588972D02*
X207295252Y-96255639D01*
X207295252Y-96255639D02*
X208295252Y-95922306D01*
X208295252Y-95588972D02*
X207295252Y-95588972D01*
X207295252Y-95588972D02*
X207295252Y-95350877D01*
X207295252Y-95350877D02*
X207342871Y-95208020D01*
X207342871Y-95208020D02*
X207438109Y-95112782D01*
X207438109Y-95112782D02*
X207533347Y-95065163D01*
X207533347Y-95065163D02*
X207723823Y-95017544D01*
X207723823Y-95017544D02*
X207866680Y-95017544D01*
X207866680Y-95017544D02*
X208057156Y-95065163D01*
X208057156Y-95065163D02*
X208152394Y-95112782D01*
X208152394Y-95112782D02*
X208247633Y-95208020D01*
X208247633Y-95208020D02*
X208295252Y-95350877D01*
X208295252Y-95350877D02*
X208295252Y-95588972D01*
X208200013Y-94017544D02*
X208247633Y-94065163D01*
X208247633Y-94065163D02*
X208295252Y-94208020D01*
X208295252Y-94208020D02*
X208295252Y-94303258D01*
X208295252Y-94303258D02*
X208247633Y-94446115D01*
X208247633Y-94446115D02*
X208152394Y-94541353D01*
X208152394Y-94541353D02*
X208057156Y-94588972D01*
X208057156Y-94588972D02*
X207866680Y-94636591D01*
X207866680Y-94636591D02*
X207723823Y-94636591D01*
X207723823Y-94636591D02*
X207533347Y-94588972D01*
X207533347Y-94588972D02*
X207438109Y-94541353D01*
X207438109Y-94541353D02*
X207342871Y-94446115D01*
X207342871Y-94446115D02*
X207295252Y-94303258D01*
X207295252Y-94303258D02*
X207295252Y-94208020D01*
X207295252Y-94208020D02*
X207342871Y-94065163D01*
X207342871Y-94065163D02*
X207390490Y-94017544D01*
X207295252Y-93684210D02*
X207295252Y-93065163D01*
X207295252Y-93065163D02*
X207676204Y-93398496D01*
X207676204Y-93398496D02*
X207676204Y-93255639D01*
X207676204Y-93255639D02*
X207723823Y-93160401D01*
X207723823Y-93160401D02*
X207771442Y-93112782D01*
X207771442Y-93112782D02*
X207866680Y-93065163D01*
X207866680Y-93065163D02*
X208104775Y-93065163D01*
X208104775Y-93065163D02*
X208200013Y-93112782D01*
X208200013Y-93112782D02*
X208247633Y-93160401D01*
X208247633Y-93160401D02*
X208295252Y-93255639D01*
X208295252Y-93255639D02*
X208295252Y-93541353D01*
X208295252Y-93541353D02*
X208247633Y-93636591D01*
X208247633Y-93636591D02*
X208200013Y-93684210D01*
X220074800Y-79743734D02*
X220122419Y-79600877D01*
X220122419Y-79600877D02*
X220122419Y-79362782D01*
X220122419Y-79362782D02*
X220074800Y-79267544D01*
X220074800Y-79267544D02*
X220027180Y-79219925D01*
X220027180Y-79219925D02*
X219931942Y-79172306D01*
X219931942Y-79172306D02*
X219836704Y-79172306D01*
X219836704Y-79172306D02*
X219741466Y-79219925D01*
X219741466Y-79219925D02*
X219693847Y-79267544D01*
X219693847Y-79267544D02*
X219646228Y-79362782D01*
X219646228Y-79362782D02*
X219598609Y-79553258D01*
X219598609Y-79553258D02*
X219550990Y-79648496D01*
X219550990Y-79648496D02*
X219503371Y-79696115D01*
X219503371Y-79696115D02*
X219408133Y-79743734D01*
X219408133Y-79743734D02*
X219312895Y-79743734D01*
X219312895Y-79743734D02*
X219217657Y-79696115D01*
X219217657Y-79696115D02*
X219170038Y-79648496D01*
X219170038Y-79648496D02*
X219122419Y-79553258D01*
X219122419Y-79553258D02*
X219122419Y-79315163D01*
X219122419Y-79315163D02*
X219170038Y-79172306D01*
X220122419Y-78743734D02*
X219122419Y-78743734D01*
X219122419Y-78743734D02*
X219122419Y-78505639D01*
X219122419Y-78505639D02*
X219170038Y-78362782D01*
X219170038Y-78362782D02*
X219265276Y-78267544D01*
X219265276Y-78267544D02*
X219360514Y-78219925D01*
X219360514Y-78219925D02*
X219550990Y-78172306D01*
X219550990Y-78172306D02*
X219693847Y-78172306D01*
X219693847Y-78172306D02*
X219884323Y-78219925D01*
X219884323Y-78219925D02*
X219979561Y-78267544D01*
X219979561Y-78267544D02*
X220074800Y-78362782D01*
X220074800Y-78362782D02*
X220122419Y-78505639D01*
X220122419Y-78505639D02*
X220122419Y-78743734D01*
X219836704Y-77791353D02*
X219836704Y-77315163D01*
X220122419Y-77886591D02*
X219122419Y-77553258D01*
X219122419Y-77553258D02*
X220122419Y-77219925D01*
X173280074Y-107872419D02*
X172803884Y-107872419D01*
X172803884Y-107872419D02*
X172756265Y-108348609D01*
X172756265Y-108348609D02*
X172803884Y-108300990D01*
X172803884Y-108300990D02*
X172899122Y-108253371D01*
X172899122Y-108253371D02*
X173137217Y-108253371D01*
X173137217Y-108253371D02*
X173232455Y-108300990D01*
X173232455Y-108300990D02*
X173280074Y-108348609D01*
X173280074Y-108348609D02*
X173327693Y-108443847D01*
X173327693Y-108443847D02*
X173327693Y-108681942D01*
X173327693Y-108681942D02*
X173280074Y-108777180D01*
X173280074Y-108777180D02*
X173232455Y-108824800D01*
X173232455Y-108824800D02*
X173137217Y-108872419D01*
X173137217Y-108872419D02*
X172899122Y-108872419D01*
X172899122Y-108872419D02*
X172803884Y-108824800D01*
X172803884Y-108824800D02*
X172756265Y-108777180D01*
X173613408Y-107872419D02*
X173946741Y-108872419D01*
X173946741Y-108872419D02*
X174280074Y-107872419D01*
X189530074Y-107872419D02*
X189053884Y-107872419D01*
X189053884Y-107872419D02*
X189006265Y-108348609D01*
X189006265Y-108348609D02*
X189053884Y-108300990D01*
X189053884Y-108300990D02*
X189149122Y-108253371D01*
X189149122Y-108253371D02*
X189387217Y-108253371D01*
X189387217Y-108253371D02*
X189482455Y-108300990D01*
X189482455Y-108300990D02*
X189530074Y-108348609D01*
X189530074Y-108348609D02*
X189577693Y-108443847D01*
X189577693Y-108443847D02*
X189577693Y-108681942D01*
X189577693Y-108681942D02*
X189530074Y-108777180D01*
X189530074Y-108777180D02*
X189482455Y-108824800D01*
X189482455Y-108824800D02*
X189387217Y-108872419D01*
X189387217Y-108872419D02*
X189149122Y-108872419D01*
X189149122Y-108872419D02*
X189053884Y-108824800D01*
X189053884Y-108824800D02*
X189006265Y-108777180D01*
X189863408Y-107872419D02*
X190196741Y-108872419D01*
X190196741Y-108872419D02*
X190530074Y-107872419D01*
X103792842Y-88285812D02*
X103792842Y-87809622D01*
X103792842Y-87809622D02*
X103316652Y-87762003D01*
X103316652Y-87762003D02*
X103364271Y-87809622D01*
X103364271Y-87809622D02*
X103411890Y-87904860D01*
X103411890Y-87904860D02*
X103411890Y-88142955D01*
X103411890Y-88142955D02*
X103364271Y-88238193D01*
X103364271Y-88238193D02*
X103316652Y-88285812D01*
X103316652Y-88285812D02*
X103221414Y-88333431D01*
X103221414Y-88333431D02*
X102983319Y-88333431D01*
X102983319Y-88333431D02*
X102888081Y-88285812D01*
X102888081Y-88285812D02*
X102840462Y-88238193D01*
X102840462Y-88238193D02*
X102792842Y-88142955D01*
X102792842Y-88142955D02*
X102792842Y-87904860D01*
X102792842Y-87904860D02*
X102840462Y-87809622D01*
X102840462Y-87809622D02*
X102888081Y-87762003D01*
X103792842Y-88619146D02*
X102792842Y-88952479D01*
X102792842Y-88952479D02*
X103792842Y-89285812D01*
X105303884Y-108872419D02*
X105303884Y-107872419D01*
X105970550Y-107872419D02*
X106161026Y-107872419D01*
X106161026Y-107872419D02*
X106256264Y-107920038D01*
X106256264Y-107920038D02*
X106351502Y-108015276D01*
X106351502Y-108015276D02*
X106399121Y-108205752D01*
X106399121Y-108205752D02*
X106399121Y-108539085D01*
X106399121Y-108539085D02*
X106351502Y-108729561D01*
X106351502Y-108729561D02*
X106256264Y-108824800D01*
X106256264Y-108824800D02*
X106161026Y-108872419D01*
X106161026Y-108872419D02*
X105970550Y-108872419D01*
X105970550Y-108872419D02*
X105875312Y-108824800D01*
X105875312Y-108824800D02*
X105780074Y-108729561D01*
X105780074Y-108729561D02*
X105732455Y-108539085D01*
X105732455Y-108539085D02*
X105732455Y-108205752D01*
X105732455Y-108205752D02*
X105780074Y-108015276D01*
X105780074Y-108015276D02*
X105875312Y-107920038D01*
X105875312Y-107920038D02*
X105970550Y-107872419D01*
X107351502Y-108872419D02*
X106780074Y-108872419D01*
X107065788Y-108872419D02*
X107065788Y-107872419D01*
X107065788Y-107872419D02*
X106970550Y-108015276D01*
X106970550Y-108015276D02*
X106875312Y-108110514D01*
X106875312Y-108110514D02*
X106780074Y-108158133D01*
X107970550Y-107872419D02*
X108065788Y-107872419D01*
X108065788Y-107872419D02*
X108161026Y-107920038D01*
X108161026Y-107920038D02*
X108208645Y-107967657D01*
X108208645Y-107967657D02*
X108256264Y-108062895D01*
X108256264Y-108062895D02*
X108303883Y-108253371D01*
X108303883Y-108253371D02*
X108303883Y-108491466D01*
X108303883Y-108491466D02*
X108256264Y-108681942D01*
X108256264Y-108681942D02*
X108208645Y-108777180D01*
X108208645Y-108777180D02*
X108161026Y-108824800D01*
X108161026Y-108824800D02*
X108065788Y-108872419D01*
X108065788Y-108872419D02*
X107970550Y-108872419D01*
X107970550Y-108872419D02*
X107875312Y-108824800D01*
X107875312Y-108824800D02*
X107827693Y-108777180D01*
X107827693Y-108777180D02*
X107780074Y-108681942D01*
X107780074Y-108681942D02*
X107732455Y-108491466D01*
X107732455Y-108491466D02*
X107732455Y-108253371D01*
X107732455Y-108253371D02*
X107780074Y-108062895D01*
X107780074Y-108062895D02*
X107827693Y-107967657D01*
X107827693Y-107967657D02*
X107875312Y-107920038D01*
X107875312Y-107920038D02*
X107970550Y-107872419D01*
X139530074Y-107872419D02*
X139053884Y-107872419D01*
X139053884Y-107872419D02*
X139006265Y-108348609D01*
X139006265Y-108348609D02*
X139053884Y-108300990D01*
X139053884Y-108300990D02*
X139149122Y-108253371D01*
X139149122Y-108253371D02*
X139387217Y-108253371D01*
X139387217Y-108253371D02*
X139482455Y-108300990D01*
X139482455Y-108300990D02*
X139530074Y-108348609D01*
X139530074Y-108348609D02*
X139577693Y-108443847D01*
X139577693Y-108443847D02*
X139577693Y-108681942D01*
X139577693Y-108681942D02*
X139530074Y-108777180D01*
X139530074Y-108777180D02*
X139482455Y-108824800D01*
X139482455Y-108824800D02*
X139387217Y-108872419D01*
X139387217Y-108872419D02*
X139149122Y-108872419D01*
X139149122Y-108872419D02*
X139053884Y-108824800D01*
X139053884Y-108824800D02*
X139006265Y-108777180D01*
X139863408Y-107872419D02*
X140196741Y-108872419D01*
X140196741Y-108872419D02*
X140530074Y-107872419D01*
X170875312Y-69872419D02*
X170541979Y-69396228D01*
X170303884Y-69872419D02*
X170303884Y-68872419D01*
X170303884Y-68872419D02*
X170684836Y-68872419D01*
X170684836Y-68872419D02*
X170780074Y-68920038D01*
X170780074Y-68920038D02*
X170827693Y-68967657D01*
X170827693Y-68967657D02*
X170875312Y-69062895D01*
X170875312Y-69062895D02*
X170875312Y-69205752D01*
X170875312Y-69205752D02*
X170827693Y-69300990D01*
X170827693Y-69300990D02*
X170780074Y-69348609D01*
X170780074Y-69348609D02*
X170684836Y-69396228D01*
X170684836Y-69396228D02*
X170303884Y-69396228D01*
X171303884Y-69348609D02*
X171637217Y-69348609D01*
X171780074Y-69872419D02*
X171303884Y-69872419D01*
X171303884Y-69872419D02*
X171303884Y-68872419D01*
X171303884Y-68872419D02*
X171780074Y-68872419D01*
X172161027Y-69824800D02*
X172303884Y-69872419D01*
X172303884Y-69872419D02*
X172541979Y-69872419D01*
X172541979Y-69872419D02*
X172637217Y-69824800D01*
X172637217Y-69824800D02*
X172684836Y-69777180D01*
X172684836Y-69777180D02*
X172732455Y-69681942D01*
X172732455Y-69681942D02*
X172732455Y-69586704D01*
X172732455Y-69586704D02*
X172684836Y-69491466D01*
X172684836Y-69491466D02*
X172637217Y-69443847D01*
X172637217Y-69443847D02*
X172541979Y-69396228D01*
X172541979Y-69396228D02*
X172351503Y-69348609D01*
X172351503Y-69348609D02*
X172256265Y-69300990D01*
X172256265Y-69300990D02*
X172208646Y-69253371D01*
X172208646Y-69253371D02*
X172161027Y-69158133D01*
X172161027Y-69158133D02*
X172161027Y-69062895D01*
X172161027Y-69062895D02*
X172208646Y-68967657D01*
X172208646Y-68967657D02*
X172256265Y-68920038D01*
X172256265Y-68920038D02*
X172351503Y-68872419D01*
X172351503Y-68872419D02*
X172589598Y-68872419D01*
X172589598Y-68872419D02*
X172732455Y-68920038D01*
X173161027Y-69348609D02*
X173494360Y-69348609D01*
X173637217Y-69872419D02*
X173161027Y-69872419D01*
X173161027Y-69872419D02*
X173161027Y-68872419D01*
X173161027Y-68872419D02*
X173637217Y-68872419D01*
X173922932Y-68872419D02*
X174494360Y-68872419D01*
X174208646Y-69872419D02*
X174208646Y-68872419D01*
X111708646Y-51622419D02*
X112327693Y-51622419D01*
X112327693Y-51622419D02*
X111994360Y-52003371D01*
X111994360Y-52003371D02*
X112137217Y-52003371D01*
X112137217Y-52003371D02*
X112232455Y-52050990D01*
X112232455Y-52050990D02*
X112280074Y-52098609D01*
X112280074Y-52098609D02*
X112327693Y-52193847D01*
X112327693Y-52193847D02*
X112327693Y-52431942D01*
X112327693Y-52431942D02*
X112280074Y-52527180D01*
X112280074Y-52527180D02*
X112232455Y-52574800D01*
X112232455Y-52574800D02*
X112137217Y-52622419D01*
X112137217Y-52622419D02*
X111851503Y-52622419D01*
X111851503Y-52622419D02*
X111756265Y-52574800D01*
X111756265Y-52574800D02*
X111708646Y-52527180D01*
X112756265Y-52527180D02*
X112803884Y-52574800D01*
X112803884Y-52574800D02*
X112756265Y-52622419D01*
X112756265Y-52622419D02*
X112708646Y-52574800D01*
X112708646Y-52574800D02*
X112756265Y-52527180D01*
X112756265Y-52527180D02*
X112756265Y-52622419D01*
X113137217Y-51622419D02*
X113756264Y-51622419D01*
X113756264Y-51622419D02*
X113422931Y-52003371D01*
X113422931Y-52003371D02*
X113565788Y-52003371D01*
X113565788Y-52003371D02*
X113661026Y-52050990D01*
X113661026Y-52050990D02*
X113708645Y-52098609D01*
X113708645Y-52098609D02*
X113756264Y-52193847D01*
X113756264Y-52193847D02*
X113756264Y-52431942D01*
X113756264Y-52431942D02*
X113708645Y-52527180D01*
X113708645Y-52527180D02*
X113661026Y-52574800D01*
X113661026Y-52574800D02*
X113565788Y-52622419D01*
X113565788Y-52622419D02*
X113280074Y-52622419D01*
X113280074Y-52622419D02*
X113184836Y-52574800D01*
X113184836Y-52574800D02*
X113137217Y-52527180D01*
X114041979Y-51622419D02*
X114375312Y-52622419D01*
X114375312Y-52622419D02*
X114708645Y-51622419D01*
X116375312Y-52622419D02*
X116041979Y-52146228D01*
X115803884Y-52622419D02*
X115803884Y-51622419D01*
X115803884Y-51622419D02*
X116184836Y-51622419D01*
X116184836Y-51622419D02*
X116280074Y-51670038D01*
X116280074Y-51670038D02*
X116327693Y-51717657D01*
X116327693Y-51717657D02*
X116375312Y-51812895D01*
X116375312Y-51812895D02*
X116375312Y-51955752D01*
X116375312Y-51955752D02*
X116327693Y-52050990D01*
X116327693Y-52050990D02*
X116280074Y-52098609D01*
X116280074Y-52098609D02*
X116184836Y-52146228D01*
X116184836Y-52146228D02*
X115803884Y-52146228D01*
X116803884Y-52098609D02*
X117137217Y-52098609D01*
X117280074Y-52622419D02*
X116803884Y-52622419D01*
X116803884Y-52622419D02*
X116803884Y-51622419D01*
X116803884Y-51622419D02*
X117280074Y-51622419D01*
X118232455Y-51670038D02*
X118137217Y-51622419D01*
X118137217Y-51622419D02*
X117994360Y-51622419D01*
X117994360Y-51622419D02*
X117851503Y-51670038D01*
X117851503Y-51670038D02*
X117756265Y-51765276D01*
X117756265Y-51765276D02*
X117708646Y-51860514D01*
X117708646Y-51860514D02*
X117661027Y-52050990D01*
X117661027Y-52050990D02*
X117661027Y-52193847D01*
X117661027Y-52193847D02*
X117708646Y-52384323D01*
X117708646Y-52384323D02*
X117756265Y-52479561D01*
X117756265Y-52479561D02*
X117851503Y-52574800D01*
X117851503Y-52574800D02*
X117994360Y-52622419D01*
X117994360Y-52622419D02*
X118089598Y-52622419D01*
X118089598Y-52622419D02*
X118232455Y-52574800D01*
X118232455Y-52574800D02*
X118280074Y-52527180D01*
X118280074Y-52527180D02*
X118280074Y-52193847D01*
X118280074Y-52193847D02*
X118089598Y-52193847D01*
X103829961Y-93077693D02*
X103877580Y-92982455D01*
X103877580Y-92982455D02*
X103877580Y-92839598D01*
X103877580Y-92839598D02*
X103829961Y-92696741D01*
X103829961Y-92696741D02*
X103734723Y-92601503D01*
X103734723Y-92601503D02*
X103639485Y-92553884D01*
X103639485Y-92553884D02*
X103449009Y-92506265D01*
X103449009Y-92506265D02*
X103306152Y-92506265D01*
X103306152Y-92506265D02*
X103115676Y-92553884D01*
X103115676Y-92553884D02*
X103020438Y-92601503D01*
X103020438Y-92601503D02*
X102925200Y-92696741D01*
X102925200Y-92696741D02*
X102877580Y-92839598D01*
X102877580Y-92839598D02*
X102877580Y-92934836D01*
X102877580Y-92934836D02*
X102925200Y-93077693D01*
X102925200Y-93077693D02*
X102972819Y-93125312D01*
X102972819Y-93125312D02*
X103306152Y-93125312D01*
X103306152Y-93125312D02*
X103306152Y-92934836D01*
X102877580Y-93553884D02*
X103877580Y-93553884D01*
X103877580Y-93553884D02*
X102877580Y-94125312D01*
X102877580Y-94125312D02*
X103877580Y-94125312D01*
X102877580Y-94601503D02*
X103877580Y-94601503D01*
X103877580Y-94601503D02*
X103877580Y-94839598D01*
X103877580Y-94839598D02*
X103829961Y-94982455D01*
X103829961Y-94982455D02*
X103734723Y-95077693D01*
X103734723Y-95077693D02*
X103639485Y-95125312D01*
X103639485Y-95125312D02*
X103449009Y-95172931D01*
X103449009Y-95172931D02*
X103306152Y-95172931D01*
X103306152Y-95172931D02*
X103115676Y-95125312D01*
X103115676Y-95125312D02*
X103020438Y-95077693D01*
X103020438Y-95077693D02*
X102925200Y-94982455D01*
X102925200Y-94982455D02*
X102877580Y-94839598D01*
X102877580Y-94839598D02*
X102877580Y-94601503D01*
X156875312Y-91622419D02*
X156541979Y-91146228D01*
X156303884Y-91622419D02*
X156303884Y-90622419D01*
X156303884Y-90622419D02*
X156684836Y-90622419D01*
X156684836Y-90622419D02*
X156780074Y-90670038D01*
X156780074Y-90670038D02*
X156827693Y-90717657D01*
X156827693Y-90717657D02*
X156875312Y-90812895D01*
X156875312Y-90812895D02*
X156875312Y-90955752D01*
X156875312Y-90955752D02*
X156827693Y-91050990D01*
X156827693Y-91050990D02*
X156780074Y-91098609D01*
X156780074Y-91098609D02*
X156684836Y-91146228D01*
X156684836Y-91146228D02*
X156303884Y-91146228D01*
X157827693Y-90670038D02*
X157732455Y-90622419D01*
X157732455Y-90622419D02*
X157589598Y-90622419D01*
X157589598Y-90622419D02*
X157446741Y-90670038D01*
X157446741Y-90670038D02*
X157351503Y-90765276D01*
X157351503Y-90765276D02*
X157303884Y-90860514D01*
X157303884Y-90860514D02*
X157256265Y-91050990D01*
X157256265Y-91050990D02*
X157256265Y-91193847D01*
X157256265Y-91193847D02*
X157303884Y-91384323D01*
X157303884Y-91384323D02*
X157351503Y-91479561D01*
X157351503Y-91479561D02*
X157446741Y-91574800D01*
X157446741Y-91574800D02*
X157589598Y-91622419D01*
X157589598Y-91622419D02*
X157684836Y-91622419D01*
X157684836Y-91622419D02*
X157827693Y-91574800D01*
X157827693Y-91574800D02*
X157875312Y-91527180D01*
X157875312Y-91527180D02*
X157875312Y-91193847D01*
X157875312Y-91193847D02*
X157684836Y-91193847D01*
X158637217Y-91098609D02*
X158780074Y-91146228D01*
X158780074Y-91146228D02*
X158827693Y-91193847D01*
X158827693Y-91193847D02*
X158875312Y-91289085D01*
X158875312Y-91289085D02*
X158875312Y-91431942D01*
X158875312Y-91431942D02*
X158827693Y-91527180D01*
X158827693Y-91527180D02*
X158780074Y-91574800D01*
X158780074Y-91574800D02*
X158684836Y-91622419D01*
X158684836Y-91622419D02*
X158303884Y-91622419D01*
X158303884Y-91622419D02*
X158303884Y-90622419D01*
X158303884Y-90622419D02*
X158637217Y-90622419D01*
X158637217Y-90622419D02*
X158732455Y-90670038D01*
X158732455Y-90670038D02*
X158780074Y-90717657D01*
X158780074Y-90717657D02*
X158827693Y-90812895D01*
X158827693Y-90812895D02*
X158827693Y-90908133D01*
X158827693Y-90908133D02*
X158780074Y-91003371D01*
X158780074Y-91003371D02*
X158732455Y-91050990D01*
X158732455Y-91050990D02*
X158637217Y-91098609D01*
X158637217Y-91098609D02*
X158303884Y-91098609D01*
X160065789Y-91622419D02*
X160065789Y-90622419D01*
X160065789Y-90622419D02*
X160303884Y-90622419D01*
X160303884Y-90622419D02*
X160446741Y-90670038D01*
X160446741Y-90670038D02*
X160541979Y-90765276D01*
X160541979Y-90765276D02*
X160589598Y-90860514D01*
X160589598Y-90860514D02*
X160637217Y-91050990D01*
X160637217Y-91050990D02*
X160637217Y-91193847D01*
X160637217Y-91193847D02*
X160589598Y-91384323D01*
X160589598Y-91384323D02*
X160541979Y-91479561D01*
X160541979Y-91479561D02*
X160446741Y-91574800D01*
X160446741Y-91574800D02*
X160303884Y-91622419D01*
X160303884Y-91622419D02*
X160065789Y-91622419D01*
X161065789Y-91622419D02*
X161065789Y-90622419D01*
X161732455Y-90622419D02*
X161922931Y-90622419D01*
X161922931Y-90622419D02*
X162018169Y-90670038D01*
X162018169Y-90670038D02*
X162113407Y-90765276D01*
X162113407Y-90765276D02*
X162161026Y-90955752D01*
X162161026Y-90955752D02*
X162161026Y-91289085D01*
X162161026Y-91289085D02*
X162113407Y-91479561D01*
X162113407Y-91479561D02*
X162018169Y-91574800D01*
X162018169Y-91574800D02*
X161922931Y-91622419D01*
X161922931Y-91622419D02*
X161732455Y-91622419D01*
X161732455Y-91622419D02*
X161637217Y-91574800D01*
X161637217Y-91574800D02*
X161541979Y-91479561D01*
X161541979Y-91479561D02*
X161494360Y-91289085D01*
X161494360Y-91289085D02*
X161494360Y-90955752D01*
X161494360Y-90955752D02*
X161541979Y-90765276D01*
X161541979Y-90765276D02*
X161637217Y-90670038D01*
X161637217Y-90670038D02*
X161732455Y-90622419D01*
X162589598Y-91622419D02*
X162589598Y-90622419D01*
X162589598Y-90622419D02*
X162827693Y-90622419D01*
X162827693Y-90622419D02*
X162970550Y-90670038D01*
X162970550Y-90670038D02*
X163065788Y-90765276D01*
X163065788Y-90765276D02*
X163113407Y-90860514D01*
X163113407Y-90860514D02*
X163161026Y-91050990D01*
X163161026Y-91050990D02*
X163161026Y-91193847D01*
X163161026Y-91193847D02*
X163113407Y-91384323D01*
X163113407Y-91384323D02*
X163065788Y-91479561D01*
X163065788Y-91479561D02*
X162970550Y-91574800D01*
X162970550Y-91574800D02*
X162827693Y-91622419D01*
X162827693Y-91622419D02*
X162589598Y-91622419D01*
X185506265Y-87586704D02*
X185982455Y-87586704D01*
X185411027Y-87872419D02*
X185744360Y-86872419D01*
X185744360Y-86872419D02*
X186077693Y-87872419D01*
X186411027Y-87872419D02*
X186411027Y-86872419D01*
X186411027Y-86872419D02*
X186649122Y-86872419D01*
X186649122Y-86872419D02*
X186791979Y-86920038D01*
X186791979Y-86920038D02*
X186887217Y-87015276D01*
X186887217Y-87015276D02*
X186934836Y-87110514D01*
X186934836Y-87110514D02*
X186982455Y-87300990D01*
X186982455Y-87300990D02*
X186982455Y-87443847D01*
X186982455Y-87443847D02*
X186934836Y-87634323D01*
X186934836Y-87634323D02*
X186887217Y-87729561D01*
X186887217Y-87729561D02*
X186791979Y-87824800D01*
X186791979Y-87824800D02*
X186649122Y-87872419D01*
X186649122Y-87872419D02*
X186411027Y-87872419D01*
X187982455Y-87777180D02*
X187934836Y-87824800D01*
X187934836Y-87824800D02*
X187791979Y-87872419D01*
X187791979Y-87872419D02*
X187696741Y-87872419D01*
X187696741Y-87872419D02*
X187553884Y-87824800D01*
X187553884Y-87824800D02*
X187458646Y-87729561D01*
X187458646Y-87729561D02*
X187411027Y-87634323D01*
X187411027Y-87634323D02*
X187363408Y-87443847D01*
X187363408Y-87443847D02*
X187363408Y-87300990D01*
X187363408Y-87300990D02*
X187411027Y-87110514D01*
X187411027Y-87110514D02*
X187458646Y-87015276D01*
X187458646Y-87015276D02*
X187553884Y-86920038D01*
X187553884Y-86920038D02*
X187696741Y-86872419D01*
X187696741Y-86872419D02*
X187791979Y-86872419D01*
X187791979Y-86872419D02*
X187934836Y-86920038D01*
X187934836Y-86920038D02*
X187982455Y-86967657D01*
X208122419Y-78446115D02*
X207122419Y-78446115D01*
X207217657Y-78017544D02*
X207170038Y-77969925D01*
X207170038Y-77969925D02*
X207122419Y-77874687D01*
X207122419Y-77874687D02*
X207122419Y-77636592D01*
X207122419Y-77636592D02*
X207170038Y-77541354D01*
X207170038Y-77541354D02*
X207217657Y-77493735D01*
X207217657Y-77493735D02*
X207312895Y-77446116D01*
X207312895Y-77446116D02*
X207408133Y-77446116D01*
X207408133Y-77446116D02*
X207550990Y-77493735D01*
X207550990Y-77493735D02*
X208122419Y-78065163D01*
X208122419Y-78065163D02*
X208122419Y-77446116D01*
X208027180Y-76446116D02*
X208074800Y-76493735D01*
X208074800Y-76493735D02*
X208122419Y-76636592D01*
X208122419Y-76636592D02*
X208122419Y-76731830D01*
X208122419Y-76731830D02*
X208074800Y-76874687D01*
X208074800Y-76874687D02*
X207979561Y-76969925D01*
X207979561Y-76969925D02*
X207884323Y-77017544D01*
X207884323Y-77017544D02*
X207693847Y-77065163D01*
X207693847Y-77065163D02*
X207550990Y-77065163D01*
X207550990Y-77065163D02*
X207360514Y-77017544D01*
X207360514Y-77017544D02*
X207265276Y-76969925D01*
X207265276Y-76969925D02*
X207170038Y-76874687D01*
X207170038Y-76874687D02*
X207122419Y-76731830D01*
X207122419Y-76731830D02*
X207122419Y-76636592D01*
X207122419Y-76636592D02*
X207170038Y-76493735D01*
X207170038Y-76493735D02*
X207217657Y-76446116D01*
X207598609Y-74922306D02*
X207646228Y-74779449D01*
X207646228Y-74779449D02*
X207693847Y-74731830D01*
X207693847Y-74731830D02*
X207789085Y-74684211D01*
X207789085Y-74684211D02*
X207931942Y-74684211D01*
X207931942Y-74684211D02*
X208027180Y-74731830D01*
X208027180Y-74731830D02*
X208074800Y-74779449D01*
X208074800Y-74779449D02*
X208122419Y-74874687D01*
X208122419Y-74874687D02*
X208122419Y-75255639D01*
X208122419Y-75255639D02*
X207122419Y-75255639D01*
X207122419Y-75255639D02*
X207122419Y-74922306D01*
X207122419Y-74922306D02*
X207170038Y-74827068D01*
X207170038Y-74827068D02*
X207217657Y-74779449D01*
X207217657Y-74779449D02*
X207312895Y-74731830D01*
X207312895Y-74731830D02*
X207408133Y-74731830D01*
X207408133Y-74731830D02*
X207503371Y-74779449D01*
X207503371Y-74779449D02*
X207550990Y-74827068D01*
X207550990Y-74827068D02*
X207598609Y-74922306D01*
X207598609Y-74922306D02*
X207598609Y-75255639D01*
X207122419Y-74255639D02*
X207931942Y-74255639D01*
X207931942Y-74255639D02*
X208027180Y-74208020D01*
X208027180Y-74208020D02*
X208074800Y-74160401D01*
X208074800Y-74160401D02*
X208122419Y-74065163D01*
X208122419Y-74065163D02*
X208122419Y-73874687D01*
X208122419Y-73874687D02*
X208074800Y-73779449D01*
X208074800Y-73779449D02*
X208027180Y-73731830D01*
X208027180Y-73731830D02*
X207931942Y-73684211D01*
X207931942Y-73684211D02*
X207122419Y-73684211D01*
X208074800Y-73255639D02*
X208122419Y-73112782D01*
X208122419Y-73112782D02*
X208122419Y-72874687D01*
X208122419Y-72874687D02*
X208074800Y-72779449D01*
X208074800Y-72779449D02*
X208027180Y-72731830D01*
X208027180Y-72731830D02*
X207931942Y-72684211D01*
X207931942Y-72684211D02*
X207836704Y-72684211D01*
X207836704Y-72684211D02*
X207741466Y-72731830D01*
X207741466Y-72731830D02*
X207693847Y-72779449D01*
X207693847Y-72779449D02*
X207646228Y-72874687D01*
X207646228Y-72874687D02*
X207598609Y-73065163D01*
X207598609Y-73065163D02*
X207550990Y-73160401D01*
X207550990Y-73160401D02*
X207503371Y-73208020D01*
X207503371Y-73208020D02*
X207408133Y-73255639D01*
X207408133Y-73255639D02*
X207312895Y-73255639D01*
X207312895Y-73255639D02*
X207217657Y-73208020D01*
X207217657Y-73208020D02*
X207170038Y-73160401D01*
X207170038Y-73160401D02*
X207122419Y-73065163D01*
X207122419Y-73065163D02*
X207122419Y-72827068D01*
X207122419Y-72827068D02*
X207170038Y-72684211D01*
X219170038Y-84672306D02*
X219122419Y-84767544D01*
X219122419Y-84767544D02*
X219122419Y-84910401D01*
X219122419Y-84910401D02*
X219170038Y-85053258D01*
X219170038Y-85053258D02*
X219265276Y-85148496D01*
X219265276Y-85148496D02*
X219360514Y-85196115D01*
X219360514Y-85196115D02*
X219550990Y-85243734D01*
X219550990Y-85243734D02*
X219693847Y-85243734D01*
X219693847Y-85243734D02*
X219884323Y-85196115D01*
X219884323Y-85196115D02*
X219979561Y-85148496D01*
X219979561Y-85148496D02*
X220074800Y-85053258D01*
X220074800Y-85053258D02*
X220122419Y-84910401D01*
X220122419Y-84910401D02*
X220122419Y-84815163D01*
X220122419Y-84815163D02*
X220074800Y-84672306D01*
X220074800Y-84672306D02*
X220027180Y-84624687D01*
X220027180Y-84624687D02*
X219693847Y-84624687D01*
X219693847Y-84624687D02*
X219693847Y-84815163D01*
X220122419Y-84196115D02*
X219122419Y-84196115D01*
X219122419Y-84196115D02*
X220122419Y-83624687D01*
X220122419Y-83624687D02*
X219122419Y-83624687D01*
X220122419Y-83148496D02*
X219122419Y-83148496D01*
X219122419Y-83148496D02*
X219122419Y-82910401D01*
X219122419Y-82910401D02*
X219170038Y-82767544D01*
X219170038Y-82767544D02*
X219265276Y-82672306D01*
X219265276Y-82672306D02*
X219360514Y-82624687D01*
X219360514Y-82624687D02*
X219550990Y-82577068D01*
X219550990Y-82577068D02*
X219693847Y-82577068D01*
X219693847Y-82577068D02*
X219884323Y-82624687D01*
X219884323Y-82624687D02*
X219979561Y-82672306D01*
X219979561Y-82672306D02*
X220074800Y-82767544D01*
X220074800Y-82767544D02*
X220122419Y-82910401D01*
X220122419Y-82910401D02*
X220122419Y-83148496D01*
X103877580Y-82708646D02*
X103877580Y-83327693D01*
X103877580Y-83327693D02*
X103496628Y-82994360D01*
X103496628Y-82994360D02*
X103496628Y-83137217D01*
X103496628Y-83137217D02*
X103449009Y-83232455D01*
X103449009Y-83232455D02*
X103401390Y-83280074D01*
X103401390Y-83280074D02*
X103306152Y-83327693D01*
X103306152Y-83327693D02*
X103068057Y-83327693D01*
X103068057Y-83327693D02*
X102972819Y-83280074D01*
X102972819Y-83280074D02*
X102925200Y-83232455D01*
X102925200Y-83232455D02*
X102877580Y-83137217D01*
X102877580Y-83137217D02*
X102877580Y-82851503D01*
X102877580Y-82851503D02*
X102925200Y-82756265D01*
X102925200Y-82756265D02*
X102972819Y-82708646D01*
X103877580Y-83613408D02*
X102877580Y-83946741D01*
X102877580Y-83946741D02*
X103877580Y-84280074D01*
X103877580Y-84518170D02*
X103877580Y-85137217D01*
X103877580Y-85137217D02*
X103496628Y-84803884D01*
X103496628Y-84803884D02*
X103496628Y-84946741D01*
X103496628Y-84946741D02*
X103449009Y-85041979D01*
X103449009Y-85041979D02*
X103401390Y-85089598D01*
X103401390Y-85089598D02*
X103306152Y-85137217D01*
X103306152Y-85137217D02*
X103068057Y-85137217D01*
X103068057Y-85137217D02*
X102972819Y-85089598D01*
X102972819Y-85089598D02*
X102925200Y-85041979D01*
X102925200Y-85041979D02*
X102877580Y-84946741D01*
X102877580Y-84946741D02*
X102877580Y-84661027D01*
X102877580Y-84661027D02*
X102925200Y-84565789D01*
X102925200Y-84565789D02*
X102972819Y-84518170D01*
X196588646Y-96122419D02*
X196826741Y-97122419D01*
X196826741Y-97122419D02*
X197017217Y-96408133D01*
X197017217Y-96408133D02*
X197207693Y-97122419D01*
X197207693Y-97122419D02*
X197445789Y-96122419D01*
X197826741Y-97122419D02*
X197826741Y-96122419D01*
X198302931Y-97122419D02*
X198302931Y-96122419D01*
X198302931Y-96122419D02*
X198874359Y-97122419D01*
X198874359Y-97122419D02*
X198874359Y-96122419D01*
X199350550Y-97122419D02*
X199350550Y-96122419D01*
X199350550Y-96122419D02*
X199588645Y-96122419D01*
X199588645Y-96122419D02*
X199731502Y-96170038D01*
X199731502Y-96170038D02*
X199826740Y-96265276D01*
X199826740Y-96265276D02*
X199874359Y-96360514D01*
X199874359Y-96360514D02*
X199921978Y-96550990D01*
X199921978Y-96550990D02*
X199921978Y-96693847D01*
X199921978Y-96693847D02*
X199874359Y-96884323D01*
X199874359Y-96884323D02*
X199826740Y-96979561D01*
X199826740Y-96979561D02*
X199731502Y-97074800D01*
X199731502Y-97074800D02*
X199588645Y-97122419D01*
X199588645Y-97122419D02*
X199350550Y-97122419D01*
X149887217Y-96598609D02*
X150030074Y-96646228D01*
X150030074Y-96646228D02*
X150077693Y-96693847D01*
X150077693Y-96693847D02*
X150125312Y-96789085D01*
X150125312Y-96789085D02*
X150125312Y-96931942D01*
X150125312Y-96931942D02*
X150077693Y-97027180D01*
X150077693Y-97027180D02*
X150030074Y-97074800D01*
X150030074Y-97074800D02*
X149934836Y-97122419D01*
X149934836Y-97122419D02*
X149553884Y-97122419D01*
X149553884Y-97122419D02*
X149553884Y-96122419D01*
X149553884Y-96122419D02*
X149887217Y-96122419D01*
X149887217Y-96122419D02*
X149982455Y-96170038D01*
X149982455Y-96170038D02*
X150030074Y-96217657D01*
X150030074Y-96217657D02*
X150077693Y-96312895D01*
X150077693Y-96312895D02*
X150077693Y-96408133D01*
X150077693Y-96408133D02*
X150030074Y-96503371D01*
X150030074Y-96503371D02*
X149982455Y-96550990D01*
X149982455Y-96550990D02*
X149887217Y-96598609D01*
X149887217Y-96598609D02*
X149553884Y-96598609D01*
X150553884Y-97122419D02*
X150553884Y-96122419D01*
X150553884Y-96122419D02*
X150887217Y-96836704D01*
X150887217Y-96836704D02*
X151220550Y-96122419D01*
X151220550Y-96122419D02*
X151220550Y-97122419D01*
X151696741Y-96598609D02*
X152030074Y-96598609D01*
X152172931Y-97122419D02*
X151696741Y-97122419D01*
X151696741Y-97122419D02*
X151696741Y-96122419D01*
X151696741Y-96122419D02*
X152172931Y-96122419D01*
X153030074Y-96122419D02*
X152839598Y-96122419D01*
X152839598Y-96122419D02*
X152744360Y-96170038D01*
X152744360Y-96170038D02*
X152696741Y-96217657D01*
X152696741Y-96217657D02*
X152601503Y-96360514D01*
X152601503Y-96360514D02*
X152553884Y-96550990D01*
X152553884Y-96550990D02*
X152553884Y-96931942D01*
X152553884Y-96931942D02*
X152601503Y-97027180D01*
X152601503Y-97027180D02*
X152649122Y-97074800D01*
X152649122Y-97074800D02*
X152744360Y-97122419D01*
X152744360Y-97122419D02*
X152934836Y-97122419D01*
X152934836Y-97122419D02*
X153030074Y-97074800D01*
X153030074Y-97074800D02*
X153077693Y-97027180D01*
X153077693Y-97027180D02*
X153125312Y-96931942D01*
X153125312Y-96931942D02*
X153125312Y-96693847D01*
X153125312Y-96693847D02*
X153077693Y-96598609D01*
X153077693Y-96598609D02*
X153030074Y-96550990D01*
X153030074Y-96550990D02*
X152934836Y-96503371D01*
X152934836Y-96503371D02*
X152744360Y-96503371D01*
X152744360Y-96503371D02*
X152649122Y-96550990D01*
X152649122Y-96550990D02*
X152601503Y-96598609D01*
X152601503Y-96598609D02*
X152553884Y-96693847D01*
X153696741Y-96550990D02*
X153601503Y-96503371D01*
X153601503Y-96503371D02*
X153553884Y-96455752D01*
X153553884Y-96455752D02*
X153506265Y-96360514D01*
X153506265Y-96360514D02*
X153506265Y-96312895D01*
X153506265Y-96312895D02*
X153553884Y-96217657D01*
X153553884Y-96217657D02*
X153601503Y-96170038D01*
X153601503Y-96170038D02*
X153696741Y-96122419D01*
X153696741Y-96122419D02*
X153887217Y-96122419D01*
X153887217Y-96122419D02*
X153982455Y-96170038D01*
X153982455Y-96170038D02*
X154030074Y-96217657D01*
X154030074Y-96217657D02*
X154077693Y-96312895D01*
X154077693Y-96312895D02*
X154077693Y-96360514D01*
X154077693Y-96360514D02*
X154030074Y-96455752D01*
X154030074Y-96455752D02*
X153982455Y-96503371D01*
X153982455Y-96503371D02*
X153887217Y-96550990D01*
X153887217Y-96550990D02*
X153696741Y-96550990D01*
X153696741Y-96550990D02*
X153601503Y-96598609D01*
X153601503Y-96598609D02*
X153553884Y-96646228D01*
X153553884Y-96646228D02*
X153506265Y-96741466D01*
X153506265Y-96741466D02*
X153506265Y-96931942D01*
X153506265Y-96931942D02*
X153553884Y-97027180D01*
X153553884Y-97027180D02*
X153601503Y-97074800D01*
X153601503Y-97074800D02*
X153696741Y-97122419D01*
X153696741Y-97122419D02*
X153887217Y-97122419D01*
X153887217Y-97122419D02*
X153982455Y-97074800D01*
X153982455Y-97074800D02*
X154030074Y-97027180D01*
X154030074Y-97027180D02*
X154077693Y-96931942D01*
X154077693Y-96931942D02*
X154077693Y-96741466D01*
X154077693Y-96741466D02*
X154030074Y-96646228D01*
X154030074Y-96646228D02*
X153982455Y-96598609D01*
X153982455Y-96598609D02*
X153887217Y-96550990D01*
X154696741Y-96122419D02*
X154791979Y-96122419D01*
X154791979Y-96122419D02*
X154887217Y-96170038D01*
X154887217Y-96170038D02*
X154934836Y-96217657D01*
X154934836Y-96217657D02*
X154982455Y-96312895D01*
X154982455Y-96312895D02*
X155030074Y-96503371D01*
X155030074Y-96503371D02*
X155030074Y-96741466D01*
X155030074Y-96741466D02*
X154982455Y-96931942D01*
X154982455Y-96931942D02*
X154934836Y-97027180D01*
X154934836Y-97027180D02*
X154887217Y-97074800D01*
X154887217Y-97074800D02*
X154791979Y-97122419D01*
X154791979Y-97122419D02*
X154696741Y-97122419D01*
X154696741Y-97122419D02*
X154601503Y-97074800D01*
X154601503Y-97074800D02*
X154553884Y-97027180D01*
X154553884Y-97027180D02*
X154506265Y-96931942D01*
X154506265Y-96931942D02*
X154458646Y-96741466D01*
X154458646Y-96741466D02*
X154458646Y-96503371D01*
X154458646Y-96503371D02*
X154506265Y-96312895D01*
X154506265Y-96312895D02*
X154553884Y-96217657D01*
X154553884Y-96217657D02*
X154601503Y-96170038D01*
X154601503Y-96170038D02*
X154696741Y-96122419D01*
X161006265Y-109074800D02*
X161149122Y-109122419D01*
X161149122Y-109122419D02*
X161387217Y-109122419D01*
X161387217Y-109122419D02*
X161482455Y-109074800D01*
X161482455Y-109074800D02*
X161530074Y-109027180D01*
X161530074Y-109027180D02*
X161577693Y-108931942D01*
X161577693Y-108931942D02*
X161577693Y-108836704D01*
X161577693Y-108836704D02*
X161530074Y-108741466D01*
X161530074Y-108741466D02*
X161482455Y-108693847D01*
X161482455Y-108693847D02*
X161387217Y-108646228D01*
X161387217Y-108646228D02*
X161196741Y-108598609D01*
X161196741Y-108598609D02*
X161101503Y-108550990D01*
X161101503Y-108550990D02*
X161053884Y-108503371D01*
X161053884Y-108503371D02*
X161006265Y-108408133D01*
X161006265Y-108408133D02*
X161006265Y-108312895D01*
X161006265Y-108312895D02*
X161053884Y-108217657D01*
X161053884Y-108217657D02*
X161101503Y-108170038D01*
X161101503Y-108170038D02*
X161196741Y-108122419D01*
X161196741Y-108122419D02*
X161434836Y-108122419D01*
X161434836Y-108122419D02*
X161577693Y-108170038D01*
X162006265Y-109122419D02*
X162006265Y-108122419D01*
X163006264Y-108170038D02*
X162911026Y-108122419D01*
X162911026Y-108122419D02*
X162768169Y-108122419D01*
X162768169Y-108122419D02*
X162625312Y-108170038D01*
X162625312Y-108170038D02*
X162530074Y-108265276D01*
X162530074Y-108265276D02*
X162482455Y-108360514D01*
X162482455Y-108360514D02*
X162434836Y-108550990D01*
X162434836Y-108550990D02*
X162434836Y-108693847D01*
X162434836Y-108693847D02*
X162482455Y-108884323D01*
X162482455Y-108884323D02*
X162530074Y-108979561D01*
X162530074Y-108979561D02*
X162625312Y-109074800D01*
X162625312Y-109074800D02*
X162768169Y-109122419D01*
X162768169Y-109122419D02*
X162863407Y-109122419D01*
X162863407Y-109122419D02*
X163006264Y-109074800D01*
X163006264Y-109074800D02*
X163053883Y-109027180D01*
X163053883Y-109027180D02*
X163053883Y-108693847D01*
X163053883Y-108693847D02*
X162863407Y-108693847D01*
X177577693Y-107920038D02*
X177482455Y-107872419D01*
X177482455Y-107872419D02*
X177339598Y-107872419D01*
X177339598Y-107872419D02*
X177196741Y-107920038D01*
X177196741Y-107920038D02*
X177101503Y-108015276D01*
X177101503Y-108015276D02*
X177053884Y-108110514D01*
X177053884Y-108110514D02*
X177006265Y-108300990D01*
X177006265Y-108300990D02*
X177006265Y-108443847D01*
X177006265Y-108443847D02*
X177053884Y-108634323D01*
X177053884Y-108634323D02*
X177101503Y-108729561D01*
X177101503Y-108729561D02*
X177196741Y-108824800D01*
X177196741Y-108824800D02*
X177339598Y-108872419D01*
X177339598Y-108872419D02*
X177434836Y-108872419D01*
X177434836Y-108872419D02*
X177577693Y-108824800D01*
X177577693Y-108824800D02*
X177625312Y-108777180D01*
X177625312Y-108777180D02*
X177625312Y-108443847D01*
X177625312Y-108443847D02*
X177434836Y-108443847D01*
X178053884Y-108872419D02*
X178053884Y-107872419D01*
X178053884Y-107872419D02*
X178625312Y-108872419D01*
X178625312Y-108872419D02*
X178625312Y-107872419D01*
X179101503Y-108872419D02*
X179101503Y-107872419D01*
X179101503Y-107872419D02*
X179339598Y-107872419D01*
X179339598Y-107872419D02*
X179482455Y-107920038D01*
X179482455Y-107920038D02*
X179577693Y-108015276D01*
X179577693Y-108015276D02*
X179625312Y-108110514D01*
X179625312Y-108110514D02*
X179672931Y-108300990D01*
X179672931Y-108300990D02*
X179672931Y-108443847D01*
X179672931Y-108443847D02*
X179625312Y-108634323D01*
X179625312Y-108634323D02*
X179577693Y-108729561D01*
X179577693Y-108729561D02*
X179482455Y-108824800D01*
X179482455Y-108824800D02*
X179339598Y-108872419D01*
X179339598Y-108872419D02*
X179101503Y-108872419D01*
X116553884Y-108872419D02*
X116553884Y-107872419D01*
X117220550Y-107872419D02*
X117411026Y-107872419D01*
X117411026Y-107872419D02*
X117506264Y-107920038D01*
X117506264Y-107920038D02*
X117601502Y-108015276D01*
X117601502Y-108015276D02*
X117649121Y-108205752D01*
X117649121Y-108205752D02*
X117649121Y-108539085D01*
X117649121Y-108539085D02*
X117601502Y-108729561D01*
X117601502Y-108729561D02*
X117506264Y-108824800D01*
X117506264Y-108824800D02*
X117411026Y-108872419D01*
X117411026Y-108872419D02*
X117220550Y-108872419D01*
X117220550Y-108872419D02*
X117125312Y-108824800D01*
X117125312Y-108824800D02*
X117030074Y-108729561D01*
X117030074Y-108729561D02*
X116982455Y-108539085D01*
X116982455Y-108539085D02*
X116982455Y-108205752D01*
X116982455Y-108205752D02*
X117030074Y-108015276D01*
X117030074Y-108015276D02*
X117125312Y-107920038D01*
X117125312Y-107920038D02*
X117220550Y-107872419D01*
X118268169Y-107872419D02*
X118363407Y-107872419D01*
X118363407Y-107872419D02*
X118458645Y-107920038D01*
X118458645Y-107920038D02*
X118506264Y-107967657D01*
X118506264Y-107967657D02*
X118553883Y-108062895D01*
X118553883Y-108062895D02*
X118601502Y-108253371D01*
X118601502Y-108253371D02*
X118601502Y-108491466D01*
X118601502Y-108491466D02*
X118553883Y-108681942D01*
X118553883Y-108681942D02*
X118506264Y-108777180D01*
X118506264Y-108777180D02*
X118458645Y-108824800D01*
X118458645Y-108824800D02*
X118363407Y-108872419D01*
X118363407Y-108872419D02*
X118268169Y-108872419D01*
X118268169Y-108872419D02*
X118172931Y-108824800D01*
X118172931Y-108824800D02*
X118125312Y-108777180D01*
X118125312Y-108777180D02*
X118077693Y-108681942D01*
X118077693Y-108681942D02*
X118030074Y-108491466D01*
X118030074Y-108491466D02*
X118030074Y-108253371D01*
X118030074Y-108253371D02*
X118077693Y-108062895D01*
X118077693Y-108062895D02*
X118125312Y-107967657D01*
X118125312Y-107967657D02*
X118172931Y-107920038D01*
X118172931Y-107920038D02*
X118268169Y-107872419D01*
X119172931Y-108300990D02*
X119077693Y-108253371D01*
X119077693Y-108253371D02*
X119030074Y-108205752D01*
X119030074Y-108205752D02*
X118982455Y-108110514D01*
X118982455Y-108110514D02*
X118982455Y-108062895D01*
X118982455Y-108062895D02*
X119030074Y-107967657D01*
X119030074Y-107967657D02*
X119077693Y-107920038D01*
X119077693Y-107920038D02*
X119172931Y-107872419D01*
X119172931Y-107872419D02*
X119363407Y-107872419D01*
X119363407Y-107872419D02*
X119458645Y-107920038D01*
X119458645Y-107920038D02*
X119506264Y-107967657D01*
X119506264Y-107967657D02*
X119553883Y-108062895D01*
X119553883Y-108062895D02*
X119553883Y-108110514D01*
X119553883Y-108110514D02*
X119506264Y-108205752D01*
X119506264Y-108205752D02*
X119458645Y-108253371D01*
X119458645Y-108253371D02*
X119363407Y-108300990D01*
X119363407Y-108300990D02*
X119172931Y-108300990D01*
X119172931Y-108300990D02*
X119077693Y-108348609D01*
X119077693Y-108348609D02*
X119030074Y-108396228D01*
X119030074Y-108396228D02*
X118982455Y-108491466D01*
X118982455Y-108491466D02*
X118982455Y-108681942D01*
X118982455Y-108681942D02*
X119030074Y-108777180D01*
X119030074Y-108777180D02*
X119077693Y-108824800D01*
X119077693Y-108824800D02*
X119172931Y-108872419D01*
X119172931Y-108872419D02*
X119363407Y-108872419D01*
X119363407Y-108872419D02*
X119458645Y-108824800D01*
X119458645Y-108824800D02*
X119506264Y-108777180D01*
X119506264Y-108777180D02*
X119553883Y-108681942D01*
X119553883Y-108681942D02*
X119553883Y-108491466D01*
X119553883Y-108491466D02*
X119506264Y-108396228D01*
X119506264Y-108396228D02*
X119458645Y-108348609D01*
X119458645Y-108348609D02*
X119363407Y-108300990D01*
X133077693Y-107920038D02*
X132982455Y-107872419D01*
X132982455Y-107872419D02*
X132839598Y-107872419D01*
X132839598Y-107872419D02*
X132696741Y-107920038D01*
X132696741Y-107920038D02*
X132601503Y-108015276D01*
X132601503Y-108015276D02*
X132553884Y-108110514D01*
X132553884Y-108110514D02*
X132506265Y-108300990D01*
X132506265Y-108300990D02*
X132506265Y-108443847D01*
X132506265Y-108443847D02*
X132553884Y-108634323D01*
X132553884Y-108634323D02*
X132601503Y-108729561D01*
X132601503Y-108729561D02*
X132696741Y-108824800D01*
X132696741Y-108824800D02*
X132839598Y-108872419D01*
X132839598Y-108872419D02*
X132934836Y-108872419D01*
X132934836Y-108872419D02*
X133077693Y-108824800D01*
X133077693Y-108824800D02*
X133125312Y-108777180D01*
X133125312Y-108777180D02*
X133125312Y-108443847D01*
X133125312Y-108443847D02*
X132934836Y-108443847D01*
X133553884Y-108872419D02*
X133553884Y-107872419D01*
X133553884Y-107872419D02*
X134125312Y-108872419D01*
X134125312Y-108872419D02*
X134125312Y-107872419D01*
X134601503Y-108872419D02*
X134601503Y-107872419D01*
X134601503Y-107872419D02*
X134839598Y-107872419D01*
X134839598Y-107872419D02*
X134982455Y-107920038D01*
X134982455Y-107920038D02*
X135077693Y-108015276D01*
X135077693Y-108015276D02*
X135125312Y-108110514D01*
X135125312Y-108110514D02*
X135172931Y-108300990D01*
X135172931Y-108300990D02*
X135172931Y-108443847D01*
X135172931Y-108443847D02*
X135125312Y-108634323D01*
X135125312Y-108634323D02*
X135077693Y-108729561D01*
X135077693Y-108729561D02*
X134982455Y-108824800D01*
X134982455Y-108824800D02*
X134839598Y-108872419D01*
X134839598Y-108872419D02*
X134601503Y-108872419D01*
X144577693Y-107920038D02*
X144482455Y-107872419D01*
X144482455Y-107872419D02*
X144339598Y-107872419D01*
X144339598Y-107872419D02*
X144196741Y-107920038D01*
X144196741Y-107920038D02*
X144101503Y-108015276D01*
X144101503Y-108015276D02*
X144053884Y-108110514D01*
X144053884Y-108110514D02*
X144006265Y-108300990D01*
X144006265Y-108300990D02*
X144006265Y-108443847D01*
X144006265Y-108443847D02*
X144053884Y-108634323D01*
X144053884Y-108634323D02*
X144101503Y-108729561D01*
X144101503Y-108729561D02*
X144196741Y-108824800D01*
X144196741Y-108824800D02*
X144339598Y-108872419D01*
X144339598Y-108872419D02*
X144434836Y-108872419D01*
X144434836Y-108872419D02*
X144577693Y-108824800D01*
X144577693Y-108824800D02*
X144625312Y-108777180D01*
X144625312Y-108777180D02*
X144625312Y-108443847D01*
X144625312Y-108443847D02*
X144434836Y-108443847D01*
X145053884Y-108872419D02*
X145053884Y-107872419D01*
X145053884Y-107872419D02*
X145625312Y-108872419D01*
X145625312Y-108872419D02*
X145625312Y-107872419D01*
X146101503Y-108872419D02*
X146101503Y-107872419D01*
X146101503Y-107872419D02*
X146339598Y-107872419D01*
X146339598Y-107872419D02*
X146482455Y-107920038D01*
X146482455Y-107920038D02*
X146577693Y-108015276D01*
X146577693Y-108015276D02*
X146625312Y-108110514D01*
X146625312Y-108110514D02*
X146672931Y-108300990D01*
X146672931Y-108300990D02*
X146672931Y-108443847D01*
X146672931Y-108443847D02*
X146625312Y-108634323D01*
X146625312Y-108634323D02*
X146577693Y-108729561D01*
X146577693Y-108729561D02*
X146482455Y-108824800D01*
X146482455Y-108824800D02*
X146339598Y-108872419D01*
X146339598Y-108872419D02*
X146101503Y-108872419D01*
X127256265Y-108824800D02*
X127399122Y-108872419D01*
X127399122Y-108872419D02*
X127637217Y-108872419D01*
X127637217Y-108872419D02*
X127732455Y-108824800D01*
X127732455Y-108824800D02*
X127780074Y-108777180D01*
X127780074Y-108777180D02*
X127827693Y-108681942D01*
X127827693Y-108681942D02*
X127827693Y-108586704D01*
X127827693Y-108586704D02*
X127780074Y-108491466D01*
X127780074Y-108491466D02*
X127732455Y-108443847D01*
X127732455Y-108443847D02*
X127637217Y-108396228D01*
X127637217Y-108396228D02*
X127446741Y-108348609D01*
X127446741Y-108348609D02*
X127351503Y-108300990D01*
X127351503Y-108300990D02*
X127303884Y-108253371D01*
X127303884Y-108253371D02*
X127256265Y-108158133D01*
X127256265Y-108158133D02*
X127256265Y-108062895D01*
X127256265Y-108062895D02*
X127303884Y-107967657D01*
X127303884Y-107967657D02*
X127351503Y-107920038D01*
X127351503Y-107920038D02*
X127446741Y-107872419D01*
X127446741Y-107872419D02*
X127684836Y-107872419D01*
X127684836Y-107872419D02*
X127827693Y-107920038D01*
X128256265Y-108872419D02*
X128256265Y-107872419D01*
X129256264Y-107920038D02*
X129161026Y-107872419D01*
X129161026Y-107872419D02*
X129018169Y-107872419D01*
X129018169Y-107872419D02*
X128875312Y-107920038D01*
X128875312Y-107920038D02*
X128780074Y-108015276D01*
X128780074Y-108015276D02*
X128732455Y-108110514D01*
X128732455Y-108110514D02*
X128684836Y-108300990D01*
X128684836Y-108300990D02*
X128684836Y-108443847D01*
X128684836Y-108443847D02*
X128732455Y-108634323D01*
X128732455Y-108634323D02*
X128780074Y-108729561D01*
X128780074Y-108729561D02*
X128875312Y-108824800D01*
X128875312Y-108824800D02*
X129018169Y-108872419D01*
X129018169Y-108872419D02*
X129113407Y-108872419D01*
X129113407Y-108872419D02*
X129256264Y-108824800D01*
X129256264Y-108824800D02*
X129303883Y-108777180D01*
X129303883Y-108777180D02*
X129303883Y-108443847D01*
X129303883Y-108443847D02*
X129113407Y-108443847D01*
X220074800Y-74743734D02*
X220122419Y-74600877D01*
X220122419Y-74600877D02*
X220122419Y-74362782D01*
X220122419Y-74362782D02*
X220074800Y-74267544D01*
X220074800Y-74267544D02*
X220027180Y-74219925D01*
X220027180Y-74219925D02*
X219931942Y-74172306D01*
X219931942Y-74172306D02*
X219836704Y-74172306D01*
X219836704Y-74172306D02*
X219741466Y-74219925D01*
X219741466Y-74219925D02*
X219693847Y-74267544D01*
X219693847Y-74267544D02*
X219646228Y-74362782D01*
X219646228Y-74362782D02*
X219598609Y-74553258D01*
X219598609Y-74553258D02*
X219550990Y-74648496D01*
X219550990Y-74648496D02*
X219503371Y-74696115D01*
X219503371Y-74696115D02*
X219408133Y-74743734D01*
X219408133Y-74743734D02*
X219312895Y-74743734D01*
X219312895Y-74743734D02*
X219217657Y-74696115D01*
X219217657Y-74696115D02*
X219170038Y-74648496D01*
X219170038Y-74648496D02*
X219122419Y-74553258D01*
X219122419Y-74553258D02*
X219122419Y-74315163D01*
X219122419Y-74315163D02*
X219170038Y-74172306D01*
X220027180Y-73172306D02*
X220074800Y-73219925D01*
X220074800Y-73219925D02*
X220122419Y-73362782D01*
X220122419Y-73362782D02*
X220122419Y-73458020D01*
X220122419Y-73458020D02*
X220074800Y-73600877D01*
X220074800Y-73600877D02*
X219979561Y-73696115D01*
X219979561Y-73696115D02*
X219884323Y-73743734D01*
X219884323Y-73743734D02*
X219693847Y-73791353D01*
X219693847Y-73791353D02*
X219550990Y-73791353D01*
X219550990Y-73791353D02*
X219360514Y-73743734D01*
X219360514Y-73743734D02*
X219265276Y-73696115D01*
X219265276Y-73696115D02*
X219170038Y-73600877D01*
X219170038Y-73600877D02*
X219122419Y-73458020D01*
X219122419Y-73458020D02*
X219122419Y-73362782D01*
X219122419Y-73362782D02*
X219170038Y-73219925D01*
X219170038Y-73219925D02*
X219217657Y-73172306D01*
X220122419Y-72267544D02*
X220122419Y-72743734D01*
X220122419Y-72743734D02*
X219122419Y-72743734D01*
X186303884Y-69872419D02*
X186303884Y-68872419D01*
X186303884Y-68872419D02*
X186684836Y-68872419D01*
X186684836Y-68872419D02*
X186780074Y-68920038D01*
X186780074Y-68920038D02*
X186827693Y-68967657D01*
X186827693Y-68967657D02*
X186875312Y-69062895D01*
X186875312Y-69062895D02*
X186875312Y-69205752D01*
X186875312Y-69205752D02*
X186827693Y-69300990D01*
X186827693Y-69300990D02*
X186780074Y-69348609D01*
X186780074Y-69348609D02*
X186684836Y-69396228D01*
X186684836Y-69396228D02*
X186303884Y-69396228D01*
X187875312Y-69872419D02*
X187541979Y-69396228D01*
X187303884Y-69872419D02*
X187303884Y-68872419D01*
X187303884Y-68872419D02*
X187684836Y-68872419D01*
X187684836Y-68872419D02*
X187780074Y-68920038D01*
X187780074Y-68920038D02*
X187827693Y-68967657D01*
X187827693Y-68967657D02*
X187875312Y-69062895D01*
X187875312Y-69062895D02*
X187875312Y-69205752D01*
X187875312Y-69205752D02*
X187827693Y-69300990D01*
X187827693Y-69300990D02*
X187780074Y-69348609D01*
X187780074Y-69348609D02*
X187684836Y-69396228D01*
X187684836Y-69396228D02*
X187303884Y-69396228D01*
X188827693Y-68920038D02*
X188732455Y-68872419D01*
X188732455Y-68872419D02*
X188589598Y-68872419D01*
X188589598Y-68872419D02*
X188446741Y-68920038D01*
X188446741Y-68920038D02*
X188351503Y-69015276D01*
X188351503Y-69015276D02*
X188303884Y-69110514D01*
X188303884Y-69110514D02*
X188256265Y-69300990D01*
X188256265Y-69300990D02*
X188256265Y-69443847D01*
X188256265Y-69443847D02*
X188303884Y-69634323D01*
X188303884Y-69634323D02*
X188351503Y-69729561D01*
X188351503Y-69729561D02*
X188446741Y-69824800D01*
X188446741Y-69824800D02*
X188589598Y-69872419D01*
X188589598Y-69872419D02*
X188684836Y-69872419D01*
X188684836Y-69872419D02*
X188827693Y-69824800D01*
X188827693Y-69824800D02*
X188875312Y-69777180D01*
X188875312Y-69777180D02*
X188875312Y-69443847D01*
X188875312Y-69443847D02*
X188684836Y-69443847D01*
X189303884Y-69872419D02*
X189303884Y-68872419D01*
X189303884Y-68872419D02*
X189637217Y-69586704D01*
X189637217Y-69586704D02*
X189970550Y-68872419D01*
X189970550Y-68872419D02*
X189970550Y-69872419D01*
X182506265Y-108824800D02*
X182649122Y-108872419D01*
X182649122Y-108872419D02*
X182887217Y-108872419D01*
X182887217Y-108872419D02*
X182982455Y-108824800D01*
X182982455Y-108824800D02*
X183030074Y-108777180D01*
X183030074Y-108777180D02*
X183077693Y-108681942D01*
X183077693Y-108681942D02*
X183077693Y-108586704D01*
X183077693Y-108586704D02*
X183030074Y-108491466D01*
X183030074Y-108491466D02*
X182982455Y-108443847D01*
X182982455Y-108443847D02*
X182887217Y-108396228D01*
X182887217Y-108396228D02*
X182696741Y-108348609D01*
X182696741Y-108348609D02*
X182601503Y-108300990D01*
X182601503Y-108300990D02*
X182553884Y-108253371D01*
X182553884Y-108253371D02*
X182506265Y-108158133D01*
X182506265Y-108158133D02*
X182506265Y-108062895D01*
X182506265Y-108062895D02*
X182553884Y-107967657D01*
X182553884Y-107967657D02*
X182601503Y-107920038D01*
X182601503Y-107920038D02*
X182696741Y-107872419D01*
X182696741Y-107872419D02*
X182934836Y-107872419D01*
X182934836Y-107872419D02*
X183077693Y-107920038D01*
X183506265Y-108872419D02*
X183506265Y-107872419D01*
X184506264Y-107920038D02*
X184411026Y-107872419D01*
X184411026Y-107872419D02*
X184268169Y-107872419D01*
X184268169Y-107872419D02*
X184125312Y-107920038D01*
X184125312Y-107920038D02*
X184030074Y-108015276D01*
X184030074Y-108015276D02*
X183982455Y-108110514D01*
X183982455Y-108110514D02*
X183934836Y-108300990D01*
X183934836Y-108300990D02*
X183934836Y-108443847D01*
X183934836Y-108443847D02*
X183982455Y-108634323D01*
X183982455Y-108634323D02*
X184030074Y-108729561D01*
X184030074Y-108729561D02*
X184125312Y-108824800D01*
X184125312Y-108824800D02*
X184268169Y-108872419D01*
X184268169Y-108872419D02*
X184363407Y-108872419D01*
X184363407Y-108872419D02*
X184506264Y-108824800D01*
X184506264Y-108824800D02*
X184553883Y-108777180D01*
X184553883Y-108777180D02*
X184553883Y-108443847D01*
X184553883Y-108443847D02*
X184363407Y-108443847D01*
X178465015Y-97074800D02*
X178607872Y-97122419D01*
X178607872Y-97122419D02*
X178845967Y-97122419D01*
X178845967Y-97122419D02*
X178941205Y-97074800D01*
X178941205Y-97074800D02*
X178988824Y-97027180D01*
X178988824Y-97027180D02*
X179036443Y-96931942D01*
X179036443Y-96931942D02*
X179036443Y-96836704D01*
X179036443Y-96836704D02*
X178988824Y-96741466D01*
X178988824Y-96741466D02*
X178941205Y-96693847D01*
X178941205Y-96693847D02*
X178845967Y-96646228D01*
X178845967Y-96646228D02*
X178655491Y-96598609D01*
X178655491Y-96598609D02*
X178560253Y-96550990D01*
X178560253Y-96550990D02*
X178512634Y-96503371D01*
X178512634Y-96503371D02*
X178465015Y-96408133D01*
X178465015Y-96408133D02*
X178465015Y-96312895D01*
X178465015Y-96312895D02*
X178512634Y-96217657D01*
X178512634Y-96217657D02*
X178560253Y-96170038D01*
X178560253Y-96170038D02*
X178655491Y-96122419D01*
X178655491Y-96122419D02*
X178893586Y-96122419D01*
X178893586Y-96122419D02*
X179036443Y-96170038D01*
X179655491Y-96122419D02*
X179845967Y-96122419D01*
X179845967Y-96122419D02*
X179941205Y-96170038D01*
X179941205Y-96170038D02*
X180036443Y-96265276D01*
X180036443Y-96265276D02*
X180084062Y-96455752D01*
X180084062Y-96455752D02*
X180084062Y-96789085D01*
X180084062Y-96789085D02*
X180036443Y-96979561D01*
X180036443Y-96979561D02*
X179941205Y-97074800D01*
X179941205Y-97074800D02*
X179845967Y-97122419D01*
X179845967Y-97122419D02*
X179655491Y-97122419D01*
X179655491Y-97122419D02*
X179560253Y-97074800D01*
X179560253Y-97074800D02*
X179465015Y-96979561D01*
X179465015Y-96979561D02*
X179417396Y-96789085D01*
X179417396Y-96789085D02*
X179417396Y-96455752D01*
X179417396Y-96455752D02*
X179465015Y-96265276D01*
X179465015Y-96265276D02*
X179560253Y-96170038D01*
X179560253Y-96170038D02*
X179655491Y-96122419D01*
X180512634Y-97122419D02*
X180512634Y-96122419D01*
X181465014Y-97122419D02*
X180988824Y-97122419D01*
X180988824Y-97122419D02*
X180988824Y-96122419D01*
X198803884Y-108872419D02*
X198803884Y-107872419D01*
X198803884Y-107872419D02*
X199041979Y-107872419D01*
X199041979Y-107872419D02*
X199184836Y-107920038D01*
X199184836Y-107920038D02*
X199280074Y-108015276D01*
X199280074Y-108015276D02*
X199327693Y-108110514D01*
X199327693Y-108110514D02*
X199375312Y-108300990D01*
X199375312Y-108300990D02*
X199375312Y-108443847D01*
X199375312Y-108443847D02*
X199327693Y-108634323D01*
X199327693Y-108634323D02*
X199280074Y-108729561D01*
X199280074Y-108729561D02*
X199184836Y-108824800D01*
X199184836Y-108824800D02*
X199041979Y-108872419D01*
X199041979Y-108872419D02*
X198803884Y-108872419D01*
X199803884Y-108872419D02*
X199803884Y-107872419D01*
X200851502Y-108872419D02*
X200518169Y-108396228D01*
X200280074Y-108872419D02*
X200280074Y-107872419D01*
X200280074Y-107872419D02*
X200661026Y-107872419D01*
X200661026Y-107872419D02*
X200756264Y-107920038D01*
X200756264Y-107920038D02*
X200803883Y-107967657D01*
X200803883Y-107967657D02*
X200851502Y-108062895D01*
X200851502Y-108062895D02*
X200851502Y-108205752D01*
X200851502Y-108205752D02*
X200803883Y-108300990D01*
X200803883Y-108300990D02*
X200756264Y-108348609D01*
X200756264Y-108348609D02*
X200661026Y-108396228D01*
X200661026Y-108396228D02*
X200280074Y-108396228D01*
X111303884Y-108872419D02*
X111303884Y-107872419D01*
X111970550Y-107872419D02*
X112161026Y-107872419D01*
X112161026Y-107872419D02*
X112256264Y-107920038D01*
X112256264Y-107920038D02*
X112351502Y-108015276D01*
X112351502Y-108015276D02*
X112399121Y-108205752D01*
X112399121Y-108205752D02*
X112399121Y-108539085D01*
X112399121Y-108539085D02*
X112351502Y-108729561D01*
X112351502Y-108729561D02*
X112256264Y-108824800D01*
X112256264Y-108824800D02*
X112161026Y-108872419D01*
X112161026Y-108872419D02*
X111970550Y-108872419D01*
X111970550Y-108872419D02*
X111875312Y-108824800D01*
X111875312Y-108824800D02*
X111780074Y-108729561D01*
X111780074Y-108729561D02*
X111732455Y-108539085D01*
X111732455Y-108539085D02*
X111732455Y-108205752D01*
X111732455Y-108205752D02*
X111780074Y-108015276D01*
X111780074Y-108015276D02*
X111875312Y-107920038D01*
X111875312Y-107920038D02*
X111970550Y-107872419D01*
X113018169Y-107872419D02*
X113113407Y-107872419D01*
X113113407Y-107872419D02*
X113208645Y-107920038D01*
X113208645Y-107920038D02*
X113256264Y-107967657D01*
X113256264Y-107967657D02*
X113303883Y-108062895D01*
X113303883Y-108062895D02*
X113351502Y-108253371D01*
X113351502Y-108253371D02*
X113351502Y-108491466D01*
X113351502Y-108491466D02*
X113303883Y-108681942D01*
X113303883Y-108681942D02*
X113256264Y-108777180D01*
X113256264Y-108777180D02*
X113208645Y-108824800D01*
X113208645Y-108824800D02*
X113113407Y-108872419D01*
X113113407Y-108872419D02*
X113018169Y-108872419D01*
X113018169Y-108872419D02*
X112922931Y-108824800D01*
X112922931Y-108824800D02*
X112875312Y-108777180D01*
X112875312Y-108777180D02*
X112827693Y-108681942D01*
X112827693Y-108681942D02*
X112780074Y-108491466D01*
X112780074Y-108491466D02*
X112780074Y-108253371D01*
X112780074Y-108253371D02*
X112827693Y-108062895D01*
X112827693Y-108062895D02*
X112875312Y-107967657D01*
X112875312Y-107967657D02*
X112922931Y-107920038D01*
X112922931Y-107920038D02*
X113018169Y-107872419D01*
X113827693Y-108872419D02*
X114018169Y-108872419D01*
X114018169Y-108872419D02*
X114113407Y-108824800D01*
X114113407Y-108824800D02*
X114161026Y-108777180D01*
X114161026Y-108777180D02*
X114256264Y-108634323D01*
X114256264Y-108634323D02*
X114303883Y-108443847D01*
X114303883Y-108443847D02*
X114303883Y-108062895D01*
X114303883Y-108062895D02*
X114256264Y-107967657D01*
X114256264Y-107967657D02*
X114208645Y-107920038D01*
X114208645Y-107920038D02*
X114113407Y-107872419D01*
X114113407Y-107872419D02*
X113922931Y-107872419D01*
X113922931Y-107872419D02*
X113827693Y-107920038D01*
X113827693Y-107920038D02*
X113780074Y-107967657D01*
X113780074Y-107967657D02*
X113732455Y-108062895D01*
X113732455Y-108062895D02*
X113732455Y-108300990D01*
X113732455Y-108300990D02*
X113780074Y-108396228D01*
X113780074Y-108396228D02*
X113827693Y-108443847D01*
X113827693Y-108443847D02*
X113922931Y-108491466D01*
X113922931Y-108491466D02*
X114113407Y-108491466D01*
X114113407Y-108491466D02*
X114208645Y-108443847D01*
X114208645Y-108443847D02*
X114256264Y-108396228D01*
X114256264Y-108396228D02*
X114303883Y-108300990D01*
X115902395Y-86611377D02*
X114902395Y-86611377D01*
X114902395Y-86611377D02*
X114902395Y-86230425D01*
X114902395Y-86230425D02*
X114950014Y-86135187D01*
X114950014Y-86135187D02*
X114997633Y-86087568D01*
X114997633Y-86087568D02*
X115092871Y-86039949D01*
X115092871Y-86039949D02*
X115235728Y-86039949D01*
X115235728Y-86039949D02*
X115330966Y-86087568D01*
X115330966Y-86087568D02*
X115378585Y-86135187D01*
X115378585Y-86135187D02*
X115426204Y-86230425D01*
X115426204Y-86230425D02*
X115426204Y-86611377D01*
X114902395Y-85420901D02*
X114902395Y-85230425D01*
X114902395Y-85230425D02*
X114950014Y-85135187D01*
X114950014Y-85135187D02*
X115045252Y-85039949D01*
X115045252Y-85039949D02*
X115235728Y-84992330D01*
X115235728Y-84992330D02*
X115569061Y-84992330D01*
X115569061Y-84992330D02*
X115759537Y-85039949D01*
X115759537Y-85039949D02*
X115854776Y-85135187D01*
X115854776Y-85135187D02*
X115902395Y-85230425D01*
X115902395Y-85230425D02*
X115902395Y-85420901D01*
X115902395Y-85420901D02*
X115854776Y-85516139D01*
X115854776Y-85516139D02*
X115759537Y-85611377D01*
X115759537Y-85611377D02*
X115569061Y-85658996D01*
X115569061Y-85658996D02*
X115235728Y-85658996D01*
X115235728Y-85658996D02*
X115045252Y-85611377D01*
X115045252Y-85611377D02*
X114950014Y-85516139D01*
X114950014Y-85516139D02*
X114902395Y-85420901D01*
X114902395Y-84658996D02*
X115902395Y-84420901D01*
X115902395Y-84420901D02*
X115188109Y-84230425D01*
X115188109Y-84230425D02*
X115902395Y-84039949D01*
X115902395Y-84039949D02*
X114902395Y-83801854D01*
X115378585Y-83420901D02*
X115378585Y-83087568D01*
X115902395Y-82944711D02*
X115902395Y-83420901D01*
X115902395Y-83420901D02*
X114902395Y-83420901D01*
X114902395Y-83420901D02*
X114902395Y-82944711D01*
X115902395Y-81944711D02*
X115426204Y-82278044D01*
X115902395Y-82516139D02*
X114902395Y-82516139D01*
X114902395Y-82516139D02*
X114902395Y-82135187D01*
X114902395Y-82135187D02*
X114950014Y-82039949D01*
X114950014Y-82039949D02*
X114997633Y-81992330D01*
X114997633Y-81992330D02*
X115092871Y-81944711D01*
X115092871Y-81944711D02*
X115235728Y-81944711D01*
X115235728Y-81944711D02*
X115330966Y-81992330D01*
X115330966Y-81992330D02*
X115378585Y-82039949D01*
X115378585Y-82039949D02*
X115426204Y-82135187D01*
X115426204Y-82135187D02*
X115426204Y-82516139D01*
X203006265Y-108824800D02*
X203149122Y-108872419D01*
X203149122Y-108872419D02*
X203387217Y-108872419D01*
X203387217Y-108872419D02*
X203482455Y-108824800D01*
X203482455Y-108824800D02*
X203530074Y-108777180D01*
X203530074Y-108777180D02*
X203577693Y-108681942D01*
X203577693Y-108681942D02*
X203577693Y-108586704D01*
X203577693Y-108586704D02*
X203530074Y-108491466D01*
X203530074Y-108491466D02*
X203482455Y-108443847D01*
X203482455Y-108443847D02*
X203387217Y-108396228D01*
X203387217Y-108396228D02*
X203196741Y-108348609D01*
X203196741Y-108348609D02*
X203101503Y-108300990D01*
X203101503Y-108300990D02*
X203053884Y-108253371D01*
X203053884Y-108253371D02*
X203006265Y-108158133D01*
X203006265Y-108158133D02*
X203006265Y-108062895D01*
X203006265Y-108062895D02*
X203053884Y-107967657D01*
X203053884Y-107967657D02*
X203101503Y-107920038D01*
X203101503Y-107920038D02*
X203196741Y-107872419D01*
X203196741Y-107872419D02*
X203434836Y-107872419D01*
X203434836Y-107872419D02*
X203577693Y-107920038D01*
X204006265Y-108872419D02*
X204006265Y-107872419D01*
X204006265Y-107872419D02*
X204387217Y-107872419D01*
X204387217Y-107872419D02*
X204482455Y-107920038D01*
X204482455Y-107920038D02*
X204530074Y-107967657D01*
X204530074Y-107967657D02*
X204577693Y-108062895D01*
X204577693Y-108062895D02*
X204577693Y-108205752D01*
X204577693Y-108205752D02*
X204530074Y-108300990D01*
X204530074Y-108300990D02*
X204482455Y-108348609D01*
X204482455Y-108348609D02*
X204387217Y-108396228D01*
X204387217Y-108396228D02*
X204006265Y-108396228D01*
X205006265Y-108348609D02*
X205339598Y-108348609D01*
X205482455Y-108872419D02*
X205006265Y-108872419D01*
X205006265Y-108872419D02*
X205006265Y-107872419D01*
X205006265Y-107872419D02*
X205482455Y-107872419D01*
X205911027Y-108348609D02*
X206244360Y-108348609D01*
X206387217Y-108872419D02*
X205911027Y-108872419D01*
X205911027Y-108872419D02*
X205911027Y-107872419D01*
X205911027Y-107872419D02*
X206387217Y-107872419D01*
X206815789Y-108872419D02*
X206815789Y-107872419D01*
X206815789Y-107872419D02*
X207053884Y-107872419D01*
X207053884Y-107872419D02*
X207196741Y-107920038D01*
X207196741Y-107920038D02*
X207291979Y-108015276D01*
X207291979Y-108015276D02*
X207339598Y-108110514D01*
X207339598Y-108110514D02*
X207387217Y-108300990D01*
X207387217Y-108300990D02*
X207387217Y-108443847D01*
X207387217Y-108443847D02*
X207339598Y-108634323D01*
X207339598Y-108634323D02*
X207291979Y-108729561D01*
X207291979Y-108729561D02*
X207196741Y-108824800D01*
X207196741Y-108824800D02*
X207053884Y-108872419D01*
X207053884Y-108872419D02*
X206815789Y-108872419D01*
X220074800Y-96243734D02*
X220122419Y-96100877D01*
X220122419Y-96100877D02*
X220122419Y-95862782D01*
X220122419Y-95862782D02*
X220074800Y-95767544D01*
X220074800Y-95767544D02*
X220027180Y-95719925D01*
X220027180Y-95719925D02*
X219931942Y-95672306D01*
X219931942Y-95672306D02*
X219836704Y-95672306D01*
X219836704Y-95672306D02*
X219741466Y-95719925D01*
X219741466Y-95719925D02*
X219693847Y-95767544D01*
X219693847Y-95767544D02*
X219646228Y-95862782D01*
X219646228Y-95862782D02*
X219598609Y-96053258D01*
X219598609Y-96053258D02*
X219550990Y-96148496D01*
X219550990Y-96148496D02*
X219503371Y-96196115D01*
X219503371Y-96196115D02*
X219408133Y-96243734D01*
X219408133Y-96243734D02*
X219312895Y-96243734D01*
X219312895Y-96243734D02*
X219217657Y-96196115D01*
X219217657Y-96196115D02*
X219170038Y-96148496D01*
X219170038Y-96148496D02*
X219122419Y-96053258D01*
X219122419Y-96053258D02*
X219122419Y-95815163D01*
X219122419Y-95815163D02*
X219170038Y-95672306D01*
X220122419Y-95243734D02*
X219122419Y-95243734D01*
X219170038Y-94243735D02*
X219122419Y-94338973D01*
X219122419Y-94338973D02*
X219122419Y-94481830D01*
X219122419Y-94481830D02*
X219170038Y-94624687D01*
X219170038Y-94624687D02*
X219265276Y-94719925D01*
X219265276Y-94719925D02*
X219360514Y-94767544D01*
X219360514Y-94767544D02*
X219550990Y-94815163D01*
X219550990Y-94815163D02*
X219693847Y-94815163D01*
X219693847Y-94815163D02*
X219884323Y-94767544D01*
X219884323Y-94767544D02*
X219979561Y-94719925D01*
X219979561Y-94719925D02*
X220074800Y-94624687D01*
X220074800Y-94624687D02*
X220122419Y-94481830D01*
X220122419Y-94481830D02*
X220122419Y-94386592D01*
X220122419Y-94386592D02*
X220074800Y-94243735D01*
X220074800Y-94243735D02*
X220027180Y-94196116D01*
X220027180Y-94196116D02*
X219693847Y-94196116D01*
X219693847Y-94196116D02*
X219693847Y-94386592D01*
X219122419Y-105469925D02*
X219122419Y-105946115D01*
X219122419Y-105946115D02*
X219598609Y-105993734D01*
X219598609Y-105993734D02*
X219550990Y-105946115D01*
X219550990Y-105946115D02*
X219503371Y-105850877D01*
X219503371Y-105850877D02*
X219503371Y-105612782D01*
X219503371Y-105612782D02*
X219550990Y-105517544D01*
X219550990Y-105517544D02*
X219598609Y-105469925D01*
X219598609Y-105469925D02*
X219693847Y-105422306D01*
X219693847Y-105422306D02*
X219931942Y-105422306D01*
X219931942Y-105422306D02*
X220027180Y-105469925D01*
X220027180Y-105469925D02*
X220074800Y-105517544D01*
X220074800Y-105517544D02*
X220122419Y-105612782D01*
X220122419Y-105612782D02*
X220122419Y-105850877D01*
X220122419Y-105850877D02*
X220074800Y-105946115D01*
X220074800Y-105946115D02*
X220027180Y-105993734D01*
X219122419Y-105136591D02*
X220122419Y-104803258D01*
X220122419Y-104803258D02*
X219122419Y-104469925D01*
X121553884Y-108872419D02*
X121553884Y-107872419D01*
X122220550Y-107872419D02*
X122411026Y-107872419D01*
X122411026Y-107872419D02*
X122506264Y-107920038D01*
X122506264Y-107920038D02*
X122601502Y-108015276D01*
X122601502Y-108015276D02*
X122649121Y-108205752D01*
X122649121Y-108205752D02*
X122649121Y-108539085D01*
X122649121Y-108539085D02*
X122601502Y-108729561D01*
X122601502Y-108729561D02*
X122506264Y-108824800D01*
X122506264Y-108824800D02*
X122411026Y-108872419D01*
X122411026Y-108872419D02*
X122220550Y-108872419D01*
X122220550Y-108872419D02*
X122125312Y-108824800D01*
X122125312Y-108824800D02*
X122030074Y-108729561D01*
X122030074Y-108729561D02*
X121982455Y-108539085D01*
X121982455Y-108539085D02*
X121982455Y-108205752D01*
X121982455Y-108205752D02*
X122030074Y-108015276D01*
X122030074Y-108015276D02*
X122125312Y-107920038D01*
X122125312Y-107920038D02*
X122220550Y-107872419D01*
X123268169Y-107872419D02*
X123363407Y-107872419D01*
X123363407Y-107872419D02*
X123458645Y-107920038D01*
X123458645Y-107920038D02*
X123506264Y-107967657D01*
X123506264Y-107967657D02*
X123553883Y-108062895D01*
X123553883Y-108062895D02*
X123601502Y-108253371D01*
X123601502Y-108253371D02*
X123601502Y-108491466D01*
X123601502Y-108491466D02*
X123553883Y-108681942D01*
X123553883Y-108681942D02*
X123506264Y-108777180D01*
X123506264Y-108777180D02*
X123458645Y-108824800D01*
X123458645Y-108824800D02*
X123363407Y-108872419D01*
X123363407Y-108872419D02*
X123268169Y-108872419D01*
X123268169Y-108872419D02*
X123172931Y-108824800D01*
X123172931Y-108824800D02*
X123125312Y-108777180D01*
X123125312Y-108777180D02*
X123077693Y-108681942D01*
X123077693Y-108681942D02*
X123030074Y-108491466D01*
X123030074Y-108491466D02*
X123030074Y-108253371D01*
X123030074Y-108253371D02*
X123077693Y-108062895D01*
X123077693Y-108062895D02*
X123125312Y-107967657D01*
X123125312Y-107967657D02*
X123172931Y-107920038D01*
X123172931Y-107920038D02*
X123268169Y-107872419D01*
X123934836Y-107872419D02*
X124601502Y-107872419D01*
X124601502Y-107872419D02*
X124172931Y-108872419D01*
X219122419Y-89541353D02*
X219122419Y-88922306D01*
X219122419Y-88922306D02*
X219503371Y-89255639D01*
X219503371Y-89255639D02*
X219503371Y-89112782D01*
X219503371Y-89112782D02*
X219550990Y-89017544D01*
X219550990Y-89017544D02*
X219598609Y-88969925D01*
X219598609Y-88969925D02*
X219693847Y-88922306D01*
X219693847Y-88922306D02*
X219931942Y-88922306D01*
X219931942Y-88922306D02*
X220027180Y-88969925D01*
X220027180Y-88969925D02*
X220074800Y-89017544D01*
X220074800Y-89017544D02*
X220122419Y-89112782D01*
X220122419Y-89112782D02*
X220122419Y-89398496D01*
X220122419Y-89398496D02*
X220074800Y-89493734D01*
X220074800Y-89493734D02*
X220027180Y-89541353D01*
X219122419Y-88636591D02*
X220122419Y-88303258D01*
X220122419Y-88303258D02*
X219122419Y-87969925D01*
X219122419Y-87731829D02*
X219122419Y-87112782D01*
X219122419Y-87112782D02*
X219503371Y-87446115D01*
X219503371Y-87446115D02*
X219503371Y-87303258D01*
X219503371Y-87303258D02*
X219550990Y-87208020D01*
X219550990Y-87208020D02*
X219598609Y-87160401D01*
X219598609Y-87160401D02*
X219693847Y-87112782D01*
X219693847Y-87112782D02*
X219931942Y-87112782D01*
X219931942Y-87112782D02*
X220027180Y-87160401D01*
X220027180Y-87160401D02*
X220074800Y-87208020D01*
X220074800Y-87208020D02*
X220122419Y-87303258D01*
X220122419Y-87303258D02*
X220122419Y-87588972D01*
X220122419Y-87588972D02*
X220074800Y-87684210D01*
X220074800Y-87684210D02*
X220027180Y-87731829D01*
X131625312Y-97122419D02*
X131291979Y-96646228D01*
X131053884Y-97122419D02*
X131053884Y-96122419D01*
X131053884Y-96122419D02*
X131434836Y-96122419D01*
X131434836Y-96122419D02*
X131530074Y-96170038D01*
X131530074Y-96170038D02*
X131577693Y-96217657D01*
X131577693Y-96217657D02*
X131625312Y-96312895D01*
X131625312Y-96312895D02*
X131625312Y-96455752D01*
X131625312Y-96455752D02*
X131577693Y-96550990D01*
X131577693Y-96550990D02*
X131530074Y-96598609D01*
X131530074Y-96598609D02*
X131434836Y-96646228D01*
X131434836Y-96646228D02*
X131053884Y-96646228D01*
X132006265Y-96836704D02*
X132482455Y-96836704D01*
X131911027Y-97122419D02*
X132244360Y-96122419D01*
X132244360Y-96122419D02*
X132577693Y-97122419D01*
X132911027Y-97122419D02*
X132911027Y-96122419D01*
X133387217Y-97122419D02*
X133387217Y-96122419D01*
X133387217Y-96122419D02*
X133958645Y-97122419D01*
X133958645Y-97122419D02*
X133958645Y-96122419D01*
X219170038Y-101172306D02*
X219122419Y-101267544D01*
X219122419Y-101267544D02*
X219122419Y-101410401D01*
X219122419Y-101410401D02*
X219170038Y-101553258D01*
X219170038Y-101553258D02*
X219265276Y-101648496D01*
X219265276Y-101648496D02*
X219360514Y-101696115D01*
X219360514Y-101696115D02*
X219550990Y-101743734D01*
X219550990Y-101743734D02*
X219693847Y-101743734D01*
X219693847Y-101743734D02*
X219884323Y-101696115D01*
X219884323Y-101696115D02*
X219979561Y-101648496D01*
X219979561Y-101648496D02*
X220074800Y-101553258D01*
X220074800Y-101553258D02*
X220122419Y-101410401D01*
X220122419Y-101410401D02*
X220122419Y-101315163D01*
X220122419Y-101315163D02*
X220074800Y-101172306D01*
X220074800Y-101172306D02*
X220027180Y-101124687D01*
X220027180Y-101124687D02*
X219693847Y-101124687D01*
X219693847Y-101124687D02*
X219693847Y-101315163D01*
X220122419Y-100696115D02*
X219122419Y-100696115D01*
X219122419Y-100696115D02*
X220122419Y-100124687D01*
X220122419Y-100124687D02*
X219122419Y-100124687D01*
X220122419Y-99648496D02*
X219122419Y-99648496D01*
X219122419Y-99648496D02*
X219122419Y-99410401D01*
X219122419Y-99410401D02*
X219170038Y-99267544D01*
X219170038Y-99267544D02*
X219265276Y-99172306D01*
X219265276Y-99172306D02*
X219360514Y-99124687D01*
X219360514Y-99124687D02*
X219550990Y-99077068D01*
X219550990Y-99077068D02*
X219693847Y-99077068D01*
X219693847Y-99077068D02*
X219884323Y-99124687D01*
X219884323Y-99124687D02*
X219979561Y-99172306D01*
X219979561Y-99172306D02*
X220074800Y-99267544D01*
X220074800Y-99267544D02*
X220122419Y-99410401D01*
X220122419Y-99410401D02*
X220122419Y-99648496D01*
X163987574Y-97122419D02*
X163511384Y-97122419D01*
X163511384Y-97122419D02*
X163511384Y-96122419D01*
X164320908Y-97122419D02*
X164320908Y-96122419D01*
X165320907Y-96170038D02*
X165225669Y-96122419D01*
X165225669Y-96122419D02*
X165082812Y-96122419D01*
X165082812Y-96122419D02*
X164939955Y-96170038D01*
X164939955Y-96170038D02*
X164844717Y-96265276D01*
X164844717Y-96265276D02*
X164797098Y-96360514D01*
X164797098Y-96360514D02*
X164749479Y-96550990D01*
X164749479Y-96550990D02*
X164749479Y-96693847D01*
X164749479Y-96693847D02*
X164797098Y-96884323D01*
X164797098Y-96884323D02*
X164844717Y-96979561D01*
X164844717Y-96979561D02*
X164939955Y-97074800D01*
X164939955Y-97074800D02*
X165082812Y-97122419D01*
X165082812Y-97122419D02*
X165178050Y-97122419D01*
X165178050Y-97122419D02*
X165320907Y-97074800D01*
X165320907Y-97074800D02*
X165368526Y-97027180D01*
X165368526Y-97027180D02*
X165368526Y-96693847D01*
X165368526Y-96693847D02*
X165178050Y-96693847D01*
X165797098Y-97122419D02*
X165797098Y-96122419D01*
X165797098Y-96598609D02*
X166368526Y-96598609D01*
X166368526Y-97122419D02*
X166368526Y-96122419D01*
X166701860Y-96122419D02*
X167273288Y-96122419D01*
X166987574Y-97122419D02*
X166987574Y-96122419D01*
D11*
X162142080Y-76416666D02*
X162189700Y-76464285D01*
X162189700Y-76464285D02*
X162237319Y-76607142D01*
X162237319Y-76607142D02*
X162237319Y-76702380D01*
X162237319Y-76702380D02*
X162189700Y-76845237D01*
X162189700Y-76845237D02*
X162094461Y-76940475D01*
X162094461Y-76940475D02*
X161999223Y-76988094D01*
X161999223Y-76988094D02*
X161808747Y-77035713D01*
X161808747Y-77035713D02*
X161665890Y-77035713D01*
X161665890Y-77035713D02*
X161475414Y-76988094D01*
X161475414Y-76988094D02*
X161380176Y-76940475D01*
X161380176Y-76940475D02*
X161284938Y-76845237D01*
X161284938Y-76845237D02*
X161237319Y-76702380D01*
X161237319Y-76702380D02*
X161237319Y-76607142D01*
X161237319Y-76607142D02*
X161284938Y-76464285D01*
X161284938Y-76464285D02*
X161332557Y-76416666D01*
X161237319Y-75559523D02*
X161237319Y-75749999D01*
X161237319Y-75749999D02*
X161284938Y-75845237D01*
X161284938Y-75845237D02*
X161332557Y-75892856D01*
X161332557Y-75892856D02*
X161475414Y-75988094D01*
X161475414Y-75988094D02*
X161665890Y-76035713D01*
X161665890Y-76035713D02*
X162046842Y-76035713D01*
X162046842Y-76035713D02*
X162142080Y-75988094D01*
X162142080Y-75988094D02*
X162189700Y-75940475D01*
X162189700Y-75940475D02*
X162237319Y-75845237D01*
X162237319Y-75845237D02*
X162237319Y-75654761D01*
X162237319Y-75654761D02*
X162189700Y-75559523D01*
X162189700Y-75559523D02*
X162142080Y-75511904D01*
X162142080Y-75511904D02*
X162046842Y-75464285D01*
X162046842Y-75464285D02*
X161808747Y-75464285D01*
X161808747Y-75464285D02*
X161713509Y-75511904D01*
X161713509Y-75511904D02*
X161665890Y-75559523D01*
X161665890Y-75559523D02*
X161618271Y-75654761D01*
X161618271Y-75654761D02*
X161618271Y-75845237D01*
X161618271Y-75845237D02*
X161665890Y-75940475D01*
X161665890Y-75940475D02*
X161713509Y-75988094D01*
X161713509Y-75988094D02*
X161808747Y-76035713D01*
X207249819Y-81333333D02*
X207964104Y-81333333D01*
X207964104Y-81333333D02*
X208106961Y-81380952D01*
X208106961Y-81380952D02*
X208202200Y-81476190D01*
X208202200Y-81476190D02*
X208249819Y-81619047D01*
X208249819Y-81619047D02*
X208249819Y-81714285D01*
X207678390Y-80714285D02*
X207630771Y-80809523D01*
X207630771Y-80809523D02*
X207583152Y-80857142D01*
X207583152Y-80857142D02*
X207487914Y-80904761D01*
X207487914Y-80904761D02*
X207440295Y-80904761D01*
X207440295Y-80904761D02*
X207345057Y-80857142D01*
X207345057Y-80857142D02*
X207297438Y-80809523D01*
X207297438Y-80809523D02*
X207249819Y-80714285D01*
X207249819Y-80714285D02*
X207249819Y-80523809D01*
X207249819Y-80523809D02*
X207297438Y-80428571D01*
X207297438Y-80428571D02*
X207345057Y-80380952D01*
X207345057Y-80380952D02*
X207440295Y-80333333D01*
X207440295Y-80333333D02*
X207487914Y-80333333D01*
X207487914Y-80333333D02*
X207583152Y-80380952D01*
X207583152Y-80380952D02*
X207630771Y-80428571D01*
X207630771Y-80428571D02*
X207678390Y-80523809D01*
X207678390Y-80523809D02*
X207678390Y-80714285D01*
X207678390Y-80714285D02*
X207726009Y-80809523D01*
X207726009Y-80809523D02*
X207773628Y-80857142D01*
X207773628Y-80857142D02*
X207868866Y-80904761D01*
X207868866Y-80904761D02*
X208059342Y-80904761D01*
X208059342Y-80904761D02*
X208154580Y-80857142D01*
X208154580Y-80857142D02*
X208202200Y-80809523D01*
X208202200Y-80809523D02*
X208249819Y-80714285D01*
X208249819Y-80714285D02*
X208249819Y-80523809D01*
X208249819Y-80523809D02*
X208202200Y-80428571D01*
X208202200Y-80428571D02*
X208154580Y-80380952D01*
X208154580Y-80380952D02*
X208059342Y-80333333D01*
X208059342Y-80333333D02*
X207868866Y-80333333D01*
X207868866Y-80333333D02*
X207773628Y-80380952D01*
X207773628Y-80380952D02*
X207726009Y-80428571D01*
X207726009Y-80428571D02*
X207678390Y-80523809D01*
X178920833Y-72634819D02*
X178587500Y-72158628D01*
X178349405Y-72634819D02*
X178349405Y-71634819D01*
X178349405Y-71634819D02*
X178730357Y-71634819D01*
X178730357Y-71634819D02*
X178825595Y-71682438D01*
X178825595Y-71682438D02*
X178873214Y-71730057D01*
X178873214Y-71730057D02*
X178920833Y-71825295D01*
X178920833Y-71825295D02*
X178920833Y-71968152D01*
X178920833Y-71968152D02*
X178873214Y-72063390D01*
X178873214Y-72063390D02*
X178825595Y-72111009D01*
X178825595Y-72111009D02*
X178730357Y-72158628D01*
X178730357Y-72158628D02*
X178349405Y-72158628D01*
X179777976Y-71634819D02*
X179587500Y-71634819D01*
X179587500Y-71634819D02*
X179492262Y-71682438D01*
X179492262Y-71682438D02*
X179444643Y-71730057D01*
X179444643Y-71730057D02*
X179349405Y-71872914D01*
X179349405Y-71872914D02*
X179301786Y-72063390D01*
X179301786Y-72063390D02*
X179301786Y-72444342D01*
X179301786Y-72444342D02*
X179349405Y-72539580D01*
X179349405Y-72539580D02*
X179397024Y-72587200D01*
X179397024Y-72587200D02*
X179492262Y-72634819D01*
X179492262Y-72634819D02*
X179682738Y-72634819D01*
X179682738Y-72634819D02*
X179777976Y-72587200D01*
X179777976Y-72587200D02*
X179825595Y-72539580D01*
X179825595Y-72539580D02*
X179873214Y-72444342D01*
X179873214Y-72444342D02*
X179873214Y-72206247D01*
X179873214Y-72206247D02*
X179825595Y-72111009D01*
X179825595Y-72111009D02*
X179777976Y-72063390D01*
X179777976Y-72063390D02*
X179682738Y-72015771D01*
X179682738Y-72015771D02*
X179492262Y-72015771D01*
X179492262Y-72015771D02*
X179397024Y-72063390D01*
X179397024Y-72063390D02*
X179349405Y-72111009D01*
X179349405Y-72111009D02*
X179301786Y-72206247D01*
X165774819Y-76254166D02*
X165298628Y-76587499D01*
X165774819Y-76825594D02*
X164774819Y-76825594D01*
X164774819Y-76825594D02*
X164774819Y-76444642D01*
X164774819Y-76444642D02*
X164822438Y-76349404D01*
X164822438Y-76349404D02*
X164870057Y-76301785D01*
X164870057Y-76301785D02*
X164965295Y-76254166D01*
X164965295Y-76254166D02*
X165108152Y-76254166D01*
X165108152Y-76254166D02*
X165203390Y-76301785D01*
X165203390Y-76301785D02*
X165251009Y-76349404D01*
X165251009Y-76349404D02*
X165298628Y-76444642D01*
X165298628Y-76444642D02*
X165298628Y-76825594D01*
X165108152Y-75397023D02*
X165774819Y-75397023D01*
X164727200Y-75635118D02*
X165441485Y-75873213D01*
X165441485Y-75873213D02*
X165441485Y-75254166D01*
X204204819Y-90754166D02*
X203728628Y-91087499D01*
X204204819Y-91325594D02*
X203204819Y-91325594D01*
X203204819Y-91325594D02*
X203204819Y-90944642D01*
X203204819Y-90944642D02*
X203252438Y-90849404D01*
X203252438Y-90849404D02*
X203300057Y-90801785D01*
X203300057Y-90801785D02*
X203395295Y-90754166D01*
X203395295Y-90754166D02*
X203538152Y-90754166D01*
X203538152Y-90754166D02*
X203633390Y-90801785D01*
X203633390Y-90801785D02*
X203681009Y-90849404D01*
X203681009Y-90849404D02*
X203728628Y-90944642D01*
X203728628Y-90944642D02*
X203728628Y-91325594D01*
X204204819Y-90277975D02*
X204204819Y-90087499D01*
X204204819Y-90087499D02*
X204157200Y-89992261D01*
X204157200Y-89992261D02*
X204109580Y-89944642D01*
X204109580Y-89944642D02*
X203966723Y-89849404D01*
X203966723Y-89849404D02*
X203776247Y-89801785D01*
X203776247Y-89801785D02*
X203395295Y-89801785D01*
X203395295Y-89801785D02*
X203300057Y-89849404D01*
X203300057Y-89849404D02*
X203252438Y-89897023D01*
X203252438Y-89897023D02*
X203204819Y-89992261D01*
X203204819Y-89992261D02*
X203204819Y-90182737D01*
X203204819Y-90182737D02*
X203252438Y-90277975D01*
X203252438Y-90277975D02*
X203300057Y-90325594D01*
X203300057Y-90325594D02*
X203395295Y-90373213D01*
X203395295Y-90373213D02*
X203633390Y-90373213D01*
X203633390Y-90373213D02*
X203728628Y-90325594D01*
X203728628Y-90325594D02*
X203776247Y-90277975D01*
X203776247Y-90277975D02*
X203823866Y-90182737D01*
X203823866Y-90182737D02*
X203823866Y-89992261D01*
X203823866Y-89992261D02*
X203776247Y-89897023D01*
X203776247Y-89897023D02*
X203728628Y-89849404D01*
X203728628Y-89849404D02*
X203633390Y-89801785D01*
X179107142Y-76359580D02*
X179059523Y-76407200D01*
X179059523Y-76407200D02*
X178916666Y-76454819D01*
X178916666Y-76454819D02*
X178821428Y-76454819D01*
X178821428Y-76454819D02*
X178678571Y-76407200D01*
X178678571Y-76407200D02*
X178583333Y-76311961D01*
X178583333Y-76311961D02*
X178535714Y-76216723D01*
X178535714Y-76216723D02*
X178488095Y-76026247D01*
X178488095Y-76026247D02*
X178488095Y-75883390D01*
X178488095Y-75883390D02*
X178535714Y-75692914D01*
X178535714Y-75692914D02*
X178583333Y-75597676D01*
X178583333Y-75597676D02*
X178678571Y-75502438D01*
X178678571Y-75502438D02*
X178821428Y-75454819D01*
X178821428Y-75454819D02*
X178916666Y-75454819D01*
X178916666Y-75454819D02*
X179059523Y-75502438D01*
X179059523Y-75502438D02*
X179107142Y-75550057D01*
X180059523Y-76454819D02*
X179488095Y-76454819D01*
X179773809Y-76454819D02*
X179773809Y-75454819D01*
X179773809Y-75454819D02*
X179678571Y-75597676D01*
X179678571Y-75597676D02*
X179583333Y-75692914D01*
X179583333Y-75692914D02*
X179488095Y-75740533D01*
X180678571Y-75454819D02*
X180773809Y-75454819D01*
X180773809Y-75454819D02*
X180869047Y-75502438D01*
X180869047Y-75502438D02*
X180916666Y-75550057D01*
X180916666Y-75550057D02*
X180964285Y-75645295D01*
X180964285Y-75645295D02*
X181011904Y-75835771D01*
X181011904Y-75835771D02*
X181011904Y-76073866D01*
X181011904Y-76073866D02*
X180964285Y-76264342D01*
X180964285Y-76264342D02*
X180916666Y-76359580D01*
X180916666Y-76359580D02*
X180869047Y-76407200D01*
X180869047Y-76407200D02*
X180773809Y-76454819D01*
X180773809Y-76454819D02*
X180678571Y-76454819D01*
X180678571Y-76454819D02*
X180583333Y-76407200D01*
X180583333Y-76407200D02*
X180535714Y-76359580D01*
X180535714Y-76359580D02*
X180488095Y-76264342D01*
X180488095Y-76264342D02*
X180440476Y-76073866D01*
X180440476Y-76073866D02*
X180440476Y-75835771D01*
X180440476Y-75835771D02*
X180488095Y-75645295D01*
X180488095Y-75645295D02*
X180535714Y-75550057D01*
X180535714Y-75550057D02*
X180583333Y-75502438D01*
X180583333Y-75502438D02*
X180678571Y-75454819D01*
X121554819Y-58916666D02*
X121078628Y-59249999D01*
X121554819Y-59488094D02*
X120554819Y-59488094D01*
X120554819Y-59488094D02*
X120554819Y-59107142D01*
X120554819Y-59107142D02*
X120602438Y-59011904D01*
X120602438Y-59011904D02*
X120650057Y-58964285D01*
X120650057Y-58964285D02*
X120745295Y-58916666D01*
X120745295Y-58916666D02*
X120888152Y-58916666D01*
X120888152Y-58916666D02*
X120983390Y-58964285D01*
X120983390Y-58964285D02*
X121031009Y-59011904D01*
X121031009Y-59011904D02*
X121078628Y-59107142D01*
X121078628Y-59107142D02*
X121078628Y-59488094D01*
X120554819Y-58583332D02*
X120554819Y-57964285D01*
X120554819Y-57964285D02*
X120935771Y-58297618D01*
X120935771Y-58297618D02*
X120935771Y-58154761D01*
X120935771Y-58154761D02*
X120983390Y-58059523D01*
X120983390Y-58059523D02*
X121031009Y-58011904D01*
X121031009Y-58011904D02*
X121126247Y-57964285D01*
X121126247Y-57964285D02*
X121364342Y-57964285D01*
X121364342Y-57964285D02*
X121459580Y-58011904D01*
X121459580Y-58011904D02*
X121507200Y-58059523D01*
X121507200Y-58059523D02*
X121554819Y-58154761D01*
X121554819Y-58154761D02*
X121554819Y-58440475D01*
X121554819Y-58440475D02*
X121507200Y-58535713D01*
X121507200Y-58535713D02*
X121459580Y-58583332D01*
X105859580Y-56741666D02*
X105907200Y-56789285D01*
X105907200Y-56789285D02*
X105954819Y-56932142D01*
X105954819Y-56932142D02*
X105954819Y-57027380D01*
X105954819Y-57027380D02*
X105907200Y-57170237D01*
X105907200Y-57170237D02*
X105811961Y-57265475D01*
X105811961Y-57265475D02*
X105716723Y-57313094D01*
X105716723Y-57313094D02*
X105526247Y-57360713D01*
X105526247Y-57360713D02*
X105383390Y-57360713D01*
X105383390Y-57360713D02*
X105192914Y-57313094D01*
X105192914Y-57313094D02*
X105097676Y-57265475D01*
X105097676Y-57265475D02*
X105002438Y-57170237D01*
X105002438Y-57170237D02*
X104954819Y-57027380D01*
X104954819Y-57027380D02*
X104954819Y-56932142D01*
X104954819Y-56932142D02*
X105002438Y-56789285D01*
X105002438Y-56789285D02*
X105050057Y-56741666D01*
X105050057Y-56360713D02*
X105002438Y-56313094D01*
X105002438Y-56313094D02*
X104954819Y-56217856D01*
X104954819Y-56217856D02*
X104954819Y-55979761D01*
X104954819Y-55979761D02*
X105002438Y-55884523D01*
X105002438Y-55884523D02*
X105050057Y-55836904D01*
X105050057Y-55836904D02*
X105145295Y-55789285D01*
X105145295Y-55789285D02*
X105240533Y-55789285D01*
X105240533Y-55789285D02*
X105383390Y-55836904D01*
X105383390Y-55836904D02*
X105954819Y-56408332D01*
X105954819Y-56408332D02*
X105954819Y-55789285D01*
X135777319Y-75688094D02*
X134777319Y-75688094D01*
X134777319Y-75688094D02*
X134777319Y-75449999D01*
X134777319Y-75449999D02*
X134824938Y-75307142D01*
X134824938Y-75307142D02*
X134920176Y-75211904D01*
X134920176Y-75211904D02*
X135015414Y-75164285D01*
X135015414Y-75164285D02*
X135205890Y-75116666D01*
X135205890Y-75116666D02*
X135348747Y-75116666D01*
X135348747Y-75116666D02*
X135539223Y-75164285D01*
X135539223Y-75164285D02*
X135634461Y-75211904D01*
X135634461Y-75211904D02*
X135729700Y-75307142D01*
X135729700Y-75307142D02*
X135777319Y-75449999D01*
X135777319Y-75449999D02*
X135777319Y-75688094D01*
X135110652Y-74259523D02*
X135777319Y-74259523D01*
X134729700Y-74497618D02*
X135443985Y-74735713D01*
X135443985Y-74735713D02*
X135443985Y-74116666D01*
X147296666Y-96194819D02*
X147296666Y-96909104D01*
X147296666Y-96909104D02*
X147249047Y-97051961D01*
X147249047Y-97051961D02*
X147153809Y-97147200D01*
X147153809Y-97147200D02*
X147010952Y-97194819D01*
X147010952Y-97194819D02*
X146915714Y-97194819D01*
X148249047Y-96194819D02*
X147772857Y-96194819D01*
X147772857Y-96194819D02*
X147725238Y-96671009D01*
X147725238Y-96671009D02*
X147772857Y-96623390D01*
X147772857Y-96623390D02*
X147868095Y-96575771D01*
X147868095Y-96575771D02*
X148106190Y-96575771D01*
X148106190Y-96575771D02*
X148201428Y-96623390D01*
X148201428Y-96623390D02*
X148249047Y-96671009D01*
X148249047Y-96671009D02*
X148296666Y-96766247D01*
X148296666Y-96766247D02*
X148296666Y-97004342D01*
X148296666Y-97004342D02*
X148249047Y-97099580D01*
X148249047Y-97099580D02*
X148201428Y-97147200D01*
X148201428Y-97147200D02*
X148106190Y-97194819D01*
X148106190Y-97194819D02*
X147868095Y-97194819D01*
X147868095Y-97194819D02*
X147772857Y-97147200D01*
X147772857Y-97147200D02*
X147725238Y-97099580D01*
X194916666Y-96194819D02*
X194916666Y-96909104D01*
X194916666Y-96909104D02*
X194869047Y-97051961D01*
X194869047Y-97051961D02*
X194773809Y-97147200D01*
X194773809Y-97147200D02*
X194630952Y-97194819D01*
X194630952Y-97194819D02*
X194535714Y-97194819D01*
X195821428Y-96528152D02*
X195821428Y-97194819D01*
X195583333Y-96147200D02*
X195345238Y-96861485D01*
X195345238Y-96861485D02*
X195964285Y-96861485D01*
X138804819Y-76183220D02*
X139614342Y-76183220D01*
X139614342Y-76183220D02*
X139709580Y-76135601D01*
X139709580Y-76135601D02*
X139757200Y-76087982D01*
X139757200Y-76087982D02*
X139804819Y-75992744D01*
X139804819Y-75992744D02*
X139804819Y-75802268D01*
X139804819Y-75802268D02*
X139757200Y-75707030D01*
X139757200Y-75707030D02*
X139709580Y-75659411D01*
X139709580Y-75659411D02*
X139614342Y-75611792D01*
X139614342Y-75611792D02*
X138804819Y-75611792D01*
X138900057Y-75183220D02*
X138852438Y-75135601D01*
X138852438Y-75135601D02*
X138804819Y-75040363D01*
X138804819Y-75040363D02*
X138804819Y-74802268D01*
X138804819Y-74802268D02*
X138852438Y-74707030D01*
X138852438Y-74707030D02*
X138900057Y-74659411D01*
X138900057Y-74659411D02*
X138995295Y-74611792D01*
X138995295Y-74611792D02*
X139090533Y-74611792D01*
X139090533Y-74611792D02*
X139233390Y-74659411D01*
X139233390Y-74659411D02*
X139804819Y-75230839D01*
X139804819Y-75230839D02*
X139804819Y-74611792D01*
X161416666Y-96194819D02*
X161416666Y-96909104D01*
X161416666Y-96909104D02*
X161369047Y-97051961D01*
X161369047Y-97051961D02*
X161273809Y-97147200D01*
X161273809Y-97147200D02*
X161130952Y-97194819D01*
X161130952Y-97194819D02*
X161035714Y-97194819D01*
X162321428Y-96194819D02*
X162130952Y-96194819D01*
X162130952Y-96194819D02*
X162035714Y-96242438D01*
X162035714Y-96242438D02*
X161988095Y-96290057D01*
X161988095Y-96290057D02*
X161892857Y-96432914D01*
X161892857Y-96432914D02*
X161845238Y-96623390D01*
X161845238Y-96623390D02*
X161845238Y-97004342D01*
X161845238Y-97004342D02*
X161892857Y-97099580D01*
X161892857Y-97099580D02*
X161940476Y-97147200D01*
X161940476Y-97147200D02*
X162035714Y-97194819D01*
X162035714Y-97194819D02*
X162226190Y-97194819D01*
X162226190Y-97194819D02*
X162321428Y-97147200D01*
X162321428Y-97147200D02*
X162369047Y-97099580D01*
X162369047Y-97099580D02*
X162416666Y-97004342D01*
X162416666Y-97004342D02*
X162416666Y-96766247D01*
X162416666Y-96766247D02*
X162369047Y-96671009D01*
X162369047Y-96671009D02*
X162321428Y-96623390D01*
X162321428Y-96623390D02*
X162226190Y-96575771D01*
X162226190Y-96575771D02*
X162035714Y-96575771D01*
X162035714Y-96575771D02*
X161940476Y-96623390D01*
X161940476Y-96623390D02*
X161892857Y-96671009D01*
X161892857Y-96671009D02*
X161845238Y-96766247D01*
X117711905Y-70144819D02*
X117711905Y-69144819D01*
X117711905Y-69144819D02*
X117950000Y-69144819D01*
X117950000Y-69144819D02*
X118092857Y-69192438D01*
X118092857Y-69192438D02*
X118188095Y-69287676D01*
X118188095Y-69287676D02*
X118235714Y-69382914D01*
X118235714Y-69382914D02*
X118283333Y-69573390D01*
X118283333Y-69573390D02*
X118283333Y-69716247D01*
X118283333Y-69716247D02*
X118235714Y-69906723D01*
X118235714Y-69906723D02*
X118188095Y-70001961D01*
X118188095Y-70001961D02*
X118092857Y-70097200D01*
X118092857Y-70097200D02*
X117950000Y-70144819D01*
X117950000Y-70144819D02*
X117711905Y-70144819D01*
X119235714Y-70144819D02*
X118664286Y-70144819D01*
X118950000Y-70144819D02*
X118950000Y-69144819D01*
X118950000Y-69144819D02*
X118854762Y-69287676D01*
X118854762Y-69287676D02*
X118759524Y-69382914D01*
X118759524Y-69382914D02*
X118664286Y-69430533D01*
X123268095Y-69774819D02*
X123268095Y-68774819D01*
X123839523Y-69774819D02*
X123410952Y-69203390D01*
X123839523Y-68774819D02*
X123268095Y-69346247D01*
X125620833Y-61109580D02*
X125573214Y-61157200D01*
X125573214Y-61157200D02*
X125430357Y-61204819D01*
X125430357Y-61204819D02*
X125335119Y-61204819D01*
X125335119Y-61204819D02*
X125192262Y-61157200D01*
X125192262Y-61157200D02*
X125097024Y-61061961D01*
X125097024Y-61061961D02*
X125049405Y-60966723D01*
X125049405Y-60966723D02*
X125001786Y-60776247D01*
X125001786Y-60776247D02*
X125001786Y-60633390D01*
X125001786Y-60633390D02*
X125049405Y-60442914D01*
X125049405Y-60442914D02*
X125097024Y-60347676D01*
X125097024Y-60347676D02*
X125192262Y-60252438D01*
X125192262Y-60252438D02*
X125335119Y-60204819D01*
X125335119Y-60204819D02*
X125430357Y-60204819D01*
X125430357Y-60204819D02*
X125573214Y-60252438D01*
X125573214Y-60252438D02*
X125620833Y-60300057D01*
X126477976Y-60538152D02*
X126477976Y-61204819D01*
X126239881Y-60157200D02*
X126001786Y-60871485D01*
X126001786Y-60871485D02*
X126620833Y-60871485D01*
X128965416Y-96139819D02*
X128965416Y-96854104D01*
X128965416Y-96854104D02*
X128917797Y-96996961D01*
X128917797Y-96996961D02*
X128822559Y-97092200D01*
X128822559Y-97092200D02*
X128679702Y-97139819D01*
X128679702Y-97139819D02*
X128584464Y-97139819D01*
X129393988Y-96235057D02*
X129441607Y-96187438D01*
X129441607Y-96187438D02*
X129536845Y-96139819D01*
X129536845Y-96139819D02*
X129774940Y-96139819D01*
X129774940Y-96139819D02*
X129870178Y-96187438D01*
X129870178Y-96187438D02*
X129917797Y-96235057D01*
X129917797Y-96235057D02*
X129965416Y-96330295D01*
X129965416Y-96330295D02*
X129965416Y-96425533D01*
X129965416Y-96425533D02*
X129917797Y-96568390D01*
X129917797Y-96568390D02*
X129346369Y-97139819D01*
X129346369Y-97139819D02*
X129965416Y-97139819D01*
X179862319Y-88916666D02*
X179386128Y-89249999D01*
X179862319Y-89488094D02*
X178862319Y-89488094D01*
X178862319Y-89488094D02*
X178862319Y-89107142D01*
X178862319Y-89107142D02*
X178909938Y-89011904D01*
X178909938Y-89011904D02*
X178957557Y-88964285D01*
X178957557Y-88964285D02*
X179052795Y-88916666D01*
X179052795Y-88916666D02*
X179195652Y-88916666D01*
X179195652Y-88916666D02*
X179290890Y-88964285D01*
X179290890Y-88964285D02*
X179338509Y-89011904D01*
X179338509Y-89011904D02*
X179386128Y-89107142D01*
X179386128Y-89107142D02*
X179386128Y-89488094D01*
X178862319Y-88583332D02*
X178862319Y-87916666D01*
X178862319Y-87916666D02*
X179862319Y-88345237D01*
X181045833Y-64429580D02*
X180998214Y-64477200D01*
X180998214Y-64477200D02*
X180855357Y-64524819D01*
X180855357Y-64524819D02*
X180760119Y-64524819D01*
X180760119Y-64524819D02*
X180617262Y-64477200D01*
X180617262Y-64477200D02*
X180522024Y-64381961D01*
X180522024Y-64381961D02*
X180474405Y-64286723D01*
X180474405Y-64286723D02*
X180426786Y-64096247D01*
X180426786Y-64096247D02*
X180426786Y-63953390D01*
X180426786Y-63953390D02*
X180474405Y-63762914D01*
X180474405Y-63762914D02*
X180522024Y-63667676D01*
X180522024Y-63667676D02*
X180617262Y-63572438D01*
X180617262Y-63572438D02*
X180760119Y-63524819D01*
X180760119Y-63524819D02*
X180855357Y-63524819D01*
X180855357Y-63524819D02*
X180998214Y-63572438D01*
X180998214Y-63572438D02*
X181045833Y-63620057D01*
X181617262Y-63953390D02*
X181522024Y-63905771D01*
X181522024Y-63905771D02*
X181474405Y-63858152D01*
X181474405Y-63858152D02*
X181426786Y-63762914D01*
X181426786Y-63762914D02*
X181426786Y-63715295D01*
X181426786Y-63715295D02*
X181474405Y-63620057D01*
X181474405Y-63620057D02*
X181522024Y-63572438D01*
X181522024Y-63572438D02*
X181617262Y-63524819D01*
X181617262Y-63524819D02*
X181807738Y-63524819D01*
X181807738Y-63524819D02*
X181902976Y-63572438D01*
X181902976Y-63572438D02*
X181950595Y-63620057D01*
X181950595Y-63620057D02*
X181998214Y-63715295D01*
X181998214Y-63715295D02*
X181998214Y-63762914D01*
X181998214Y-63762914D02*
X181950595Y-63858152D01*
X181950595Y-63858152D02*
X181902976Y-63905771D01*
X181902976Y-63905771D02*
X181807738Y-63953390D01*
X181807738Y-63953390D02*
X181617262Y-63953390D01*
X181617262Y-63953390D02*
X181522024Y-64001009D01*
X181522024Y-64001009D02*
X181474405Y-64048628D01*
X181474405Y-64048628D02*
X181426786Y-64143866D01*
X181426786Y-64143866D02*
X181426786Y-64334342D01*
X181426786Y-64334342D02*
X181474405Y-64429580D01*
X181474405Y-64429580D02*
X181522024Y-64477200D01*
X181522024Y-64477200D02*
X181617262Y-64524819D01*
X181617262Y-64524819D02*
X181807738Y-64524819D01*
X181807738Y-64524819D02*
X181902976Y-64477200D01*
X181902976Y-64477200D02*
X181950595Y-64429580D01*
X181950595Y-64429580D02*
X181998214Y-64334342D01*
X181998214Y-64334342D02*
X181998214Y-64143866D01*
X181998214Y-64143866D02*
X181950595Y-64048628D01*
X181950595Y-64048628D02*
X181902976Y-64001009D01*
X181902976Y-64001009D02*
X181807738Y-63953390D01*
X115014819Y-89329523D02*
X115729104Y-89329523D01*
X115729104Y-89329523D02*
X115871961Y-89377142D01*
X115871961Y-89377142D02*
X115967200Y-89472380D01*
X115967200Y-89472380D02*
X116014819Y-89615237D01*
X116014819Y-89615237D02*
X116014819Y-89710475D01*
X116014819Y-88329523D02*
X116014819Y-88900951D01*
X116014819Y-88615237D02*
X115014819Y-88615237D01*
X115014819Y-88615237D02*
X115157676Y-88710475D01*
X115157676Y-88710475D02*
X115252914Y-88805713D01*
X115252914Y-88805713D02*
X115300533Y-88900951D01*
X116014819Y-87377142D02*
X116014819Y-87948570D01*
X116014819Y-87662856D02*
X115014819Y-87662856D01*
X115014819Y-87662856D02*
X115157676Y-87758094D01*
X115157676Y-87758094D02*
X115252914Y-87853332D01*
X115252914Y-87853332D02*
X115300533Y-87948570D01*
X138354819Y-73038094D02*
X137354819Y-73038094D01*
X137354819Y-73038094D02*
X137354819Y-72799999D01*
X137354819Y-72799999D02*
X137402438Y-72657142D01*
X137402438Y-72657142D02*
X137497676Y-72561904D01*
X137497676Y-72561904D02*
X137592914Y-72514285D01*
X137592914Y-72514285D02*
X137783390Y-72466666D01*
X137783390Y-72466666D02*
X137926247Y-72466666D01*
X137926247Y-72466666D02*
X138116723Y-72514285D01*
X138116723Y-72514285D02*
X138211961Y-72561904D01*
X138211961Y-72561904D02*
X138307200Y-72657142D01*
X138307200Y-72657142D02*
X138354819Y-72799999D01*
X138354819Y-72799999D02*
X138354819Y-73038094D01*
X137354819Y-72133332D02*
X137354819Y-71514285D01*
X137354819Y-71514285D02*
X137735771Y-71847618D01*
X137735771Y-71847618D02*
X137735771Y-71704761D01*
X137735771Y-71704761D02*
X137783390Y-71609523D01*
X137783390Y-71609523D02*
X137831009Y-71561904D01*
X137831009Y-71561904D02*
X137926247Y-71514285D01*
X137926247Y-71514285D02*
X138164342Y-71514285D01*
X138164342Y-71514285D02*
X138259580Y-71561904D01*
X138259580Y-71561904D02*
X138307200Y-71609523D01*
X138307200Y-71609523D02*
X138354819Y-71704761D01*
X138354819Y-71704761D02*
X138354819Y-71990475D01*
X138354819Y-71990475D02*
X138307200Y-72085713D01*
X138307200Y-72085713D02*
X138259580Y-72133332D01*
X179833333Y-79859580D02*
X179785714Y-79907200D01*
X179785714Y-79907200D02*
X179642857Y-79954819D01*
X179642857Y-79954819D02*
X179547619Y-79954819D01*
X179547619Y-79954819D02*
X179404762Y-79907200D01*
X179404762Y-79907200D02*
X179309524Y-79811961D01*
X179309524Y-79811961D02*
X179261905Y-79716723D01*
X179261905Y-79716723D02*
X179214286Y-79526247D01*
X179214286Y-79526247D02*
X179214286Y-79383390D01*
X179214286Y-79383390D02*
X179261905Y-79192914D01*
X179261905Y-79192914D02*
X179309524Y-79097676D01*
X179309524Y-79097676D02*
X179404762Y-79002438D01*
X179404762Y-79002438D02*
X179547619Y-78954819D01*
X179547619Y-78954819D02*
X179642857Y-78954819D01*
X179642857Y-78954819D02*
X179785714Y-79002438D01*
X179785714Y-79002438D02*
X179833333Y-79050057D01*
X180309524Y-79954819D02*
X180500000Y-79954819D01*
X180500000Y-79954819D02*
X180595238Y-79907200D01*
X180595238Y-79907200D02*
X180642857Y-79859580D01*
X180642857Y-79859580D02*
X180738095Y-79716723D01*
X180738095Y-79716723D02*
X180785714Y-79526247D01*
X180785714Y-79526247D02*
X180785714Y-79145295D01*
X180785714Y-79145295D02*
X180738095Y-79050057D01*
X180738095Y-79050057D02*
X180690476Y-79002438D01*
X180690476Y-79002438D02*
X180595238Y-78954819D01*
X180595238Y-78954819D02*
X180404762Y-78954819D01*
X180404762Y-78954819D02*
X180309524Y-79002438D01*
X180309524Y-79002438D02*
X180261905Y-79050057D01*
X180261905Y-79050057D02*
X180214286Y-79145295D01*
X180214286Y-79145295D02*
X180214286Y-79383390D01*
X180214286Y-79383390D02*
X180261905Y-79478628D01*
X180261905Y-79478628D02*
X180309524Y-79526247D01*
X180309524Y-79526247D02*
X180404762Y-79573866D01*
X180404762Y-79573866D02*
X180595238Y-79573866D01*
X180595238Y-79573866D02*
X180690476Y-79526247D01*
X180690476Y-79526247D02*
X180738095Y-79478628D01*
X180738095Y-79478628D02*
X180785714Y-79383390D01*
X178920833Y-69884819D02*
X178587500Y-69408628D01*
X178349405Y-69884819D02*
X178349405Y-68884819D01*
X178349405Y-68884819D02*
X178730357Y-68884819D01*
X178730357Y-68884819D02*
X178825595Y-68932438D01*
X178825595Y-68932438D02*
X178873214Y-68980057D01*
X178873214Y-68980057D02*
X178920833Y-69075295D01*
X178920833Y-69075295D02*
X178920833Y-69218152D01*
X178920833Y-69218152D02*
X178873214Y-69313390D01*
X178873214Y-69313390D02*
X178825595Y-69361009D01*
X178825595Y-69361009D02*
X178730357Y-69408628D01*
X178730357Y-69408628D02*
X178349405Y-69408628D01*
X179825595Y-68884819D02*
X179349405Y-68884819D01*
X179349405Y-68884819D02*
X179301786Y-69361009D01*
X179301786Y-69361009D02*
X179349405Y-69313390D01*
X179349405Y-69313390D02*
X179444643Y-69265771D01*
X179444643Y-69265771D02*
X179682738Y-69265771D01*
X179682738Y-69265771D02*
X179777976Y-69313390D01*
X179777976Y-69313390D02*
X179825595Y-69361009D01*
X179825595Y-69361009D02*
X179873214Y-69456247D01*
X179873214Y-69456247D02*
X179873214Y-69694342D01*
X179873214Y-69694342D02*
X179825595Y-69789580D01*
X179825595Y-69789580D02*
X179777976Y-69837200D01*
X179777976Y-69837200D02*
X179682738Y-69884819D01*
X179682738Y-69884819D02*
X179444643Y-69884819D01*
X179444643Y-69884819D02*
X179349405Y-69837200D01*
X179349405Y-69837200D02*
X179301786Y-69789580D01*
X158311905Y-84304819D02*
X158311905Y-83304819D01*
X158311905Y-83304819D02*
X158550000Y-83304819D01*
X158550000Y-83304819D02*
X158692857Y-83352438D01*
X158692857Y-83352438D02*
X158788095Y-83447676D01*
X158788095Y-83447676D02*
X158835714Y-83542914D01*
X158835714Y-83542914D02*
X158883333Y-83733390D01*
X158883333Y-83733390D02*
X158883333Y-83876247D01*
X158883333Y-83876247D02*
X158835714Y-84066723D01*
X158835714Y-84066723D02*
X158788095Y-84161961D01*
X158788095Y-84161961D02*
X158692857Y-84257200D01*
X158692857Y-84257200D02*
X158550000Y-84304819D01*
X158550000Y-84304819D02*
X158311905Y-84304819D01*
X159740476Y-83304819D02*
X159550000Y-83304819D01*
X159550000Y-83304819D02*
X159454762Y-83352438D01*
X159454762Y-83352438D02*
X159407143Y-83400057D01*
X159407143Y-83400057D02*
X159311905Y-83542914D01*
X159311905Y-83542914D02*
X159264286Y-83733390D01*
X159264286Y-83733390D02*
X159264286Y-84114342D01*
X159264286Y-84114342D02*
X159311905Y-84209580D01*
X159311905Y-84209580D02*
X159359524Y-84257200D01*
X159359524Y-84257200D02*
X159454762Y-84304819D01*
X159454762Y-84304819D02*
X159645238Y-84304819D01*
X159645238Y-84304819D02*
X159740476Y-84257200D01*
X159740476Y-84257200D02*
X159788095Y-84209580D01*
X159788095Y-84209580D02*
X159835714Y-84114342D01*
X159835714Y-84114342D02*
X159835714Y-83876247D01*
X159835714Y-83876247D02*
X159788095Y-83781009D01*
X159788095Y-83781009D02*
X159740476Y-83733390D01*
X159740476Y-83733390D02*
X159645238Y-83685771D01*
X159645238Y-83685771D02*
X159454762Y-83685771D01*
X159454762Y-83685771D02*
X159359524Y-83733390D01*
X159359524Y-83733390D02*
X159311905Y-83781009D01*
X159311905Y-83781009D02*
X159264286Y-83876247D01*
X109755180Y-72776666D02*
X109040895Y-72776666D01*
X109040895Y-72776666D02*
X108898038Y-72729047D01*
X108898038Y-72729047D02*
X108802800Y-72633809D01*
X108802800Y-72633809D02*
X108755180Y-72490952D01*
X108755180Y-72490952D02*
X108755180Y-72395714D01*
X108755180Y-73776666D02*
X108755180Y-73205238D01*
X108755180Y-73490952D02*
X109755180Y-73490952D01*
X109755180Y-73490952D02*
X109612323Y-73395714D01*
X109612323Y-73395714D02*
X109517085Y-73300476D01*
X109517085Y-73300476D02*
X109469466Y-73205238D01*
X176416666Y-96194819D02*
X176416666Y-96909104D01*
X176416666Y-96909104D02*
X176369047Y-97051961D01*
X176369047Y-97051961D02*
X176273809Y-97147200D01*
X176273809Y-97147200D02*
X176130952Y-97194819D01*
X176130952Y-97194819D02*
X176035714Y-97194819D01*
X176797619Y-96194819D02*
X177464285Y-96194819D01*
X177464285Y-96194819D02*
X177035714Y-97194819D01*
X114088095Y-52954819D02*
X114088095Y-53764342D01*
X114088095Y-53764342D02*
X114135714Y-53859580D01*
X114135714Y-53859580D02*
X114183333Y-53907200D01*
X114183333Y-53907200D02*
X114278571Y-53954819D01*
X114278571Y-53954819D02*
X114469047Y-53954819D01*
X114469047Y-53954819D02*
X114564285Y-53907200D01*
X114564285Y-53907200D02*
X114611904Y-53859580D01*
X114611904Y-53859580D02*
X114659523Y-53764342D01*
X114659523Y-53764342D02*
X114659523Y-52954819D01*
X115659523Y-53954819D02*
X115088095Y-53954819D01*
X115373809Y-53954819D02*
X115373809Y-52954819D01*
X115373809Y-52954819D02*
X115278571Y-53097676D01*
X115278571Y-53097676D02*
X115183333Y-53192914D01*
X115183333Y-53192914D02*
X115088095Y-53240533D01*
X117416666Y-96134819D02*
X117416666Y-96849104D01*
X117416666Y-96849104D02*
X117369047Y-96991961D01*
X117369047Y-96991961D02*
X117273809Y-97087200D01*
X117273809Y-97087200D02*
X117130952Y-97134819D01*
X117130952Y-97134819D02*
X117035714Y-97134819D01*
X117797619Y-96134819D02*
X118416666Y-96134819D01*
X118416666Y-96134819D02*
X118083333Y-96515771D01*
X118083333Y-96515771D02*
X118226190Y-96515771D01*
X118226190Y-96515771D02*
X118321428Y-96563390D01*
X118321428Y-96563390D02*
X118369047Y-96611009D01*
X118369047Y-96611009D02*
X118416666Y-96706247D01*
X118416666Y-96706247D02*
X118416666Y-96944342D01*
X118416666Y-96944342D02*
X118369047Y-97039580D01*
X118369047Y-97039580D02*
X118321428Y-97087200D01*
X118321428Y-97087200D02*
X118226190Y-97134819D01*
X118226190Y-97134819D02*
X117940476Y-97134819D01*
X117940476Y-97134819D02*
X117845238Y-97087200D01*
X117845238Y-97087200D02*
X117797619Y-97039580D01*
X184916667Y-76907200D02*
X185059524Y-76954819D01*
X185059524Y-76954819D02*
X185297619Y-76954819D01*
X185297619Y-76954819D02*
X185392857Y-76907200D01*
X185392857Y-76907200D02*
X185440476Y-76859580D01*
X185440476Y-76859580D02*
X185488095Y-76764342D01*
X185488095Y-76764342D02*
X185488095Y-76669104D01*
X185488095Y-76669104D02*
X185440476Y-76573866D01*
X185440476Y-76573866D02*
X185392857Y-76526247D01*
X185392857Y-76526247D02*
X185297619Y-76478628D01*
X185297619Y-76478628D02*
X185107143Y-76431009D01*
X185107143Y-76431009D02*
X185011905Y-76383390D01*
X185011905Y-76383390D02*
X184964286Y-76335771D01*
X184964286Y-76335771D02*
X184916667Y-76240533D01*
X184916667Y-76240533D02*
X184916667Y-76145295D01*
X184916667Y-76145295D02*
X184964286Y-76050057D01*
X184964286Y-76050057D02*
X185011905Y-76002438D01*
X185011905Y-76002438D02*
X185107143Y-75954819D01*
X185107143Y-75954819D02*
X185345238Y-75954819D01*
X185345238Y-75954819D02*
X185488095Y-76002438D01*
X185821429Y-75954819D02*
X186059524Y-76954819D01*
X186059524Y-76954819D02*
X186250000Y-76240533D01*
X186250000Y-76240533D02*
X186440476Y-76954819D01*
X186440476Y-76954819D02*
X186678572Y-75954819D01*
X187011905Y-76050057D02*
X187059524Y-76002438D01*
X187059524Y-76002438D02*
X187154762Y-75954819D01*
X187154762Y-75954819D02*
X187392857Y-75954819D01*
X187392857Y-75954819D02*
X187488095Y-76002438D01*
X187488095Y-76002438D02*
X187535714Y-76050057D01*
X187535714Y-76050057D02*
X187583333Y-76145295D01*
X187583333Y-76145295D02*
X187583333Y-76240533D01*
X187583333Y-76240533D02*
X187535714Y-76383390D01*
X187535714Y-76383390D02*
X186964286Y-76954819D01*
X186964286Y-76954819D02*
X187583333Y-76954819D01*
X117454819Y-77666666D02*
X116978628Y-77999999D01*
X117454819Y-78238094D02*
X116454819Y-78238094D01*
X116454819Y-78238094D02*
X116454819Y-77857142D01*
X116454819Y-77857142D02*
X116502438Y-77761904D01*
X116502438Y-77761904D02*
X116550057Y-77714285D01*
X116550057Y-77714285D02*
X116645295Y-77666666D01*
X116645295Y-77666666D02*
X116788152Y-77666666D01*
X116788152Y-77666666D02*
X116883390Y-77714285D01*
X116883390Y-77714285D02*
X116931009Y-77761904D01*
X116931009Y-77761904D02*
X116978628Y-77857142D01*
X116978628Y-77857142D02*
X116978628Y-78238094D01*
X116550057Y-77285713D02*
X116502438Y-77238094D01*
X116502438Y-77238094D02*
X116454819Y-77142856D01*
X116454819Y-77142856D02*
X116454819Y-76904761D01*
X116454819Y-76904761D02*
X116502438Y-76809523D01*
X116502438Y-76809523D02*
X116550057Y-76761904D01*
X116550057Y-76761904D02*
X116645295Y-76714285D01*
X116645295Y-76714285D02*
X116740533Y-76714285D01*
X116740533Y-76714285D02*
X116883390Y-76761904D01*
X116883390Y-76761904D02*
X117454819Y-77333332D01*
X117454819Y-77333332D02*
X117454819Y-76714285D01*
X205954819Y-96809523D02*
X206669104Y-96809523D01*
X206669104Y-96809523D02*
X206811961Y-96857142D01*
X206811961Y-96857142D02*
X206907200Y-96952380D01*
X206907200Y-96952380D02*
X206954819Y-97095237D01*
X206954819Y-97095237D02*
X206954819Y-97190475D01*
X206954819Y-95809523D02*
X206954819Y-96380951D01*
X206954819Y-96095237D02*
X205954819Y-96095237D01*
X205954819Y-96095237D02*
X206097676Y-96190475D01*
X206097676Y-96190475D02*
X206192914Y-96285713D01*
X206192914Y-96285713D02*
X206240533Y-96380951D01*
X205954819Y-95190475D02*
X205954819Y-95095237D01*
X205954819Y-95095237D02*
X206002438Y-94999999D01*
X206002438Y-94999999D02*
X206050057Y-94952380D01*
X206050057Y-94952380D02*
X206145295Y-94904761D01*
X206145295Y-94904761D02*
X206335771Y-94857142D01*
X206335771Y-94857142D02*
X206573866Y-94857142D01*
X206573866Y-94857142D02*
X206764342Y-94904761D01*
X206764342Y-94904761D02*
X206859580Y-94952380D01*
X206859580Y-94952380D02*
X206907200Y-94999999D01*
X206907200Y-94999999D02*
X206954819Y-95095237D01*
X206954819Y-95095237D02*
X206954819Y-95190475D01*
X206954819Y-95190475D02*
X206907200Y-95285713D01*
X206907200Y-95285713D02*
X206859580Y-95333332D01*
X206859580Y-95333332D02*
X206764342Y-95380951D01*
X206764342Y-95380951D02*
X206573866Y-95428570D01*
X206573866Y-95428570D02*
X206335771Y-95428570D01*
X206335771Y-95428570D02*
X206145295Y-95380951D01*
X206145295Y-95380951D02*
X206050057Y-95333332D01*
X206050057Y-95333332D02*
X206002438Y-95285713D01*
X206002438Y-95285713D02*
X205954819Y-95190475D01*
X125333333Y-63109580D02*
X125285714Y-63157200D01*
X125285714Y-63157200D02*
X125142857Y-63204819D01*
X125142857Y-63204819D02*
X125047619Y-63204819D01*
X125047619Y-63204819D02*
X124904762Y-63157200D01*
X124904762Y-63157200D02*
X124809524Y-63061961D01*
X124809524Y-63061961D02*
X124761905Y-62966723D01*
X124761905Y-62966723D02*
X124714286Y-62776247D01*
X124714286Y-62776247D02*
X124714286Y-62633390D01*
X124714286Y-62633390D02*
X124761905Y-62442914D01*
X124761905Y-62442914D02*
X124809524Y-62347676D01*
X124809524Y-62347676D02*
X124904762Y-62252438D01*
X124904762Y-62252438D02*
X125047619Y-62204819D01*
X125047619Y-62204819D02*
X125142857Y-62204819D01*
X125142857Y-62204819D02*
X125285714Y-62252438D01*
X125285714Y-62252438D02*
X125333333Y-62300057D01*
X126238095Y-62204819D02*
X125761905Y-62204819D01*
X125761905Y-62204819D02*
X125714286Y-62681009D01*
X125714286Y-62681009D02*
X125761905Y-62633390D01*
X125761905Y-62633390D02*
X125857143Y-62585771D01*
X125857143Y-62585771D02*
X126095238Y-62585771D01*
X126095238Y-62585771D02*
X126190476Y-62633390D01*
X126190476Y-62633390D02*
X126238095Y-62681009D01*
X126238095Y-62681009D02*
X126285714Y-62776247D01*
X126285714Y-62776247D02*
X126285714Y-63014342D01*
X126285714Y-63014342D02*
X126238095Y-63109580D01*
X126238095Y-63109580D02*
X126190476Y-63157200D01*
X126190476Y-63157200D02*
X126095238Y-63204819D01*
X126095238Y-63204819D02*
X125857143Y-63204819D01*
X125857143Y-63204819D02*
X125761905Y-63157200D01*
X125761905Y-63157200D02*
X125714286Y-63109580D01*
X185738095Y-81404819D02*
X185738095Y-82214342D01*
X185738095Y-82214342D02*
X185785714Y-82309580D01*
X185785714Y-82309580D02*
X185833333Y-82357200D01*
X185833333Y-82357200D02*
X185928571Y-82404819D01*
X185928571Y-82404819D02*
X186119047Y-82404819D01*
X186119047Y-82404819D02*
X186214285Y-82357200D01*
X186214285Y-82357200D02*
X186261904Y-82309580D01*
X186261904Y-82309580D02*
X186309523Y-82214342D01*
X186309523Y-82214342D02*
X186309523Y-81404819D01*
X186690476Y-81404819D02*
X187309523Y-81404819D01*
X187309523Y-81404819D02*
X186976190Y-81785771D01*
X186976190Y-81785771D02*
X187119047Y-81785771D01*
X187119047Y-81785771D02*
X187214285Y-81833390D01*
X187214285Y-81833390D02*
X187261904Y-81881009D01*
X187261904Y-81881009D02*
X187309523Y-81976247D01*
X187309523Y-81976247D02*
X187309523Y-82214342D01*
X187309523Y-82214342D02*
X187261904Y-82309580D01*
X187261904Y-82309580D02*
X187214285Y-82357200D01*
X187214285Y-82357200D02*
X187119047Y-82404819D01*
X187119047Y-82404819D02*
X186833333Y-82404819D01*
X186833333Y-82404819D02*
X186738095Y-82357200D01*
X186738095Y-82357200D02*
X186690476Y-82309580D01*
X111561905Y-62904819D02*
X111561905Y-61904819D01*
X111561905Y-61904819D02*
X111800000Y-61904819D01*
X111800000Y-61904819D02*
X111942857Y-61952438D01*
X111942857Y-61952438D02*
X112038095Y-62047676D01*
X112038095Y-62047676D02*
X112085714Y-62142914D01*
X112085714Y-62142914D02*
X112133333Y-62333390D01*
X112133333Y-62333390D02*
X112133333Y-62476247D01*
X112133333Y-62476247D02*
X112085714Y-62666723D01*
X112085714Y-62666723D02*
X112038095Y-62761961D01*
X112038095Y-62761961D02*
X111942857Y-62857200D01*
X111942857Y-62857200D02*
X111800000Y-62904819D01*
X111800000Y-62904819D02*
X111561905Y-62904819D01*
X112514286Y-62000057D02*
X112561905Y-61952438D01*
X112561905Y-61952438D02*
X112657143Y-61904819D01*
X112657143Y-61904819D02*
X112895238Y-61904819D01*
X112895238Y-61904819D02*
X112990476Y-61952438D01*
X112990476Y-61952438D02*
X113038095Y-62000057D01*
X113038095Y-62000057D02*
X113085714Y-62095295D01*
X113085714Y-62095295D02*
X113085714Y-62190533D01*
X113085714Y-62190533D02*
X113038095Y-62333390D01*
X113038095Y-62333390D02*
X112466667Y-62904819D01*
X112466667Y-62904819D02*
X113085714Y-62904819D01*
X183333333Y-67359580D02*
X183285714Y-67407200D01*
X183285714Y-67407200D02*
X183142857Y-67454819D01*
X183142857Y-67454819D02*
X183047619Y-67454819D01*
X183047619Y-67454819D02*
X182904762Y-67407200D01*
X182904762Y-67407200D02*
X182809524Y-67311961D01*
X182809524Y-67311961D02*
X182761905Y-67216723D01*
X182761905Y-67216723D02*
X182714286Y-67026247D01*
X182714286Y-67026247D02*
X182714286Y-66883390D01*
X182714286Y-66883390D02*
X182761905Y-66692914D01*
X182761905Y-66692914D02*
X182809524Y-66597676D01*
X182809524Y-66597676D02*
X182904762Y-66502438D01*
X182904762Y-66502438D02*
X183047619Y-66454819D01*
X183047619Y-66454819D02*
X183142857Y-66454819D01*
X183142857Y-66454819D02*
X183285714Y-66502438D01*
X183285714Y-66502438D02*
X183333333Y-66550057D01*
X183666667Y-66454819D02*
X184333333Y-66454819D01*
X184333333Y-66454819D02*
X183904762Y-67454819D01*
X113670833Y-70704819D02*
X113337500Y-70228628D01*
X113099405Y-70704819D02*
X113099405Y-69704819D01*
X113099405Y-69704819D02*
X113480357Y-69704819D01*
X113480357Y-69704819D02*
X113575595Y-69752438D01*
X113575595Y-69752438D02*
X113623214Y-69800057D01*
X113623214Y-69800057D02*
X113670833Y-69895295D01*
X113670833Y-69895295D02*
X113670833Y-70038152D01*
X113670833Y-70038152D02*
X113623214Y-70133390D01*
X113623214Y-70133390D02*
X113575595Y-70181009D01*
X113575595Y-70181009D02*
X113480357Y-70228628D01*
X113480357Y-70228628D02*
X113099405Y-70228628D01*
X114623214Y-70704819D02*
X114051786Y-70704819D01*
X114337500Y-70704819D02*
X114337500Y-69704819D01*
X114337500Y-69704819D02*
X114242262Y-69847676D01*
X114242262Y-69847676D02*
X114147024Y-69942914D01*
X114147024Y-69942914D02*
X114051786Y-69990533D01*
X119408333Y-71859580D02*
X119360714Y-71907200D01*
X119360714Y-71907200D02*
X119217857Y-71954819D01*
X119217857Y-71954819D02*
X119122619Y-71954819D01*
X119122619Y-71954819D02*
X118979762Y-71907200D01*
X118979762Y-71907200D02*
X118884524Y-71811961D01*
X118884524Y-71811961D02*
X118836905Y-71716723D01*
X118836905Y-71716723D02*
X118789286Y-71526247D01*
X118789286Y-71526247D02*
X118789286Y-71383390D01*
X118789286Y-71383390D02*
X118836905Y-71192914D01*
X118836905Y-71192914D02*
X118884524Y-71097676D01*
X118884524Y-71097676D02*
X118979762Y-71002438D01*
X118979762Y-71002438D02*
X119122619Y-70954819D01*
X119122619Y-70954819D02*
X119217857Y-70954819D01*
X119217857Y-70954819D02*
X119360714Y-71002438D01*
X119360714Y-71002438D02*
X119408333Y-71050057D01*
X120360714Y-71954819D02*
X119789286Y-71954819D01*
X120075000Y-71954819D02*
X120075000Y-70954819D01*
X120075000Y-70954819D02*
X119979762Y-71097676D01*
X119979762Y-71097676D02*
X119884524Y-71192914D01*
X119884524Y-71192914D02*
X119789286Y-71240533D01*
X124554819Y-59238094D02*
X123554819Y-59238094D01*
X123554819Y-59238094D02*
X123554819Y-58999999D01*
X123554819Y-58999999D02*
X123602438Y-58857142D01*
X123602438Y-58857142D02*
X123697676Y-58761904D01*
X123697676Y-58761904D02*
X123792914Y-58714285D01*
X123792914Y-58714285D02*
X123983390Y-58666666D01*
X123983390Y-58666666D02*
X124126247Y-58666666D01*
X124126247Y-58666666D02*
X124316723Y-58714285D01*
X124316723Y-58714285D02*
X124411961Y-58761904D01*
X124411961Y-58761904D02*
X124507200Y-58857142D01*
X124507200Y-58857142D02*
X124554819Y-58999999D01*
X124554819Y-58999999D02*
X124554819Y-59238094D01*
X123554819Y-57761904D02*
X123554819Y-58238094D01*
X123554819Y-58238094D02*
X124031009Y-58285713D01*
X124031009Y-58285713D02*
X123983390Y-58238094D01*
X123983390Y-58238094D02*
X123935771Y-58142856D01*
X123935771Y-58142856D02*
X123935771Y-57904761D01*
X123935771Y-57904761D02*
X123983390Y-57809523D01*
X123983390Y-57809523D02*
X124031009Y-57761904D01*
X124031009Y-57761904D02*
X124126247Y-57714285D01*
X124126247Y-57714285D02*
X124364342Y-57714285D01*
X124364342Y-57714285D02*
X124459580Y-57761904D01*
X124459580Y-57761904D02*
X124507200Y-57809523D01*
X124507200Y-57809523D02*
X124554819Y-57904761D01*
X124554819Y-57904761D02*
X124554819Y-58142856D01*
X124554819Y-58142856D02*
X124507200Y-58238094D01*
X124507200Y-58238094D02*
X124459580Y-58285713D01*
X204204819Y-94579166D02*
X203728628Y-94912499D01*
X204204819Y-95150594D02*
X203204819Y-95150594D01*
X203204819Y-95150594D02*
X203204819Y-94769642D01*
X203204819Y-94769642D02*
X203252438Y-94674404D01*
X203252438Y-94674404D02*
X203300057Y-94626785D01*
X203300057Y-94626785D02*
X203395295Y-94579166D01*
X203395295Y-94579166D02*
X203538152Y-94579166D01*
X203538152Y-94579166D02*
X203633390Y-94626785D01*
X203633390Y-94626785D02*
X203681009Y-94674404D01*
X203681009Y-94674404D02*
X203728628Y-94769642D01*
X203728628Y-94769642D02*
X203728628Y-95150594D01*
X203633390Y-94007737D02*
X203585771Y-94102975D01*
X203585771Y-94102975D02*
X203538152Y-94150594D01*
X203538152Y-94150594D02*
X203442914Y-94198213D01*
X203442914Y-94198213D02*
X203395295Y-94198213D01*
X203395295Y-94198213D02*
X203300057Y-94150594D01*
X203300057Y-94150594D02*
X203252438Y-94102975D01*
X203252438Y-94102975D02*
X203204819Y-94007737D01*
X203204819Y-94007737D02*
X203204819Y-93817261D01*
X203204819Y-93817261D02*
X203252438Y-93722023D01*
X203252438Y-93722023D02*
X203300057Y-93674404D01*
X203300057Y-93674404D02*
X203395295Y-93626785D01*
X203395295Y-93626785D02*
X203442914Y-93626785D01*
X203442914Y-93626785D02*
X203538152Y-93674404D01*
X203538152Y-93674404D02*
X203585771Y-93722023D01*
X203585771Y-93722023D02*
X203633390Y-93817261D01*
X203633390Y-93817261D02*
X203633390Y-94007737D01*
X203633390Y-94007737D02*
X203681009Y-94102975D01*
X203681009Y-94102975D02*
X203728628Y-94150594D01*
X203728628Y-94150594D02*
X203823866Y-94198213D01*
X203823866Y-94198213D02*
X204014342Y-94198213D01*
X204014342Y-94198213D02*
X204109580Y-94150594D01*
X204109580Y-94150594D02*
X204157200Y-94102975D01*
X204157200Y-94102975D02*
X204204819Y-94007737D01*
X204204819Y-94007737D02*
X204204819Y-93817261D01*
X204204819Y-93817261D02*
X204157200Y-93722023D01*
X204157200Y-93722023D02*
X204109580Y-93674404D01*
X204109580Y-93674404D02*
X204014342Y-93626785D01*
X204014342Y-93626785D02*
X203823866Y-93626785D01*
X203823866Y-93626785D02*
X203728628Y-93674404D01*
X203728628Y-93674404D02*
X203681009Y-93722023D01*
X203681009Y-93722023D02*
X203633390Y-93817261D01*
X171016667Y-76657200D02*
X171159524Y-76704819D01*
X171159524Y-76704819D02*
X171397619Y-76704819D01*
X171397619Y-76704819D02*
X171492857Y-76657200D01*
X171492857Y-76657200D02*
X171540476Y-76609580D01*
X171540476Y-76609580D02*
X171588095Y-76514342D01*
X171588095Y-76514342D02*
X171588095Y-76419104D01*
X171588095Y-76419104D02*
X171540476Y-76323866D01*
X171540476Y-76323866D02*
X171492857Y-76276247D01*
X171492857Y-76276247D02*
X171397619Y-76228628D01*
X171397619Y-76228628D02*
X171207143Y-76181009D01*
X171207143Y-76181009D02*
X171111905Y-76133390D01*
X171111905Y-76133390D02*
X171064286Y-76085771D01*
X171064286Y-76085771D02*
X171016667Y-75990533D01*
X171016667Y-75990533D02*
X171016667Y-75895295D01*
X171016667Y-75895295D02*
X171064286Y-75800057D01*
X171064286Y-75800057D02*
X171111905Y-75752438D01*
X171111905Y-75752438D02*
X171207143Y-75704819D01*
X171207143Y-75704819D02*
X171445238Y-75704819D01*
X171445238Y-75704819D02*
X171588095Y-75752438D01*
X171921429Y-75704819D02*
X172159524Y-76704819D01*
X172159524Y-76704819D02*
X172350000Y-75990533D01*
X172350000Y-75990533D02*
X172540476Y-76704819D01*
X172540476Y-76704819D02*
X172778572Y-75704819D01*
X173683333Y-76704819D02*
X173111905Y-76704819D01*
X173397619Y-76704819D02*
X173397619Y-75704819D01*
X173397619Y-75704819D02*
X173302381Y-75847676D01*
X173302381Y-75847676D02*
X173207143Y-75942914D01*
X173207143Y-75942914D02*
X173111905Y-75990533D01*
X107859580Y-56741666D02*
X107907200Y-56789285D01*
X107907200Y-56789285D02*
X107954819Y-56932142D01*
X107954819Y-56932142D02*
X107954819Y-57027380D01*
X107954819Y-57027380D02*
X107907200Y-57170237D01*
X107907200Y-57170237D02*
X107811961Y-57265475D01*
X107811961Y-57265475D02*
X107716723Y-57313094D01*
X107716723Y-57313094D02*
X107526247Y-57360713D01*
X107526247Y-57360713D02*
X107383390Y-57360713D01*
X107383390Y-57360713D02*
X107192914Y-57313094D01*
X107192914Y-57313094D02*
X107097676Y-57265475D01*
X107097676Y-57265475D02*
X107002438Y-57170237D01*
X107002438Y-57170237D02*
X106954819Y-57027380D01*
X106954819Y-57027380D02*
X106954819Y-56932142D01*
X106954819Y-56932142D02*
X107002438Y-56789285D01*
X107002438Y-56789285D02*
X107050057Y-56741666D01*
X106954819Y-56408332D02*
X106954819Y-55789285D01*
X106954819Y-55789285D02*
X107335771Y-56122618D01*
X107335771Y-56122618D02*
X107335771Y-55979761D01*
X107335771Y-55979761D02*
X107383390Y-55884523D01*
X107383390Y-55884523D02*
X107431009Y-55836904D01*
X107431009Y-55836904D02*
X107526247Y-55789285D01*
X107526247Y-55789285D02*
X107764342Y-55789285D01*
X107764342Y-55789285D02*
X107859580Y-55836904D01*
X107859580Y-55836904D02*
X107907200Y-55884523D01*
X107907200Y-55884523D02*
X107954819Y-55979761D01*
X107954819Y-55979761D02*
X107954819Y-56265475D01*
X107954819Y-56265475D02*
X107907200Y-56360713D01*
X107907200Y-56360713D02*
X107859580Y-56408332D01*
D12*
%TO.C,C6*%
X162727500Y-76511252D02*
X162727500Y-75988748D01*
X164197500Y-76511252D02*
X164197500Y-75988748D01*
%TO.C,J8*%
X208794000Y-70780000D02*
X218715000Y-70780000D01*
X208794000Y-91220000D02*
X208794000Y-70780000D01*
X208794000Y-91220000D02*
X218715000Y-91220000D01*
X211754000Y-91220000D02*
X211754000Y-70780000D01*
X212780000Y-72310000D02*
X212816000Y-72345000D01*
X212780000Y-77390000D02*
X212816000Y-77425000D01*
X212780000Y-82470000D02*
X212816000Y-82505000D01*
X212986000Y-72105000D02*
X213032000Y-72152000D01*
X212986000Y-77185000D02*
X213032000Y-77232000D01*
X212986000Y-82265000D02*
X213032000Y-82312000D01*
X215078000Y-74607000D02*
X215124000Y-74654000D01*
X215078000Y-79687000D02*
X215124000Y-79734000D01*
X215078000Y-84767000D02*
X215124000Y-84814000D01*
X215294000Y-74414000D02*
X215329000Y-74449000D01*
X215294000Y-79494000D02*
X215329000Y-79529000D01*
X215294000Y-84574000D02*
X215329000Y-84609000D01*
X216655000Y-91220000D02*
X216655000Y-70780000D01*
X218155000Y-91220000D02*
X218155000Y-70780000D01*
X218215000Y-91460000D02*
X218955000Y-91460000D01*
X218715000Y-91220000D02*
X218715000Y-70780000D01*
X218955000Y-91460000D02*
X218955000Y-90960000D01*
X212519574Y-89303042D02*
G75*
G02*
X212520001Y-87936001I1535419J683041D01*
G01*
X213371958Y-87084574D02*
G75*
G02*
X214739000Y-87085000I683042J-1535426D01*
G01*
X214738042Y-90155426D02*
G75*
G02*
X213371001Y-90154999I-683041J1535419D01*
G01*
X215589755Y-87936682D02*
G75*
G02*
X215734999Y-88620000I-1534755J-683318D01*
G01*
X215735252Y-88591195D02*
G75*
G02*
X215589999Y-89304000I-1680253J-28806D01*
G01*
X215735000Y-73380000D02*
G75*
G02*
X212375000Y-73380000I-1680000J0D01*
G01*
X212375000Y-73380000D02*
G75*
G02*
X215735000Y-73380000I1680000J0D01*
G01*
X215735000Y-78460000D02*
G75*
G02*
X212375000Y-78460000I-1680000J0D01*
G01*
X212375000Y-78460000D02*
G75*
G02*
X215735000Y-78460000I1680000J0D01*
G01*
X215735000Y-83540000D02*
G75*
G02*
X212375000Y-83540000I-1680000J0D01*
G01*
X212375000Y-83540000D02*
G75*
G02*
X215735000Y-83540000I1680000J0D01*
G01*
%TO.C,R6*%
X179342224Y-70227500D02*
X178832776Y-70227500D01*
X179342224Y-71272500D02*
X178832776Y-71272500D01*
%TO.C,R4*%
X166227500Y-76342224D02*
X166227500Y-75832776D01*
X167272500Y-76342224D02*
X167272500Y-75832776D01*
%TO.C,R9*%
X204477500Y-90332776D02*
X204477500Y-90842224D01*
X205522500Y-90332776D02*
X205522500Y-90842224D01*
%TO.C,C10*%
X180223752Y-73515000D02*
X179701248Y-73515000D01*
X180223752Y-74985000D02*
X179701248Y-74985000D01*
%TO.C,R3*%
X120490000Y-55850276D02*
X120490000Y-56359724D01*
X121535000Y-55850276D02*
X121535000Y-56359724D01*
%TO.C,C2*%
X104765000Y-59548752D02*
X104765000Y-59026248D01*
X106235000Y-59548752D02*
X106235000Y-59026248D01*
%TO.C,D4*%
X136022500Y-74250000D02*
X136022500Y-76210000D01*
X136022500Y-76210000D02*
X137222500Y-76210000D01*
X137222500Y-74250000D02*
X137222500Y-76210000D01*
%TO.C,J5*%
X137170000Y-107160000D02*
X137170000Y-107900000D01*
X137170000Y-107900000D02*
X137670000Y-107900000D01*
X137410000Y-97739000D02*
X137410000Y-107660000D01*
X137410000Y-97739000D02*
X157850000Y-97739000D01*
X137410000Y-100699000D02*
X157850000Y-100699000D01*
X137410000Y-105600000D02*
X157850000Y-105600000D01*
X137410000Y-107100000D02*
X157850000Y-107100000D01*
X137410000Y-107660000D02*
X157850000Y-107660000D01*
X143863000Y-104023000D02*
X143816000Y-104069000D01*
X144056000Y-104239000D02*
X144021000Y-104274000D01*
X146160000Y-101725000D02*
X146125000Y-101761000D01*
X146365000Y-101931000D02*
X146318000Y-101977000D01*
X148943000Y-104023000D02*
X148896000Y-104069000D01*
X149136000Y-104239000D02*
X149101000Y-104274000D01*
X151240000Y-101725000D02*
X151205000Y-101761000D01*
X151445000Y-101931000D02*
X151398000Y-101977000D01*
X154023000Y-104023000D02*
X153976000Y-104069000D01*
X154216000Y-104239000D02*
X154181000Y-104274000D01*
X156320000Y-101725000D02*
X156285000Y-101761000D01*
X156525000Y-101931000D02*
X156478000Y-101977000D01*
X157850000Y-97739000D02*
X157850000Y-107660000D01*
X138474574Y-103683042D02*
G75*
G02*
X138475001Y-102316001I1535419J683041D01*
G01*
X139326958Y-101464574D02*
G75*
G02*
X140693999Y-101465001I683041J-1535419D01*
G01*
X140038805Y-104680252D02*
G75*
G02*
X139326000Y-104534999I-28806J1680253D01*
G01*
X140693318Y-104534755D02*
G75*
G02*
X140010000Y-104679999I-683318J1534755D01*
G01*
X141545426Y-102316958D02*
G75*
G02*
X141545000Y-103684000I-1535426J-683042D01*
G01*
X146770000Y-103000000D02*
G75*
G02*
X143410000Y-103000000I-1680000J0D01*
G01*
X143410000Y-103000000D02*
G75*
G02*
X146770000Y-103000000I1680000J0D01*
G01*
X151850000Y-103000000D02*
G75*
G02*
X148490000Y-103000000I-1680000J0D01*
G01*
X148490000Y-103000000D02*
G75*
G02*
X151850000Y-103000000I1680000J0D01*
G01*
X156930000Y-103000000D02*
G75*
G02*
X153570000Y-103000000I-1680000J0D01*
G01*
X153570000Y-103000000D02*
G75*
G02*
X156930000Y-103000000I1680000J0D01*
G01*
%TO.C,J4*%
X186910000Y-107160000D02*
X186910000Y-107900000D01*
X186910000Y-107900000D02*
X187410000Y-107900000D01*
X187150000Y-97739000D02*
X187150000Y-107660000D01*
X187150000Y-97739000D02*
X207590000Y-97739000D01*
X187150000Y-100699000D02*
X207590000Y-100699000D01*
X187150000Y-105600000D02*
X207590000Y-105600000D01*
X187150000Y-107100000D02*
X207590000Y-107100000D01*
X187150000Y-107660000D02*
X207590000Y-107660000D01*
X193603000Y-104023000D02*
X193556000Y-104069000D01*
X193796000Y-104239000D02*
X193761000Y-104274000D01*
X195900000Y-101725000D02*
X195865000Y-101761000D01*
X196105000Y-101931000D02*
X196058000Y-101977000D01*
X198683000Y-104023000D02*
X198636000Y-104069000D01*
X198876000Y-104239000D02*
X198841000Y-104274000D01*
X200980000Y-101725000D02*
X200945000Y-101761000D01*
X201185000Y-101931000D02*
X201138000Y-101977000D01*
X203763000Y-104023000D02*
X203716000Y-104069000D01*
X203956000Y-104239000D02*
X203921000Y-104274000D01*
X206060000Y-101725000D02*
X206025000Y-101761000D01*
X206265000Y-101931000D02*
X206218000Y-101977000D01*
X207590000Y-97739000D02*
X207590000Y-107660000D01*
X188214574Y-103683042D02*
G75*
G02*
X188215001Y-102316001I1535419J683041D01*
G01*
X189066958Y-101464574D02*
G75*
G02*
X190433999Y-101465001I683041J-1535419D01*
G01*
X189778805Y-104680252D02*
G75*
G02*
X189066000Y-104534999I-28806J1680253D01*
G01*
X190433318Y-104534755D02*
G75*
G02*
X189750000Y-104679999I-683318J1534755D01*
G01*
X191285426Y-102316958D02*
G75*
G02*
X191285000Y-103684000I-1535426J-683042D01*
G01*
X196510000Y-103000000D02*
G75*
G02*
X193150000Y-103000000I-1680000J0D01*
G01*
X193150000Y-103000000D02*
G75*
G02*
X196510000Y-103000000I1680000J0D01*
G01*
X201590000Y-103000000D02*
G75*
G02*
X198230000Y-103000000I-1680000J0D01*
G01*
X198230000Y-103000000D02*
G75*
G02*
X201590000Y-103000000I1680000J0D01*
G01*
X206670000Y-103000000D02*
G75*
G02*
X203310000Y-103000000I-1680000J0D01*
G01*
X203310000Y-103000000D02*
G75*
G02*
X206670000Y-103000000I1680000J0D01*
G01*
%TO.C,U2*%
X140650000Y-75970000D02*
X140650000Y-75020000D01*
X142050000Y-75970000D02*
X140650000Y-75970000D01*
X157650000Y-75970000D02*
X159050000Y-75970000D01*
X159050000Y-75970000D02*
X159050000Y-75020000D01*
X140650000Y-57020000D02*
X140150000Y-57020000D01*
X140650000Y-56520000D01*
X140650000Y-57020000D01*
G36*
X140650000Y-57020000D02*
G01*
X140150000Y-57020000D01*
X140650000Y-56520000D01*
X140650000Y-57020000D01*
G37*
%TO.C,J6*%
X158912500Y-107160000D02*
X158912500Y-107900000D01*
X158912500Y-107900000D02*
X159412500Y-107900000D01*
X159152500Y-97739000D02*
X159152500Y-107660000D01*
X159152500Y-97739000D02*
X169432500Y-97739000D01*
X159152500Y-100699000D02*
X169432500Y-100699000D01*
X159152500Y-105600000D02*
X169432500Y-105600000D01*
X159152500Y-107100000D02*
X169432500Y-107100000D01*
X159152500Y-107660000D02*
X169432500Y-107660000D01*
X165605500Y-104023000D02*
X165558500Y-104069000D01*
X165798500Y-104239000D02*
X165763500Y-104274000D01*
X167902500Y-101725000D02*
X167867500Y-101761000D01*
X168107500Y-101931000D02*
X168060500Y-101977000D01*
X169432500Y-97739000D02*
X169432500Y-107660000D01*
X160217074Y-103683042D02*
G75*
G02*
X160217501Y-102316001I1535419J683041D01*
G01*
X161069458Y-101464574D02*
G75*
G02*
X162436499Y-101465001I683041J-1535419D01*
G01*
X161781305Y-104680252D02*
G75*
G02*
X161068500Y-104534999I-28806J1680253D01*
G01*
X162435818Y-104534755D02*
G75*
G02*
X161752500Y-104679999I-683318J1534755D01*
G01*
X163287926Y-102316958D02*
G75*
G02*
X163287500Y-103684000I-1535426J-683042D01*
G01*
X168512500Y-103000000D02*
G75*
G02*
X165152500Y-103000000I-1680000J0D01*
G01*
X165152500Y-103000000D02*
G75*
G02*
X168512500Y-103000000I1680000J0D01*
G01*
%TO.C,D1*%
X114510000Y-67250000D02*
X115530000Y-67250000D01*
X115530000Y-65780000D02*
X115530000Y-68720000D01*
X115530000Y-68720000D02*
X120970000Y-68720000D01*
X119950000Y-68720000D02*
X119950000Y-65780000D01*
X120070000Y-68720000D02*
X120070000Y-65780000D01*
X120190000Y-68720000D02*
X120190000Y-65780000D01*
X120970000Y-65780000D02*
X115530000Y-65780000D01*
X120970000Y-68720000D02*
X120970000Y-65780000D01*
X121990000Y-67250000D02*
X120970000Y-67250000D01*
%TO.C,C4*%
X122488748Y-60015000D02*
X123011252Y-60015000D01*
X122488748Y-61485000D02*
X123011252Y-61485000D01*
%TO.C,J2*%
X125668750Y-107105000D02*
X125668750Y-107845000D01*
X125668750Y-107845000D02*
X126168750Y-107845000D01*
X125908750Y-97684000D02*
X125908750Y-107605000D01*
X125908750Y-97684000D02*
X136188750Y-97684000D01*
X125908750Y-100644000D02*
X136188750Y-100644000D01*
X125908750Y-105545000D02*
X136188750Y-105545000D01*
X125908750Y-107045000D02*
X136188750Y-107045000D01*
X125908750Y-107605000D02*
X136188750Y-107605000D01*
X132361750Y-103968000D02*
X132314750Y-104014000D01*
X132554750Y-104184000D02*
X132519750Y-104219000D01*
X134658750Y-101670000D02*
X134623750Y-101706000D01*
X134863750Y-101876000D02*
X134816750Y-101922000D01*
X136188750Y-97684000D02*
X136188750Y-107605000D01*
X126973324Y-103628042D02*
G75*
G02*
X126973751Y-102261001I1535419J683041D01*
G01*
X127825708Y-101409574D02*
G75*
G02*
X129192749Y-101410001I683041J-1535419D01*
G01*
X128537555Y-104625252D02*
G75*
G02*
X127824750Y-104479999I-28806J1680253D01*
G01*
X129192068Y-104479755D02*
G75*
G02*
X128508750Y-104624999I-683318J1534755D01*
G01*
X130044176Y-102261958D02*
G75*
G02*
X130043750Y-103629000I-1535426J-683042D01*
G01*
X135268750Y-102945000D02*
G75*
G02*
X131908750Y-102945000I-1680000J0D01*
G01*
X131908750Y-102945000D02*
G75*
G02*
X135268750Y-102945000I1680000J0D01*
G01*
%TO.C,R7*%
X180315000Y-89004724D02*
X180315000Y-88495276D01*
X181360000Y-89004724D02*
X181360000Y-88495276D01*
%TO.C,C8*%
X180951248Y-65015000D02*
X181473752Y-65015000D01*
X180951248Y-66485000D02*
X181473752Y-66485000D01*
%TO.C,J11*%
X104400000Y-80600000D02*
X104400000Y-81100000D01*
X104640000Y-80840000D02*
X104640000Y-96200000D01*
X105140000Y-80600000D02*
X104400000Y-80600000D01*
X105200000Y-80840000D02*
X105200000Y-96200000D01*
X106700000Y-80840000D02*
X106700000Y-96200000D01*
X108061000Y-87486000D02*
X108026000Y-87451000D01*
X108061000Y-92566000D02*
X108026000Y-92531000D01*
X108277000Y-87293000D02*
X108231000Y-87246000D01*
X108277000Y-92373000D02*
X108231000Y-92326000D01*
X110369000Y-89795000D02*
X110323000Y-89748000D01*
X110369000Y-94875000D02*
X110323000Y-94828000D01*
X110575000Y-89590000D02*
X110539000Y-89555000D01*
X110575000Y-94670000D02*
X110539000Y-94635000D01*
X111601000Y-80840000D02*
X111601000Y-96200000D01*
X114561000Y-80840000D02*
X104640000Y-80840000D01*
X114561000Y-80840000D02*
X114561000Y-96200000D01*
X114561000Y-96200000D02*
X104640000Y-96200000D01*
X107619748Y-83468805D02*
G75*
G02*
X107765001Y-82756000I1680253J28806D01*
G01*
X107765245Y-84123318D02*
G75*
G02*
X107620001Y-83440000I1534755J683318D01*
G01*
X108616958Y-81904574D02*
G75*
G02*
X109983999Y-81905001I683041J-1535419D01*
G01*
X109983042Y-84975426D02*
G75*
G02*
X108616000Y-84975000I-683042J1535426D01*
G01*
X110835426Y-82756958D02*
G75*
G02*
X110834999Y-84123999I-1535419J-683041D01*
G01*
X110980000Y-88520000D02*
G75*
G02*
X107620000Y-88520000I-1680000J0D01*
G01*
X107620000Y-88520000D02*
G75*
G02*
X110980000Y-88520000I1680000J0D01*
G01*
X110980000Y-93600000D02*
G75*
G02*
X107620000Y-93600000I-1680000J0D01*
G01*
X107620000Y-93600000D02*
G75*
G02*
X110980000Y-93600000I1680000J0D01*
G01*
%TO.C,D3*%
X136000000Y-73000000D02*
X136000000Y-71040000D01*
X137200000Y-71040000D02*
X136000000Y-71040000D01*
X137200000Y-73000000D02*
X137200000Y-71040000D01*
%TO.C,C9*%
X180223752Y-77015000D02*
X179701248Y-77015000D01*
X180223752Y-78485000D02*
X179701248Y-78485000D01*
%TO.C,R5*%
X179342224Y-67477500D02*
X178832776Y-67477500D01*
X179342224Y-68522500D02*
X178832776Y-68522500D01*
%TO.C,D6*%
X155400000Y-84600000D02*
X162700000Y-84600000D01*
X155400000Y-90100000D02*
X162700000Y-90100000D01*
X162700000Y-90100000D02*
X162700000Y-88950000D01*
%TO.C,J1*%
X103810000Y-68440000D02*
X105510000Y-68440000D01*
X103810000Y-77780000D02*
X105510000Y-77780000D01*
%TO.C,J7*%
X170371250Y-107160000D02*
X170371250Y-107900000D01*
X170371250Y-107900000D02*
X170871250Y-107900000D01*
X170611250Y-97739000D02*
X170611250Y-107660000D01*
X170611250Y-97739000D02*
X185971250Y-97739000D01*
X170611250Y-100699000D02*
X185971250Y-100699000D01*
X170611250Y-105600000D02*
X185971250Y-105600000D01*
X170611250Y-107100000D02*
X185971250Y-107100000D01*
X170611250Y-107660000D02*
X185971250Y-107660000D01*
X177064250Y-104023000D02*
X177017250Y-104069000D01*
X177257250Y-104239000D02*
X177222250Y-104274000D01*
X179361250Y-101725000D02*
X179326250Y-101761000D01*
X179566250Y-101931000D02*
X179519250Y-101977000D01*
X182144250Y-104023000D02*
X182097250Y-104069000D01*
X182337250Y-104239000D02*
X182302250Y-104274000D01*
X184441250Y-101725000D02*
X184406250Y-101761000D01*
X184646250Y-101931000D02*
X184599250Y-101977000D01*
X185971250Y-97739000D02*
X185971250Y-107660000D01*
X171675824Y-103683042D02*
G75*
G02*
X171676251Y-102316001I1535419J683041D01*
G01*
X172528208Y-101464574D02*
G75*
G02*
X173895249Y-101465001I683041J-1535419D01*
G01*
X173240055Y-104680252D02*
G75*
G02*
X172527250Y-104534999I-28806J1680253D01*
G01*
X173894568Y-104534755D02*
G75*
G02*
X173211250Y-104679999I-683318J1534755D01*
G01*
X174746676Y-102316958D02*
G75*
G02*
X174746250Y-103684000I-1535426J-683042D01*
G01*
X179971250Y-103000000D02*
G75*
G02*
X176611250Y-103000000I-1680000J0D01*
G01*
X176611250Y-103000000D02*
G75*
G02*
X179971250Y-103000000I1680000J0D01*
G01*
X185051250Y-103000000D02*
G75*
G02*
X181691250Y-103000000I-1680000J0D01*
G01*
X181691250Y-103000000D02*
G75*
G02*
X185051250Y-103000000I1680000J0D01*
G01*
%TO.C,U1*%
X113000000Y-54590000D02*
X116760000Y-54590000D01*
X113000000Y-61410000D02*
X116760000Y-61410000D01*
X116760000Y-54590000D02*
X116760000Y-55850000D01*
X116760000Y-61410000D02*
X116760000Y-60150000D01*
X111720000Y-54690000D02*
X111480000Y-54360000D01*
X111960000Y-54360000D01*
X111720000Y-54690000D01*
G36*
X111720000Y-54690000D02*
G01*
X111480000Y-54360000D01*
X111960000Y-54360000D01*
X111720000Y-54690000D01*
G37*
%TO.C,J3*%
X104200000Y-107100000D02*
X104200000Y-107840000D01*
X104200000Y-107840000D02*
X104700000Y-107840000D01*
X104440000Y-97679000D02*
X104440000Y-107600000D01*
X104440000Y-97679000D02*
X124880000Y-97679000D01*
X104440000Y-100639000D02*
X124880000Y-100639000D01*
X104440000Y-105540000D02*
X124880000Y-105540000D01*
X104440000Y-107040000D02*
X124880000Y-107040000D01*
X104440000Y-107600000D02*
X124880000Y-107600000D01*
X110893000Y-103963000D02*
X110846000Y-104009000D01*
X111086000Y-104179000D02*
X111051000Y-104214000D01*
X113190000Y-101665000D02*
X113155000Y-101701000D01*
X113395000Y-101871000D02*
X113348000Y-101917000D01*
X115973000Y-103963000D02*
X115926000Y-104009000D01*
X116166000Y-104179000D02*
X116131000Y-104214000D01*
X118270000Y-101665000D02*
X118235000Y-101701000D01*
X118475000Y-101871000D02*
X118428000Y-101917000D01*
X121053000Y-103963000D02*
X121006000Y-104009000D01*
X121246000Y-104179000D02*
X121211000Y-104214000D01*
X123350000Y-101665000D02*
X123315000Y-101701000D01*
X123555000Y-101871000D02*
X123508000Y-101917000D01*
X124880000Y-97679000D02*
X124880000Y-107600000D01*
X105504574Y-103623042D02*
G75*
G02*
X105505001Y-102256001I1535419J683041D01*
G01*
X106356958Y-101404574D02*
G75*
G02*
X107723999Y-101405001I683041J-1535419D01*
G01*
X107068805Y-104620252D02*
G75*
G02*
X106356000Y-104474999I-28806J1680253D01*
G01*
X107723318Y-104474755D02*
G75*
G02*
X107040000Y-104619999I-683318J1534755D01*
G01*
X108575426Y-102256958D02*
G75*
G02*
X108575000Y-103624000I-1535426J-683042D01*
G01*
X113800000Y-102940000D02*
G75*
G02*
X110440000Y-102940000I-1680000J0D01*
G01*
X110440000Y-102940000D02*
G75*
G02*
X113800000Y-102940000I1680000J0D01*
G01*
X118880000Y-102940000D02*
G75*
G02*
X115520000Y-102940000I-1680000J0D01*
G01*
X115520000Y-102940000D02*
G75*
G02*
X118880000Y-102940000I1680000J0D01*
G01*
X123960000Y-102940000D02*
G75*
G02*
X120600000Y-102940000I-1680000J0D01*
G01*
X120600000Y-102940000D02*
G75*
G02*
X123960000Y-102940000I1680000J0D01*
G01*
D10*
%TO.C,SW2*%
X184150000Y-73400000D02*
X184150000Y-72600000D01*
X184650000Y-71400000D02*
X187850000Y-71400000D01*
X187850000Y-74600000D02*
X184650000Y-74600000D01*
X188350000Y-73400000D02*
X188350000Y-72600000D01*
X189250000Y-74000000D02*
G75*
G02*
X189250000Y-74100000I0J-50000D01*
G01*
X189250000Y-74100000D02*
G75*
G02*
X189250000Y-74000000I0J50000D01*
G01*
D12*
%TO.C,R2*%
X115077500Y-77145276D02*
X115077500Y-77654724D01*
X116122500Y-77145276D02*
X116122500Y-77654724D01*
%TO.C,J10*%
X208794000Y-92325000D02*
X218715000Y-92325000D01*
X208794000Y-107685000D02*
X208794000Y-92325000D01*
X208794000Y-107685000D02*
X218715000Y-107685000D01*
X211754000Y-107685000D02*
X211754000Y-92325000D01*
X212780000Y-93855000D02*
X212816000Y-93890000D01*
X212780000Y-98935000D02*
X212816000Y-98970000D01*
X212986000Y-93650000D02*
X213032000Y-93697000D01*
X212986000Y-98730000D02*
X213032000Y-98777000D01*
X215078000Y-96152000D02*
X215124000Y-96199000D01*
X215078000Y-101232000D02*
X215124000Y-101279000D01*
X215294000Y-95959000D02*
X215329000Y-95994000D01*
X215294000Y-101039000D02*
X215329000Y-101074000D01*
X216655000Y-107685000D02*
X216655000Y-92325000D01*
X218155000Y-107685000D02*
X218155000Y-92325000D01*
X218215000Y-107925000D02*
X218955000Y-107925000D01*
X218715000Y-107685000D02*
X218715000Y-92325000D01*
X218955000Y-107925000D02*
X218955000Y-107425000D01*
X212519574Y-105768042D02*
G75*
G02*
X212520001Y-104401001I1535419J683041D01*
G01*
X213371958Y-103549574D02*
G75*
G02*
X214739000Y-103550000I683042J-1535426D01*
G01*
X214738042Y-106620426D02*
G75*
G02*
X213371001Y-106619999I-683041J1535419D01*
G01*
X215589755Y-104401682D02*
G75*
G02*
X215734999Y-105085000I-1534755J-683318D01*
G01*
X215735252Y-105056195D02*
G75*
G02*
X215589999Y-105769000I-1680253J-28806D01*
G01*
X215735000Y-94925000D02*
G75*
G02*
X212375000Y-94925000I-1680000J0D01*
G01*
X212375000Y-94925000D02*
G75*
G02*
X215735000Y-94925000I1680000J0D01*
G01*
X215735000Y-100005000D02*
G75*
G02*
X212375000Y-100005000I-1680000J0D01*
G01*
X212375000Y-100005000D02*
G75*
G02*
X215735000Y-100005000I1680000J0D01*
G01*
%TO.C,C5*%
X122451248Y-62015000D02*
X122973752Y-62015000D01*
X122451248Y-63485000D02*
X122973752Y-63485000D01*
D11*
%TO.C,U3*%
X184875000Y-82875000D02*
X184875000Y-83100000D01*
X184875000Y-82875000D02*
X188125000Y-82875000D01*
X184875000Y-86125000D02*
X184875000Y-85900000D01*
X184875000Y-86125000D02*
X188125000Y-86125000D01*
X188125000Y-82875000D02*
X188125000Y-83100000D01*
X188125000Y-86125000D02*
X188125000Y-85900000D01*
D12*
X184400000Y-83100000D02*
X184160000Y-82770000D01*
X184640000Y-82770000D01*
X184400000Y-83100000D01*
G36*
X184400000Y-83100000D02*
G01*
X184160000Y-82770000D01*
X184640000Y-82770000D01*
X184400000Y-83100000D01*
G37*
%TO.C,D2*%
X111040000Y-63150000D02*
X111040000Y-64350000D01*
X113000000Y-63150000D02*
X111040000Y-63150000D01*
X113000000Y-64350000D02*
X111040000Y-64350000D01*
%TO.C,C7*%
X183723752Y-67765000D02*
X183201248Y-67765000D01*
X183723752Y-69235000D02*
X183201248Y-69235000D01*
%TO.C,R1*%
X113582776Y-70977500D02*
X114092224Y-70977500D01*
X113582776Y-72022500D02*
X114092224Y-72022500D01*
%TO.C,C1*%
X122548752Y-70765000D02*
X122026248Y-70765000D01*
X122548752Y-72235000D02*
X122026248Y-72235000D01*
%TO.C,D5*%
X123365000Y-54552500D02*
X123365000Y-56837500D01*
X124835000Y-54552500D02*
X123365000Y-54552500D01*
X124835000Y-56837500D02*
X124835000Y-54552500D01*
%TO.C,R8*%
X204477500Y-94157776D02*
X204477500Y-94667224D01*
X205522500Y-94157776D02*
X205522500Y-94667224D01*
D10*
%TO.C,SW1*%
X170250000Y-73300000D02*
X170250000Y-72500000D01*
X170750000Y-71300000D02*
X173950000Y-71300000D01*
X173950000Y-74500000D02*
X170750000Y-74500000D01*
X174450000Y-73300000D02*
X174450000Y-72500000D01*
X175350000Y-73900000D02*
G75*
G02*
X175350000Y-74000000I0J-50000D01*
G01*
X175350000Y-74000000D02*
G75*
G02*
X175350000Y-73900000I0J50000D01*
G01*
D12*
%TO.C,C3*%
X106765000Y-59548752D02*
X106765000Y-59026248D01*
X108235000Y-59548752D02*
X108235000Y-59026248D01*
%TD*%
M02*
