M48
; DRILL file {KiCad 8.0.0} date 2024-03-06T11:06:47-0600
; FORMAT={-:-/ absolute / inch / decimal}
; #@! TF.CreationDate,2024-03-06T11:06:47-06:00
; #@! TF.GenerationSoftware,Kicad,Pcbnew,8.0.0
; #@! TF.FileFunction,Plated,1,2,PTH
FMAT,2
INCH
; #@! TA.AperFunction,Plated,PTH,ViaDrill
T1C0.0118
; #@! TA.AperFunction,Plated,PTH,ComponentDrill
T2C0.0118
; #@! TA.AperFunction,Plated,PTH,ComponentDrill
T3C0.0236
; #@! TA.AperFunction,Plated,PTH,ComponentDrill
T4C0.0433
; #@! TA.AperFunction,Plated,PTH,ComponentDrill
T5C0.0512
%
G90
G05
T1
X4.2028Y-3.376
X4.5866Y-2.7559
X4.813Y-3.1693
X4.9311Y-2.7559
X4.9311Y-2.9528
X5.0394Y-2.8346
X5.0394Y-3.0315
X5.2165Y-2.9823
X5.2657Y-2.9823
X5.3248Y-3.002
X5.3346Y-3.0709
X5.3543Y-2.7165
X5.6299Y-2.5689
X5.6398Y-2.7854
X5.6988Y-2.5295
X5.6988Y-2.7854
X5.7579Y-2.7854
X5.7677Y-2.2736
X5.7874Y-2.3228
X5.7874Y-2.372
X5.9646Y-2.2736
X6.0827Y-3.248
X6.1122Y-2.2736
X6.3287Y-3.2382
X6.3386Y-2.3228
X6.3583Y-2.7362
X6.3583Y-2.8543
X6.7913Y-3.2579
X6.8799Y-3.0709
X6.9094Y-3.4154
X7.0079Y-2.5098
X7.2047Y-2.372
X7.3622Y-2.4016
X7.4902Y-3.5925
X7.9429Y-3.5039
T2
X5.787Y-2.4551
X5.787Y-2.5142
X5.8165Y-2.4256
X5.8165Y-2.4846
X5.8165Y-2.5437
X5.8461Y-2.4551
X5.8461Y-2.5142
X5.8756Y-2.4256
X5.8756Y-2.4846
X5.8756Y-2.5437
X5.9051Y-2.4551
X5.9051Y-2.5142
T4
X4.4555Y-2.6476
X4.8555Y-2.6476
T5
X4.2142Y-4.0528
X4.3031Y-3.285
X4.3031Y-3.485
X4.3031Y-3.685
X4.4142Y-4.0528
X4.6142Y-4.0528
X4.8142Y-4.0528
X5.0594Y-4.053
X5.2594Y-4.053
X5.5122Y-4.0551
X5.7122Y-4.0551
X5.9122Y-4.0551
X6.1122Y-4.0551
X6.3682Y-4.0551
X6.5682Y-4.0551
X6.8193Y-4.0551
X7.0193Y-4.0551
X7.2193Y-4.0551
X7.4705Y-4.0551
X7.6705Y-4.0551
X7.8705Y-4.0551
X8.0705Y-4.0551
X8.4274Y-2.889
X8.4274Y-3.089
X8.4274Y-3.289
X8.4274Y-3.489
X8.4274Y-3.7372
X8.4274Y-3.9372
X8.4274Y-4.1372
T3
G00X4.0565Y-2.7083
M15
G01X4.025Y-2.7083
M16
G05
G00X4.0565Y-3.0484
M15
G01X4.025Y-3.0484
M16
G05
G00X4.227Y-2.7083
M15
G01X4.1837Y-2.7083
M16
G05
G00X4.227Y-3.0484
M15
G01X4.1837Y-3.0484
M16
G05
M30
