%TF.GenerationSoftware,KiCad,Pcbnew,8.0.0*%
%TF.CreationDate,2024-03-06T11:07:10-06:00*%
%TF.ProjectId,ESP32-S3 Weather Station V2,45535033-322d-4533-9320-576561746865,rev?*%
%TF.SameCoordinates,Original*%
%TF.FileFunction,Soldermask,Bot*%
%TF.FilePolarity,Negative*%
%FSLAX46Y46*%
G04 Gerber Fmt 4.6, Leading zero omitted, Abs format (unit mm)*
G04 Created by KiCad (PCBNEW 8.0.0) date 2024-03-06 11:07:10*
%MOMM*%
%LPD*%
G01*
G04 APERTURE LIST*
%ADD10R,2.600000X2.600000*%
%ADD11C,2.600000*%
%ADD12C,0.600000*%
%ADD13R,2.200000X2.200000*%
%ADD14O,2.200000X2.200000*%
%ADD15C,0.650000*%
%ADD16O,2.100000X1.000000*%
%ADD17O,1.800000X1.000000*%
G04 APERTURE END LIST*
D10*
%TO.C,J8*%
X214055000Y-88620000D03*
D11*
X214055000Y-83540000D03*
X214055000Y-78460000D03*
X214055000Y-73380000D03*
%TD*%
D10*
%TO.C,J5*%
X140010000Y-103000000D03*
D11*
X145090000Y-103000000D03*
X150170000Y-103000000D03*
X155250000Y-103000000D03*
%TD*%
D10*
%TO.C,J4*%
X189750000Y-103000000D03*
D11*
X194830000Y-103000000D03*
X199910000Y-103000000D03*
X204990000Y-103000000D03*
%TD*%
D12*
%TO.C,U2*%
X146990000Y-62360000D03*
X146990000Y-63860000D03*
X147740000Y-61610000D03*
X147740000Y-63110000D03*
X147740000Y-64610000D03*
X148490000Y-62360000D03*
X148490000Y-63860000D03*
X149240000Y-61610000D03*
X149240000Y-63110000D03*
X149240000Y-64610000D03*
X149990000Y-62360000D03*
X149990000Y-63860000D03*
%TD*%
D10*
%TO.C,J6*%
X161752500Y-103000000D03*
D11*
X166832500Y-103000000D03*
%TD*%
D13*
%TO.C,D1*%
X123330000Y-67250000D03*
D14*
X113170000Y-67250000D03*
%TD*%
D10*
%TO.C,J2*%
X128508750Y-102945000D03*
D11*
X133588750Y-102945000D03*
%TD*%
D10*
%TO.C,J11*%
X109300000Y-83440000D03*
D11*
X109300000Y-88520000D03*
X109300000Y-93600000D03*
%TD*%
D15*
%TO.C,J1*%
X106315000Y-70220000D03*
X106315000Y-76000000D03*
D16*
X106815000Y-68790000D03*
D17*
X102635000Y-68790000D03*
D16*
X106815000Y-77430000D03*
D17*
X102635000Y-77430000D03*
%TD*%
D10*
%TO.C,J7*%
X173211250Y-103000000D03*
D11*
X178291250Y-103000000D03*
X183371250Y-103000000D03*
%TD*%
D10*
%TO.C,J3*%
X107040000Y-102940000D03*
D11*
X112120000Y-102940000D03*
X117200000Y-102940000D03*
X122280000Y-102940000D03*
%TD*%
D10*
%TO.C,J10*%
X214055000Y-105085000D03*
D11*
X214055000Y-100005000D03*
X214055000Y-94925000D03*
%TD*%
M02*
